<svg transform="scale(1)" version="1.1" id="Layer_1" xmlns="http://www.w3.org/2000/svg" xmlns:xlink="http://www.w3.org/1999/xlink" x="0px" y="0px" viewBox="0 0 500 500" xml:space="preserve" class="show_show__wrapper__graphic__5Waiy "><title>React</title><style type="text/css">
	.st0{fill:#000111;}
	.st1{fill:url(#SVGID_1_);}
	.st2{fill:#FFFFFF;}
	.st3{fill:#FED490;}
	.st4{fill:url(#SVGID_00000155148470331385867930000012242125078864756382_);}
	.st5{fill:url(#SVGID_00000139287459842036637670000012004510820617440442_);}
	.st6{fill:url(#SVGID_00000020383213829152882820000014370915864623245501_);}
	.st7{fill:url(#SVGID_00000046313066640659454710000002035965994232181142_);}
	.st8{fill:url(#SVGID_00000008844077096694624110000016453357388373234102_);}
	.st9{fill:#FFC2A7;}
	.st10{fill:#D88260;}
	.st11{fill:url(#SVGID_00000044867402925159324730000012400281319166278583_);}
	.st12{fill:url(#SVGID_00000124841087625281891870000009550460039004520889_);}
	.st13{fill:url(#SVGID_00000165195294008427999840000010103687123833820803_);}
	.st14{fill:url(#SVGID_00000049920169370658814030000010680029927390650031_);}
	.st15{fill:#e65896;}
	.st16{fill:url(#SVGID_00000018230094862610980100000017140447129963839675_);}
	.st17{fill:url(#SVGID_00000061465363712800712630000013291077778859461024_);}
	.st18{fill:url(#SVGID_00000073701882423453472260000001814500479517431948_);}
</style><g id="screen"><path class="st0" d="M272.5,285.5H113.6c-8.8,0-16-7.2-16-16v-19.6c-0.1-0.7,0.4-1.2,1.1-1.3s1.2,0.4,1.3,1.1c0,0.1,0,0.1,0,0.2
		v19.7c0,7.5,6.1,13.6,13.6,13.6h158.9c0.7,0,1.2,0.5,1.2,1.2S273.2,285.5,272.5,285.5z"></path><path class="st0" d="M98.8,144.4c-0.7,0-1.2-0.5-1.2-1.2c0,0,0,0,0,0v-12.8c0-8.8,7.2-16,16-16h0.3c0.7-0.1,1.2,0.4,1.3,1.1
		c0.1,0.7-0.4,1.2-1.1,1.3c-0.1,0-0.1,0-0.2,0h-0.4c-7.5,0-13.6,6.1-13.6,13.6c0,0,0,0,0,0v12.8C100,143.9,99.5,144.4,98.8,144.4z"></path><path class="st0" d="M306.9,272.9H125.3c-6.8,0-12.3-5.5-12.3-12.4V250c-0.1-0.7,0.4-1.2,1.1-1.3s1.2,0.4,1.3,1.1
		c0,0.1,0,0.1,0,0.2v10.5c0,5.5,4.5,10,10,10h181.5c0.7,0,1.2,0.5,1.2,1.2S307.5,272.9,306.9,272.9L306.9,272.9z"></path><path class="st0" d="M389.2,222.4c-0.7,0-1.2-0.5-1.2-1.2V102.6c0-5.5-4.5-10-10-10H125.3c-5.5,0-10,4.5-10,10v40.7
		c0.1,0.7-0.4,1.2-1.1,1.3s-1.2-0.4-1.3-1.1c0-0.1,0-0.1,0-0.2v-40.7c0-6.8,5.5-12.3,12.3-12.3H378c6.8,0,12.3,5.5,12.4,12.3v118.6
		C390.4,221.8,389.8,222.3,389.2,222.4z"></path><linearGradient id="SVGID_1_" gradientUnits="userSpaceOnUse" x1="159.0916" y1="475.2812" x2="204.6816" y2="415.9712" gradientTransform="matrix(1 0 0 -1 0 502)"><stop offset="0" style="stop-color: rgb(243, 131, 116);"></stop><stop offset="1" style="stop-color: rgb(198, 66, 52);"></stop></linearGradient><path class="st1" d="M263.8,68.3v24c0,4.1-3.3,7.4-7.4,7.4h-82.2c-1.2,0-2.4,0.5-3.3,1.3l-7.1,7.1c-1.8,1.8-4.7,1.8-6.5,0
		c-0.9-0.9-1.3-2-1.3-3.2l0,0c0-2.5-2.1-4.6-4.6-4.6h-6.9c-4.1,0-7.4-3.3-7.4-7.3V68.8c0-4.1,3.3-7.3,7.3-7.4L256.4,61
		C260.5,61,263.8,64.3,263.8,68.3z"></path><path class="st2" d="M244,92.8h-86.4c-6.7-0.2-11.9-5.8-11.7-12.4c0.2-6.4,5.3-11.6,11.7-11.7H244c6.7,0.2,11.9,5.8,11.7,12.4
		C255.6,87.5,250.4,92.6,244,92.8z M157.6,71c-5.4-0.2-9.9,4-10,9.4c-0.2,5.4,4,9.9,9.4,10c0.2,0,0.4,0,0.6,0H244
		c5.4,0.2,9.9-4,10-9.4c0.2-5.4-4-9.9-9.4-10c-0.2,0-0.4,0-0.6,0H157.6z"></path><path class="st2" d="M157.6,69.8h41.3c6,0,10.9,4.9,10.9,10.9l0,0c0,6-4.9,10.9-10.9,10.9h-41.3c-6,0-10.9-4.9-10.9-10.9l0,0
		C146.7,74.7,151.6,69.8,157.6,69.8z"></path><path class="st2" d="M234.1,78.6c-0.4-0.4-0.6-1-0.5-1.6v-1.1c0-0.6,0.2-1.2,0.5-1.6c0.9-0.8,2.2-0.8,3.1,0c0.4,0.5,0.6,1,0.5,1.6
		V77c0,0.6-0.2,1.2-0.5,1.6c-0.4,0.4-1,0.6-1.5,0.6C235,79.2,234.5,79,234.1,78.6z M241.2,73.8h1.5L236,86.3h-1.5L241.2,73.8z
		 M236.1,77.6c0.1-0.2,0.2-0.4,0.2-0.6v-1.3c0-0.2-0.1-0.4-0.2-0.5c-0.1-0.1-0.3-0.2-0.5-0.2c-0.2,0-0.4,0.1-0.5,0.2
		c-0.1,0.2-0.2,0.3-0.2,0.5v1.2c0,0.2,0,0.4,0.2,0.6c0.1,0.1,0.3,0.2,0.5,0.2C235.8,77.8,235.9,77.7,236.1,77.6z M240.2,85.8
		c-0.4-0.4-0.6-1-0.5-1.6v-1.1c0-0.6,0.2-1.2,0.5-1.6c0.9-0.8,2.2-0.8,3.1,0c0.4,0.5,0.6,1,0.5,1.6v1.1c0,0.6-0.2,1.2-0.6,1.6
		c-0.4,0.4-1,0.6-1.5,0.6C241.2,86.5,240.7,86.2,240.2,85.8z M242.2,84.8c0.1-0.2,0.2-0.4,0.2-0.6v-1.2c0-0.2-0.1-0.4-0.2-0.5
		c-0.3-0.3-0.7-0.3-0.9,0c-0.1,0.2-0.2,0.3-0.2,0.5v1.2c0,0.2,0,0.4,0.2,0.6c0.1,0.1,0.3,0.2,0.5,0.2C242,85.1,242.1,85,242.2,84.8
		L242.2,84.8z"></path><path class="st0" d="M372,116.8h-67.6c-0.7-0.1-1.1-0.6-1.1-1.3c0.1-0.6,0.5-1,1.1-1.1H372c0.7,0.1,1.1,0.6,1.1,1.3
		C373,116.3,372.6,116.7,372,116.8z"></path><path class="st0" d="M372,125.5h-67.6c-0.7-0.1-1.1-0.6-1.1-1.3c0.1-0.6,0.5-1,1.1-1.1H372c0.7,0.1,1.1,0.6,1.1,1.3
		C373,125,372.6,125.4,372,125.5z"></path><path class="st0" d="M372,134.1h-67.6c-0.7-0.1-1.1-0.6-1.1-1.3c0.1-0.6,0.5-1,1.1-1.1H372c0.7,0.1,1.1,0.6,1.1,1.3
		C373,133.6,372.6,134.1,372,134.1z"></path><path class="st0" d="M372,142.8h-67.6c-0.7-0.1-1.1-0.6-1.1-1.3c0.1-0.6,0.5-1,1.1-1.1H372c0.7,0.1,1.1,0.6,1.1,1.3
		C373,142.3,372.6,142.8,372,142.8z"></path><path class="st0" d="M330.2,151.5h-25.8c-0.7,0-1.2-0.5-1.2-1.2s0.5-1.2,1.2-1.2h25.8c0.7,0,1.2,0.5,1.2,1.2
		S330.9,151.5,330.2,151.5z"></path><path class="st0" d="M330.2,160.1h-25.8c-0.7,0-1.2-0.5-1.2-1.2s0.5-1.2,1.2-1.2h25.8c0.7,0,1.2,0.5,1.2,1.2
		S330.9,160.1,330.2,160.1z"></path><rect class="st3" x="302" y="168.2" width="72.8" height="15.1"></rect><linearGradient id="SVGID_00000077302562803777655310000008809410156326913186_" gradientUnits="userSpaceOnUse" x1="306.9638" y1="348.3754" x2="335.7038" y2="309.6154" gradientTransform="matrix(1 0 0 -1 0 502)"><stop offset="0" style="stop-color: rgb(243, 131, 116);"></stop><stop offset="1" style="stop-color: rgb(198, 66, 52);"></stop></linearGradient><rect x="302" y="188.6" width="72.8" height="15.1" style="fill: url(&quot;#SVGID_00000077302562803777655310000008809410156326913186_&quot;);"></rect></g><g id="magnifying_glass"><circle class="st0" cx="238.6" cy="166.6" r="57.3"></circle><path class="st0" d="M238.5,225.1c-32.3-0.1-58.4-26.3-58.4-58.5s26.3-58.4,58.5-58.4s58.4,26.3,58.4,58.5c0,12.2-3.8,24-10.9,33.9
		C275.2,216,257.4,225.1,238.5,225.1z M238.7,110.5c-18.1,0-35.2,8.7-45.7,23.5l0,0c-18,25.2-12.2,60.3,13,78.3s60.3,12.2,78.3-13
		c18-25.2,12.2-60.3-13-78.3C261.8,114.2,250.4,110.5,238.7,110.5L238.7,110.5z M192,133.3L192,133.3z"></path><circle class="st2" cx="238.6" cy="166.6" r="47.7"></circle><path class="st0" d="M238.5,215.5c-27,0-48.9-21.9-48.8-48.9c0-10.2,3.2-20.1,9.1-28.4l0,0c15.7-22,46.2-27.1,68.2-11.4
		s27.1,46.2,11.4,68.2C269.2,207.9,254.3,215.5,238.5,215.5z M200.7,139.6c-14.9,20.9-10.1,50,10.8,64.9
		c20.9,14.9,50,10.1,64.9-10.8c14.9-20.9,10.1-50-10.8-64.9C244.7,113.8,215.7,118.7,200.7,139.6z"></path><rect class="st0" x="192" y="213.8" transform="matrix(0.5813 -0.8137 0.8137 0.5813 -93.9788 254.6185)" width="16.9" height="9.6"></rect><path class="st2" d="M113.5,342.1L113.5,342.1c3.8,2.7,9.1,1.8,11.8-2L204.1,228l-13.8-9.8l-78.8,112.1
		C108.8,334.1,109.7,339.3,113.5,342.1z"></path><path class="st0" d="M118.4,344.8c-5.3,0-9.6-4.3-9.6-9.7c0-2,0.6-4,1.8-5.6l78.8-112.1c0.2-0.3,0.5-0.4,0.8-0.5
		c0.3-0.1,0.6,0,0.9,0.2l13.8,9.8c0.5,0.4,0.7,1.1,0.3,1.6l-78.8,112.1c-1.5,2.1-3.7,3.5-6.3,3.9C119.5,344.8,119,344.8,118.4,344.8
		z M190.6,219.8l-78.1,111.1c-2.3,3.3-1.6,7.8,1.7,10.2c0,0,0,0,0,0l0,0c3.3,2.3,7.8,1.6,10.2-1.7c0,0,0,0,0,0l78.1-111.1
		L190.6,219.8z"></path></g><g id="bug"><linearGradient id="SVGID_00000010993254709996321140000001175209744324723375_" gradientUnits="userSpaceOnUse" x1="-728.44" y1="381.08" x2="-728.44" y2="333.02" gradientTransform="matrix(-1 0 0 -1 -488.49 502)"><stop offset="0" style="stop-color: rgb(243, 131, 116);"></stop><stop offset="1" style="stop-color: rgb(198, 66, 52);"></stop></linearGradient><ellipse cx="239.9" cy="147.3" rx="6.6" ry="4.8" style="fill: url(&quot;#SVGID_00000010993254709996321140000001175209744324723375_&quot;);"></ellipse><linearGradient id="SVGID_00000077297194571244228840000006921400107834530947_" gradientUnits="userSpaceOnUse" x1="-728.715" y1="381.08" x2="-728.715" y2="333.02" gradientTransform="matrix(-1 0 0 -1 -488.49 502)"><stop offset="0" style="stop-color: rgb(243, 131, 116);"></stop><stop offset="1" style="stop-color: rgb(198, 66, 52);"></stop></linearGradient><path d="M240.1,152.6v-0.2l0.1,0.1l0.1-0.1v0.2
		c1.5,1.7,10.8,13,10.4,32.3c-0.2,9.9-9.4,8.7-10.5,8.5c-1.1,0.2-10.4,1.4-10.5-8.5C229.4,165.6,238.6,154.3,240.1,152.6z" style="fill: url(&quot;#SVGID_00000077297194571244228840000006921400107834530947_&quot;);"></path><linearGradient id="SVGID_00000151538152960106104020000000646611526584868527_" gradientUnits="userSpaceOnUse" x1="-728.44" y1="381.08" x2="-728.44" y2="333.02" gradientTransform="matrix(-1 0 0 -1 -488.49 502)"><stop offset="0" style="stop-color: rgb(243, 131, 116);"></stop><stop offset="1" style="stop-color: rgb(198, 66, 52);"></stop></linearGradient><ellipse cx="239.9" cy="156" rx="8.8" ry="6.5" style="fill: url(&quot;#SVGID_00000151538152960106104020000000646611526584868527_&quot;);"></ellipse><path class="st2" d="M249,157.5l23.3,18.4c0,0,9.5,7.1-6.9,13.4c-8.4,3.2-14.5-4.6-17.3-5.6c-4.9-1.8-7.3-9.6-8.2-21.2
		C240,162.4,246.6,162.3,249,157.5z"></path><path class="st0" d="M261.4,191.2c-4.8,0-8.7-2.9-11.2-4.8c-0.8-0.6-1.6-1.2-2.5-1.6c-5.1-1.9-8-9.1-8.9-22.2
		c0-0.3,0.1-0.6,0.3-0.9c0.2-0.2,0.5-0.4,0.8-0.4c0.1,0,6-0.2,8.1-4.3c0.2-0.3,0.5-0.6,0.8-0.6c0.4-0.1,0.7,0,1,0.2L273,175
		c0.1,0.1,3.7,2.8,3.1,6.7c-0.5,3.4-4,6.3-10.3,8.8C264.4,191,262.9,191.2,261.4,191.2z M241.2,163.5c0.9,11.2,3.4,17.6,7.3,19
		c1.1,0.5,2.1,1.2,3.1,2c3.3,2.5,7.7,5.8,13.4,3.7c5.4-2.1,8.5-4.4,8.8-6.9s-2.2-4.4-2.2-4.5l-22.2-17.6
		C247.1,162.3,243.2,163.2,241.2,163.5z"></path><path class="st0" d="M250.8,186c-0.2,0-0.4,0-0.6-0.1c-0.6-0.3-0.8-1-0.5-1.6c0-0.1,2.5-4.7,2-9.4s-6.6-12.7-6.6-12.8
		c-0.4-0.5-0.3-1.3,0.2-1.7c0,0,0,0,0,0c0.5-0.4,1.3-0.3,1.7,0.2c0,0,0,0,0,0c0.3,0.4,6.6,8.6,7.1,14s-2.2,10.5-2.3,10.7
		C251.6,185.8,251.2,186,250.8,186z"></path><path class="st0" d="M259.2,178.2c-2.5-0.1-5-0.9-7-2.4c-0.6-0.4-0.7-1.1-0.3-1.7s1.1-0.7,1.7-0.3c7.6,5.3,13.2-1.7,13.5-2
		c0.4-0.5,1.1-0.6,1.7-0.2c0.5,0.4,0.6,1.1,0.2,1.7l0,0C268.9,173.4,265,178.2,259.2,178.2z"></path><path class="st0" d="M243,144.1h-0.1c-0.7-0.1-1.1-0.6-1.1-1.3c0,0,0,0,0,0c0.3-3.2,2.5-9.3,8.6-9.3c0.7,0.1,1.1,0.6,1.1,1.3
		c-0.1,0.6-0.5,1-1.1,1.1c-5.5,0-6.2,6.9-6.2,7.1C244.1,143.6,243.6,144.1,243,144.1z"></path><path class="st0" d="M249.4,155.5c-0.7,0.1-1.2-0.4-1.3-1.1c-0.1-0.7,0.4-1.2,1.1-1.3c0.1,0,0.1,0,0.2,0l0,0c0.1,0,4.9-0.1,7.6-4.1
		c0.4-0.6,1.1-0.7,1.7-0.3s0.7,1.1,0.3,1.7l0,0C256.8,153.5,253.2,155.4,249.4,155.5z"></path><path class="st2" d="M230.9,157.5l-23.3,18.4c0,0-9.5,7.1,6.9,13.4c8.4,3.2,14.4-4.6,17.3-5.6c4.9-1.8,7.3-9.6,8.2-21.2
		C240,162.4,233.3,162.3,230.9,157.5z"></path><path class="st0" d="M218.5,191.2c-1.5,0-3-0.3-4.4-0.8c-6.4-2.4-9.8-5.4-10.3-8.8c-0.6-3.9,3-6.6,3.1-6.7l23.2-18.4
		c0.3-0.2,0.6-0.3,1-0.2c0.3,0.1,0.6,0.3,0.8,0.6c2.1,4.1,8,4.3,8.1,4.3c0.3,0,0.6,0.2,0.9,0.4c0.2,0.2,0.3,0.6,0.3,0.9
		c-1,13.1-3.9,20.4-8.9,22.2c-0.9,0.5-1.7,1-2.5,1.6C227.2,188.3,223.3,191.2,218.5,191.2z M230.6,159.2l-22.2,17.6
		c0,0-2.6,2-2.2,4.5s3.4,4.8,8.8,6.9c5.7,2.1,10.1-1.2,13.4-3.7c0.9-0.8,2-1.5,3.1-2c3.9-1.4,6.4-7.8,7.3-19
		C236.7,163.2,232.8,162.3,230.6,159.2L230.6,159.2z"></path><path class="st0" d="M229.1,186c-0.4,0-0.8-0.3-1-0.6c-1.7-3.3-2.5-7-2.3-10.7c0.6-5.4,6.8-13.6,7.1-14c0.4-0.5,1.1-0.6,1.7-0.2
		s0.6,1.1,0.2,1.7l0,0c-0.1,0.1-6.1,8.1-6.6,12.8s2,9.3,2,9.4c0.3,0.6,0.1,1.3-0.5,1.6C229.6,185.9,229.4,186,229.1,186z"></path><path class="st0" d="M220.7,178.2c-5.8,0-9.6-4.8-9.7-4.9c-0.4-0.5-0.4-1.3,0.1-1.7s1.3-0.4,1.7,0.1c0,0,0,0,0.1,0.1l0,0
		c0.2,0.3,5.9,7.3,13.5,2c0.5-0.4,1.3-0.2,1.7,0.3c0.4,0.5,0.2,1.3-0.3,1.6C225.6,177.3,223.2,178.1,220.7,178.2z"></path><path class="st0" d="M236.9,144.1c-0.6,0-1.1-0.5-1.2-1.1l0,0c0-0.3-0.8-7.1-6.2-7.1c-0.7,0.1-1.2-0.4-1.3-1.1
		c-0.1-0.7,0.4-1.2,1.1-1.3c0.1,0,0.1,0,0.2,0c6.1,0,8.3,6.1,8.6,9.3c0.1,0.6-0.4,1.2-1,1.3c0,0,0,0,0,0H236.9z"></path><path class="st0" d="M230.5,155.5c-3.8-0.1-7.3-2-9.5-5.1c-0.4-0.6-0.2-1.3,0.3-1.7s1.3-0.2,1.7,0.3l0,0c2.6,4,7.5,4.1,7.6,4.1
		c0.7-0.1,1.2,0.4,1.3,1.1c0.1,0.7-0.4,1.2-1.1,1.3C230.7,155.5,230.6,155.5,230.5,155.5L230.5,155.5z"></path></g><g id="character"><polygon class="st0" points="347.5,437.8 361.8,437.8 348.7,406.1 	"></polygon><linearGradient id="SVGID_00000142868983863945118330000004142092808504882844_" gradientUnits="userSpaceOnUse" x1="244.3009" y1="141.4411" x2="343.2309" y2="60.8011" gradientTransform="matrix(1 0 0 -1 0 502)"><stop offset="0" style="stop-color: rgb(243, 131, 116);"></stop><stop offset="1" style="stop-color: rgb(198, 66, 52);"></stop></linearGradient><path d="M347.5,437.8h-84.1l5.6-30.5
		c3.8-30.4,22.3-42.1,42.3-39.7l0,0c23.5,0,50.9,18.1,43.7,50.6L347.5,437.8z" style="fill: url(&quot;#SVGID_00000142868983863945118330000004142092808504882844_&quot;);"></path><path class="st9" d="M411.9,299.9c0,0,4.2-13,8.9-16.7s10.6-8.9,15.4-11.7s10.3,2.1,6.9,7.7c0,0-3.4,5.2-3.4,6.7s8.2-2.5,11.4-4.7
		s4-13.6,6.3-16.9s7.3-4,8.9-1.4c0,0,4.7-4.3,10-1.9c3,1.1,4.9,4.2,4.5,7.4l-3,16l8.2-2.6c0,0,5,0.1,3.7,6.3c0,0-5.1,5.4-6.6,7.3
		s-5.5,14-11.3,20.4s-26.3,22.8-26.3,22.8L411.9,299.9z"></path><path class="st10" d="M475.4,307.3c-0.1,0-0.2,0-0.4-0.1c-0.6-0.2-1-0.9-0.8-1.5c0,0,0,0,0,0c2.7-8.4,2.7-20,2.7-20.1
		c0-0.7,0.5-1.2,1.2-1.2c0,0,0,0,0,0l0,0c0.7,0,1.2,0.5,1.2,1.2l0,0c0,0.5,0,12.1-2.8,20.8C476.4,307,475.9,307.3,475.4,307.3z"></path><path class="st10" d="M458.9,298.6c-0.3,0-0.5-0.1-0.8-0.3c-0.5-0.4-0.6-1.2-0.1-1.7c0,0,0,0,0,0c0-0.1,5.6-6.6,7-11.9
		s0.1-21.5,0.1-21.7c0-0.7,0.5-1.2,1.1-1.3c0.6,0,1.2,0.4,1.3,1.1c0.1,0.7,1.5,16.8-0.1,22.5s-7.3,12.5-7.5,12.8
		C459.6,298.5,459.2,298.6,458.9,298.6z"></path><path class="st10" d="M434.1,296.2c-0.7,0-1.2-0.5-1.2-1.2l0,0c0-5.6,5.8-9.8,6-10c0.5-0.4,1.3-0.3,1.7,0.2s0.3,1.3-0.2,1.7
		c0,0-0.1,0.1-0.1,0.1c-0.1,0-5,3.7-5,8.1C435.3,295.7,434.8,296.2,434.1,296.2C434.1,296.2,434.1,296.2,434.1,296.2z"></path><linearGradient id="SVGID_00000001636336331757477630000002689627678194863293_" gradientUnits="userSpaceOnUse" x1="261.0109" y1="284.1709" x2="379.6609" y2="158.6508" gradientTransform="matrix(1 0 0 -1 0 502)"><stop offset="0" style="stop-color: rgb(248, 130, 189);"></stop><stop offset="0.78" style="stop-color: rgb(228, 75, 147);"></stop><stop offset="0.91" style="stop-color: rgb(251, 18, 67);"></stop></linearGradient><path d="M316.3,281.1h9.4c0,0,14.7-2.9,30.5,21.5
		l22.5,29.1l33.5-32.1l33.7,38.8l-37.5,37.9c0,0-32.8,36.5-59.8,8.9l-31.1-29.3L316.3,281.1z" style="fill: url(&quot;#SVGID_00000001636336331757477630000002689627678194863293_&quot;);"></path><linearGradient id="SVGID_00000061470963007197671950000013630946191600262329_" gradientUnits="userSpaceOnUse" x1="239.9651" y1="264.2754" x2="358.6151" y2="138.7554" gradientTransform="matrix(1 0 0 -1 0 502)"><stop offset="0" style="stop-color: rgb(248, 130, 189);"></stop><stop offset="0.78" style="stop-color: rgb(228, 75, 147);"></stop><stop offset="0.91" style="stop-color: rgb(251, 18, 67);"></stop></linearGradient><path d="M328.5,364H306c-11.6,0-21.7-8-24.3-19.3
		l-10.1-43.6c0,0-6-18.8,19.7-20.2h52.3c0,0,9.2,1.6,9,27.5l0.9,30c0.4,13.8-10.5,25.2-24.2,25.6C329,364,328.8,364,328.5,364z" style="fill: url(&quot;#SVGID_00000061470963007197671950000013630946191600262329_&quot;);"></path><linearGradient id="SVGID_00000148642719973619922920000012422708931276743356_" gradientUnits="userSpaceOnUse" x1="196.8746" y1="223.5449" x2="315.5246" y2="98.0249" gradientTransform="matrix(1 0 0 -1 0 502)"><stop offset="0" style="stop-color: rgb(248, 130, 189);"></stop><stop offset="0.78" style="stop-color: rgb(228, 75, 147);"></stop><stop offset="0.91" style="stop-color: rgb(251, 18, 67);"></stop></linearGradient><path d="M292.5,281.3h-9.4c0,0-14.7-0.6-30.6,23.7
		L230,334.1l-33.4-32.1l-33.7,38.8l37.4,37.9c0,0,32.8,36.5,59.8,8.9l31.1-29.3L292.5,281.3z" style="fill: url(&quot;#SVGID_00000148642719973619922920000012422708931276743356_&quot;);"></path><path class="st0" d="M291.3,359.5c-0.7,0-1.2-0.5-1.2-1.2c0-0.3,0.1-0.6,0.3-0.8l19.9-20.9c2.9-3.2,8.7-15.6,5.9-27.3
		c-1.9-8-7.4-13.8-16.4-17.3c-0.6-0.3-0.9-1-0.6-1.6c0.2-0.6,0.9-0.8,1.5-0.7c9.8,3.8,15.8,10.1,17.9,18.9
		c2.8,11.8-2.7,25.3-6.5,29.5l-19.9,21C291.9,359.4,291.6,359.6,291.3,359.5z"></path><path class="st0" d="M330.4,365.1h-4.5c-0.7-0.1-1.1-0.6-1.1-1.3c0.1-0.6,0.5-1,1.1-1.1h4.5c9.7,0,17.6-7.9,17.6-17.6
		c0-0.6,0-1.1-0.1-1.7l-2.8-28.1c-0.1-0.6,0.3-1.3,1-1.4c0.6-0.1,1.3,0.3,1.4,1c0,0.1,0,0.1,0,0.2l2.8,28.1c1.1,11-7,20.8-18,21.8
		C331.7,365.1,331,365.1,330.4,365.1L330.4,365.1z"></path><path class="st0" d="M171.8,351.2c-0.3,0-0.6-0.1-0.8-0.3c-0.5-0.4-0.6-1.2-0.1-1.7c0,0,0,0,0,0l33.2-38.1c0.5-0.5,1.2-0.5,1.7,0
		c0.4,0.4,0.5,1.1,0.1,1.6l-33.2,38.1C172.5,351.1,172.2,351.2,171.8,351.2z"></path><path class="st0" d="M436.2,348.4c-0.3,0-0.7-0.1-0.9-0.4l-30.7-35c-0.4-0.5-0.4-1.2,0.1-1.7c0,0,0,0,0,0c0.5-0.4,1.2-0.4,1.7,0.1
		c0,0,0,0,0,0l30.7,35.1c0.5,0.5,0.4,1.2,0,1.7C436.9,348.4,436.6,348.5,436.2,348.4L436.2,348.4z"></path><path class="st3" d="M398.1,385.8c-0.3,0-0.6-0.1-0.8-0.4c-0.8-0.8-20.1-20.2-16.9-32.1c1.1-3.9,4.4-6.6,9.8-7.9
		c14.4-3.6,27.9-1.5,40,6c0.4,0.2,0.8,0.5,1,0.6c0.6,0.2,0.9,0.9,0.7,1.5c-0.2,0.5-0.7,0.9-1.3,0.8c-0.6-0.2-1.1-0.5-1.6-0.9
		c-4.3-2.7-17.4-10.9-38.2-5.7c-4.6,1.1-7.2,3.2-8.1,6.2c-2.9,10.6,16,29.6,16.2,29.8c0.4,0.5,0.4,1.2-0.1,1.7
		C398.7,385.6,398.4,385.7,398.1,385.8L398.1,385.8z"></path><circle class="st3" cx="390.8" cy="346.8" r="7.4"></circle><path class="st0" d="M373,344.6c-0.6,0-1.1-0.5-1.2-1.1l-0.8-10.8c-0.1-0.6,0.4-1.2,1.1-1.3c0,0,0,0,0,0c0.6-0.1,1.2,0.4,1.3,1.1
		c0,0,0,0,0,0l0.8,10.8C374.2,343.9,373.7,344.5,373,344.6L373,344.6z"></path><path class="st3" d="M198.6,375.5c-0.2,0-0.4-0.1-0.6-0.2c-0.6-0.3-0.7-1-0.4-1.6c0.1-0.1,0.2-0.5,0.4-1
		c10.4-24.9,26.7-37.6,45.9-35.7c11.4,1.1,19.5,6.8,22.2,15.7c0.1,0.4,0.2,0.7,0.3,1.1l0.5-0.1c8.7-1.3,15.7,1.9,19.2,8.7
		c0.3,0.6,0.1,1.3-0.5,1.6s-1.3,0.1-1.6-0.5c-4.2-8.1-12.3-8.1-16.8-7.5l-0.4,0.1c0.7,5.8-1,11.7-4.5,14.6c-2.5,2.1-6,2.3-8.7,0.6
		c-3.7-2-3.8-4.7-3.6-6.2c0.8-4.4,6.9-9,14.1-10.8c-0.1-0.3-0.2-0.6-0.2-0.9c-1.4-4.7-5.9-12.7-20.1-14.1
		c-18.1-1.7-33.5,10.4-43.5,34.3c-0.2,0.4-0.3,0.8-0.6,1.2C199.4,375.2,199.1,375.5,198.6,375.5z M264.5,356.7
		c-6.5,1.7-11.6,5.8-12.2,8.9c-0.3,1.5,0.5,2.7,2.4,3.7c1.9,1.2,4.4,1.1,6.1-0.4C263.3,366.8,265.1,362,264.5,356.7L264.5,356.7z"></path><path class="st0" d="M243.4,349c-0.3,0-0.6-0.1-0.9-0.4L229.2,335c-0.4-0.5-0.4-1.2,0.1-1.7c0.5-0.4,1.1-0.4,1.6,0l13.4,13.7
		c0.5,0.5,0.5,1.2,0,1.7C244.1,348.9,243.8,349,243.4,349z"></path><path class="st2" d="M298.7,439h-0.2c-0.7-0.1-1.1-0.7-1-1.4c0,0,0,0,0,0l12.5-70.2c0.2-0.6,0.8-1,1.4-0.9c0.6,0.1,1,0.7,0.9,1.3
		l-12.5,70.2C299.8,438.6,299.3,439,298.7,439z"></path><path class="st9" d="M337.6,248.7c-2.7,5.7-7.6,10-13.6,11.9l0,0c-12,3.8-24.8-2.7-28.6-14.7c-3.8-12,2.7-24.8,14.7-28.6
		c12-3.8,24.8,2.7,28.6,14.7C340.5,237.5,340.1,243.5,337.6,248.7L337.6,248.7z"></path><ellipse class="st9" transform="matrix(0.173 -0.9849 0.9849 0.173 11.1703 482.5872)" cx="292.9" cy="234.6" rx="3.2" ry="7.1"></ellipse><linearGradient id="SVGID_00000014610791930777021530000014317574547417296554_" gradientUnits="userSpaceOnUse" x1="305.5103" y1="343.9946" x2="324.9903" y2="257.9446" gradientTransform="matrix(1 0 0 -1 0 502)"><stop offset="0" style="stop-color: rgb(243, 131, 116);"></stop><stop offset="1" style="stop-color: rgb(198, 66, 52);"></stop></linearGradient><path d="M337.6,248.7c-2.7,5.7-7.6,10-13.6,11.9
		l0,0c-3.3-4.1,4-10,4-10c5.6,2.1,11-9,5.5-12.2s-9.1,3.2-9.1,3.2c-19.8-2.9-21-20.6-21.1-20.8c10-7.6,24.3-5.7,31.9,4.3
		C340.3,232,341.3,241,337.6,248.7L337.6,248.7z" style="fill: url(&quot;#SVGID_00000014610791930777021530000014317574547417296554_&quot;);"></path><path class="st10" d="M326.7,248c1.1,0.5,2.3,0.5,3.4,0c1-0.5,1.7-1.3,2-2.4c0.6-2.1-0.6-4.2-2.7-4.8c-0.1,0-0.2-0.1-0.3-0.1
		l0.7,1.7c0.1-0.1,0.1-0.2,0.2-0.3c0.1-0.2-0.1,0.1,0.1-0.1c0.1-0.1,0.3-0.2,0.1-0.1l0.3-0.2c0.2-0.1-0.2,0.1,0,0
		c0.1-0.1,0.2-0.1,0.4-0.1c-0.2,0-0.2,0,0,0h0.2h0.2c-0.2,0,0.1,0.1,0.2,0.1l0.1,0.1c-0.1-0.1-0.1-0.1,0,0l0.2,0.2
		c0.1,0.1,0.1,0.1,0,0l0.1,0.1c0.1,0.1,0.1,0.2,0,0c0,0.1,0.1,0.2,0.1,0.3c0,0.1,0,0.1,0-0.1c0,0.1,0,0.1,0,0.2
		c0.1,0.7,0.6,1.1,1.3,1.1c0.6-0.1,1-0.5,1.1-1.1c0-1.9-1.5-3.4-3.4-3.4c-1.3,0-2.5,0.7-3.1,1.9c-0.2,0.3-0.2,0.7-0.1,1.1
		c0.1,0.3,0.4,0.6,0.8,0.7l0.3,0.1h0.1c-0.1-0.1,0.1,0,0.1,0l0.2,0.1c0.1,0.1,0.1,0.1,0,0l0.2,0.2l0.1,0.2c0.1,0.1-0.1-0.2,0,0
		c0,0.1,0.1,0.1,0.1,0.2c0.1,0.1,0.1,0.2,0,0c0.1,0.2,0.1,0.3,0.1,0.5c0,0.1,0-0.2,0,0v0.2c0,0.1,0,0.2,0,0l-0.1,0.3l-0.1,0.2
		c0,0.1,0.1-0.2,0,0c-0.1,0.1-0.2,0.3-0.2,0.4c0.2-0.2,0,0-0.1,0.1s-0.2,0.2-0.1,0.1s-0.1,0-0.1,0.1c-0.1,0-0.1,0.1-0.2,0.1
		c-0.1,0.1,0.2-0.1,0,0l-0.3,0.1c0,0-0.3,0.1-0.1,0s-0.1,0-0.1,0h-0.3c-0.1,0-0.1,0,0,0c0,0.1-0.1,0.2-0.2,0.2c-0.1,0-0.3-0.1-0.1,0
		c-0.6-0.3-1.3-0.1-1.6,0.4C326,247,326.2,247.7,326.7,248L326.7,248z"></path><ellipse class="st2" transform="matrix(0.6092 -0.793 0.793 0.6092 -66.5441 331.7742)" cx="303.3" cy="233.4" rx="3.3" ry="2.8"></ellipse><ellipse class="st15" transform="matrix(0.6092 -0.793 0.793 0.6092 -66.5652 331.1737)" cx="302.7" cy="233.1" rx="2.2" ry="1.9"></ellipse><path class="st10" d="M304.7,251.7c-0.7,0-1.2-0.5-1.2-1.2c0-0.2,0.1-0.5,0.2-0.7c0.1-0.1,2.4-3.6,5.9-4c1.9-0.2,3.7,0.5,5,1.8
		c0.5,0.5,0.5,1.2,0,1.7c-0.4,0.4-1.1,0.5-1.6,0.1c-0.8-0.8-1.9-1.3-3.1-1.2c-2.3,0.3-4.1,3-4.2,3
		C305.4,251.6,305.1,251.7,304.7,251.7z"></path><linearGradient id="SVGID_00000160908877204271752550000007422332971709660566_" gradientUnits="userSpaceOnUse" x1="345.7203" y1="353.1001" x2="365.2003" y2="267.0501" gradientTransform="matrix(1 0 0 -1 0 502)"><stop offset="0" style="stop-color: rgb(243, 131, 116);"></stop><stop offset="1" style="stop-color: rgb(198, 66, 52);"></stop></linearGradient><circle cx="374.6" cy="276.6" r="48" style="fill: url(&quot;#SVGID_00000160908877204271752550000007422332971709660566_&quot;);"></circle><linearGradient id="SVGID_00000082352918679108136460000002859553078581242786_" gradientUnits="userSpaceOnUse" x1="389.869" y1="363.0975" x2="409.359" y2="277.0475" gradientTransform="matrix(1 0 0 -1 0 502)"><stop offset="0" style="stop-color: rgb(243, 131, 116);"></stop><stop offset="1" style="stop-color: rgb(198, 66, 52);"></stop></linearGradient><circle cx="430.5" cy="318.4" r="28.4" style="fill: url(&quot;#SVGID_00000082352918679108136460000002859553078581242786_&quot;);"></circle><path class="st0" d="M331.4,258.6c-0.7,0-1.2-0.5-1.2-1.2c0-0.5,0.3-0.9,0.7-1.1c6.7-2.9,7.3-11.7,7.3-11.8c0-0.6,0.6-1.1,1.2-1.1
		c0,0,0,0,0,0c0.7,0,1.1,0.6,1.1,1.3c0,0.4-0.8,10.4-8.8,13.8C331.8,258.6,331.6,258.6,331.4,258.6z"></path><path class="st0" d="M402.3,318.8c-0.7,0-1.2-0.5-1.2-1.2c0-0.5,0.3-0.9,0.7-1.1c11.6-5.6,15.7-23.4,15.7-23.6
		c0.2-0.6,0.9-1,1.5-0.8c0.5,0.2,0.9,0.7,0.8,1.3c-0.2,0.8-4.4,19.1-17,25.2C402.7,318.7,402.5,318.8,402.3,318.8z"></path><path class="st9" d="M201.7,280.1c0,0,6.9-31.5-3.9-36.4c-7.7-3.5-13,13.4-13,13.4s-4.6-14-12.1-20.7c-11.1-10-15.6,9.5-15.6,9.5
		s-11.5,1.4-12.1,12.3c0,0-10.7,2.3-10.7,11.9c0,0-6.8,17.1-4.6,26.6c2.2,9.5,12.3,7.9,12.3,7.9s-0.9,10.5,2.8,15.9
		c4.9,7.3,21.1,13.2,29.2,9.1C178.2,327.5,198.4,313,201.7,280.1z"></path><path class="st10" d="M166.6,264.5c-0.4,0-0.8-0.2-1-0.6l-9.4-15.1c-0.3-0.6,0-1.3,0.6-1.6c0.5-0.2,1.1-0.1,1.4,0.3l9.4,15.1
		c0.3,0.5,0.2,1.3-0.4,1.6c0,0,0,0,0,0C167,264.4,166.8,264.5,166.6,264.5z"></path><path class="st10" d="M157.1,280c-0.4,0-0.8-0.2-1-0.5L144.1,261c-0.4-0.6-0.2-1.3,0.4-1.6s1.3-0.2,1.6,0.4l0,0l12.1,18.4
		c0.4,0.5,0.2,1.3-0.3,1.6c0,0,0,0,0,0C157.6,279.9,157.4,280,157.1,280z"></path><path class="st10" d="M140.4,297.8c-0.4,0-0.8-0.2-1-0.5c-0.3-0.4-7.1-10.7-7.7-18.9c-0.1-0.7,0.4-1.2,1.1-1.3
		c0.7-0.1,1.2,0.4,1.3,1.1c0.6,7.6,7.2,17.7,7.3,17.8c0.4,0.5,0.2,1.3-0.3,1.6C140.9,297.7,140.7,297.8,140.4,297.8L140.4,297.8z"></path><path class="st10" d="M135.2,300.5c-0.1,0-0.2,0-0.3,0c-0.6-0.2-1-0.8-0.9-1.4c0,0,0,0,0,0l2.1-8.2c0.2-0.6,0.8-1,1.4-0.9
		c0,0,0,0,0,0c0.6,0.2,1,0.8,0.9,1.5l-2.1,8.2C136.2,300.1,135.8,300.5,135.2,300.5z"></path><path class="st10" d="M195.3,276c-0.5,0-0.9-0.3-1.1-0.8c-3-8.2-10.9-18.3-11-18.4c-0.4-0.5-0.3-1.3,0.3-1.7
		c0.5-0.4,1.2-0.3,1.6,0.2c0.3,0.4,8.2,10.5,11.3,19.1c0.2,0.6-0.1,1.3-0.7,1.5C195.6,276,195.4,276,195.3,276z"></path></g><g id="line"><path class="st0" d="M386.6,439H216.3c-0.7-0.1-1.1-0.6-1.1-1.3c0.1-0.6,0.5-1,1.1-1.1h170.3c0.7-0.1,1.2,0.4,1.3,1.1
		c0.1,0.7-0.4,1.2-1.1,1.3C386.7,439,386.7,439,386.6,439z"></path></g><g id="setting"><linearGradient id="SVGID_00000126321620808092117510000002152721959821184142_" gradientUnits="userSpaceOnUse" x1="10" y1="339.285" x2="55.14" y2="339.285" gradientTransform="matrix(1 0 0 -1 0 502)"><stop offset="0" style="stop-color: rgb(243, 131, 116);"></stop><stop offset="1" style="stop-color: rgb(198, 66, 52);"></stop></linearGradient><path d="M51.3,158.8c-0.5-2.3-1.4-4.6-2.7-6.6
		l2.7-2.7l-5.5-5.5l-2.7,2.7c-2-1.3-4.2-2.2-6.6-2.7v-3.9h-7.8v3.9c-2.3,0.5-4.6,1.4-6.6,2.7l-2.7-2.7l-5.5,5.5l2.7,2.7
		c-1.3,2-2.3,4.2-2.7,6.6H10v7.8h3.8c0.5,2.4,1.4,4.6,2.7,6.6l-2.7,2.7l5.5,5.5l2.7-2.7c2,1.3,4.2,2.2,6.6,2.7v3.9h7.8v-3.9
		c2.4-0.5,4.6-1.4,6.6-2.7l2.7,2.7l5.5-5.5l-2.7-2.7c1.3-2,2.2-4.2,2.7-6.6h3.8v-7.8L51.3,158.8z M32.6,170.8
		c-4.5,0-8.1-3.6-8.1-8.1c0-4.5,3.6-8.1,8.1-8.1s8.1,3.6,8.1,8.1C40.7,167.2,37,170.8,32.6,170.8L32.6,170.8z" style="fill: url(&quot;#SVGID_00000126321620808092117510000002152721959821184142_&quot;);"></path><path class="st3" d="M85,120.9c-0.5-2.4-1.4-4.6-2.7-6.6l2.7-2.7l-5.5-5.5l-2.7,2.7c-2-1.3-4.2-2.2-6.6-2.7v-3.8h-7.8v3.8
		c-2.4,0.5-4.6,1.4-6.6,2.7l-2.7-2.7l-5.5,5.5l2.7,2.7c-1.3,2-2.2,4.2-2.7,6.6h-3.8v7.8h3.8c0.5,2.3,1.4,4.6,2.7,6.6l-2.7,2.8
		l5.5,5.5l2.7-2.7c2,1.3,4.2,2.2,6.6,2.7v3.9h7.8v-3.9c2.3-0.5,4.6-1.4,6.6-2.7l2.7,2.7L85,138l-2.7-2.7c1.3-2,2.2-4.3,2.7-6.6h3.8
		v-7.8L85,120.9z M66.3,132.9c-4.5,0-8.1-3.6-8.1-8.1c0-4.5,3.6-8.1,8.1-8.1c4.5,0,8.1,3.6,8.1,8.1
		C74.4,129.3,70.7,132.9,66.3,132.9C66.3,132.9,66.3,132.9,66.3,132.9L66.3,132.9z"></path><path class="st0" d="M116.8,251H98.4c-0.7,0-1.2-0.5-1.2-1.2v-8.1c-5-1.2-9.8-3.1-14.2-5.9l-5.8,5.8c-0.2,0.2-0.5,0.3-0.8,0.3l0,0
		c-0.3,0-0.6-0.1-0.8-0.3l-13-13c-0.5-0.5-0.5-1.2,0-1.7c0,0,0,0,0,0l5.8-5.8c-2.8-4.4-4.8-9.2-5.9-14.2h-8.1
		c-0.7,0-1.2-0.5-1.2-1.2c0,0,0,0,0,0v-18.4c0-0.7,0.5-1.2,1.2-1.2l0,0h8.1c1.2-5,3.1-9.8,5.9-14.2l-5.8-5.8c-0.5-0.5-0.5-1.2,0-1.7
		c0,0,0,0,0,0l13-13c0.5-0.4,1.2-0.4,1.7,0l5.8,5.7c4.4-2.8,9.2-4.8,14.2-5.9v-8.1c0-0.7,0.5-1.2,1.1-1.2c0,0,0,0,0,0h18.4
		c0.7,0,1.2,0.5,1.2,1.2c0,0,0,0,0,0v8.1c5,1.2,9.8,3.1,14.2,5.9l5.8-5.8c0.5-0.5,1.2-0.5,1.7,0l13,13c0.5,0.5,0.5,1.2,0,1.7
		l-5.8,5.8c2.7,4.4,4.7,9.2,5.9,14.2h8.1c0.7,0,1.2,0.5,1.2,1.2l0,0v18.4c0,0.7-0.5,1.2-1.2,1.2c0,0,0,0,0,0h-8.1
		c-1.1,5-3.1,9.8-5.9,14.2l5.8,5.8c0.5,0.5,0.5,1.2,0,1.7l-13,13c-0.5,0.5-1.2,0.5-1.7,0l-5.8-5.8c-4.4,2.8-9.1,4.8-14.2,6v8.1
		C118,250.5,117.5,251,116.8,251C116.8,251,116.8,251,116.8,251z M99.6,248.6h16v-7.9c0-0.6,0.4-1.1,0.9-1.2
		c5.4-1.1,10.5-3.2,15.1-6.3c0.5-0.3,1.1-0.2,1.5,0.1l5.6,5.6l11.3-11.3l-5.6-5.6c-0.4-0.4-0.5-1-0.1-1.5c3-4.6,5.2-9.7,6.3-15.1
		c0.1-0.6,0.6-0.9,1.2-0.9h7.9v-16h-7.9c-0.6,0-1-0.4-1.2-0.9c-1.1-5.4-3.3-10.5-6.3-15.1c-0.3-0.5-0.2-1.1,0.1-1.5l5.6-5.6
		L138.8,154l-5.6,5.6c-0.4,0.4-1,0.5-1.5,0.1c-4.6-3-9.7-5.2-15.2-6.3c-0.6-0.1-0.9-0.6-0.9-1.2v-7.9h-16v7.9c0,0.6-0.4,1.1-1,1.2
		c-5.4,1.1-10.5,3.3-15.2,6.3c-0.5,0.3-1.1,0.2-1.5-0.1l-5.6-5.6l-11.3,11.3l5.6,5.6c0.4,0.4,0.5,1,0.2,1.5c-3,4.6-5.2,9.7-6.3,15.1
		c-0.1,0.6-0.6,0.9-1.2,0.9h-7.9v16h7.9c0.6,0,1,0.4,1.2,0.9c1.1,5.4,3.3,10.5,6.3,15.1c0.3,0.5,0.2,1.1-0.2,1.5l-5.6,5.6L76.4,239
		l5.6-5.6c0.4-0.4,1-0.5,1.5-0.1c4.6,3,9.8,5.2,15.2,6.3c0.6,0.1,0.9,0.6,0.9,1.2L99.6,248.6z M107.6,221.4
		c-13.7,0-24.8-11.1-24.8-24.9c0-13.7,11.1-24.9,24.9-24.8c13.7,0,24.8,11.1,24.8,24.9c0,0,0,0,0,0
		C132.4,210.2,121.3,221.3,107.6,221.4L107.6,221.4z M107.6,174c-12.4,0-22.5,10.1-22.5,22.5c0,12.4,10.1,22.5,22.5,22.5
		c12.4,0,22.5-10.1,22.5-22.5C130,184.1,120,174.1,107.6,174L107.6,174z"></path></g></svg>