<?xml version="1.0" encoding="utf-8"?>
<!-- Generator: Adobe Illustrator 27.5.0, SVG Export Plug-In . SVG Version: 6.00 Build 0)  -->
<svg version="1.1" id="Illustration" xmlns="http://www.w3.org/2000/svg" xmlns:xlink="http://www.w3.org/1999/xlink" x="0px"
	 y="0px" viewBox="0 0 1200 800" style="enable-background:new 0 0 1200 800;" xml:space="preserve">
<g>
	<linearGradient id="SVGID_1_" gradientUnits="userSpaceOnUse" x1="434.3523" y1="-60.0131" x2="779.7194" y2="918.8828">
		<stop  offset="0" style="stop-color:#B37CFF"/>
		<stop  offset="1" style="stop-color:#F895E7"/>
	</linearGradient>
	<path style="opacity:0.24;fill:url(#SVGID_1_);" d="M1142.453,184.479c-28.785-57.278-91.99-100.351-153.509-87.136
		c-36.835,7.913-73.446,34.458-108.764,21.132c-25.457-9.605-39.826-36.845-61.225-53.936c-32.936-26.306-79.686-26-119.825-14.214
		c-40.139,11.786-76.881,33.461-116.536,46.86c-67.582,22.836-143.011,20.357-209.027-6.87
		c-28.98-11.953-56.107-28.449-85.61-38.972c-29.503-10.524-62.964-14.61-91.442-1.449c-28.478,13.161-48.913,47.583-39.029,77.96
		c1.971,6.057,5.062,12.025,4.658,18.396c-0.648,10.217-10.275,17.7-20.014,19.973c-9.739,2.272-19.888,0.789-29.873,1.048
		c-44.807,1.165-84.849,43.065-85.061,89.01c-0.176,38.1,22.747,71.58,42.345,103.954c19.598,32.374,37.211,71.218,25.537,107.39
		c-6.923,21.449-23.162,38.229-33.802,58.015C33.693,576.934,48.437,644.84,86.952,688.107
		c38.515,43.267,96.196,64.438,153.124,69.478c56.927,5.04,114.02-4.422,170.426-13.773c56.406-9.352,113.543-18.654,170.443-13.296
		l-3.058-1.703c111.164,28.152,227.446,34.911,341.002,19.822c23.773-3.159,51.064-9.951,61.111-32.262
		c8.483-18.836,0.866-40.915,2.612-61.584c2.516-29.786,24.321-54.185,48.095-71.503c23.775-17.317,50.747-30.206,72.166-50.497
		c41.902-39.695,56.122-101.135,62.37-159.269C1172.126,309.476,1171.239,241.757,1142.453,184.479z"/>
	
		<linearGradient id="SVGID_00000111898429658617450780000010914036240355047555_" gradientUnits="userSpaceOnUse" x1="73.7809" y1="406.9733" x2="1141.0162" y2="406.9733">
		<stop  offset="0" style="stop-color:#B37CFF"/>
		<stop  offset="1" style="stop-color:#F895E7"/>
	</linearGradient>
	<path style="opacity:0.5;fill:url(#SVGID_00000111898429658617450780000010914036240355047555_);" d="M1078.433,203.836
		c-17.987-8.029-41.381-13.359-47.096-31.313c-3.1-9.739,0.44-20.112,1.063-30.261c1.853-30.203-24.044-57.673-54.758-66.564
		c-30.712-8.891-64.412-2.291-93.606,10.348c-29.193,12.639-55.105,30.974-82.34,47.027
		c-71.507,42.149-153.253,68.781-237.128,77.307c-44.519-0.772-81.543-35.265-117.67-61.687
		c-48.76-35.662-106.77-60.028-167.527-70.369c-44.197-7.522-92.105-7.144-131.228,13.625
		c-39.123,20.769-65.699,66.323-51.629,106.483c17.725,50.595,90.706,79.432,87.368,132.616
		c-1.477,23.555-18.752,43.574-37.66,59.061c-18.908,15.486-40.486,28.522-55.778,47.216
		c-15.292,18.694-23.016,45.645-10.202,65.923c14.781,23.393,52.683,32.657,56.378,59.653c3.169,23.147-21.882,40.761-29.023,63.11
		c-7.906,24.744,8.319,51.807,31.186,66.093c22.867,14.287,50.931,18.65,78.085,22.395c235.593,32.492,477.913,43.489,710.259-5.529
		c23.32-4.92,46.898-10.588,67.357-22.218c20.46-11.63,37.68-30.176,41.678-52.361c5.109-28.359-11.67-56.252-12.249-85.011
		c-0.893-44.321,35.304-80.198,63.689-115.564c28.204-35.14,51.041-76.089,53.262-120.085
		C1143.086,269.736,1120.703,222.704,1078.433,203.836z M568.086,210.363l5.54-0.295
		C571.766,210.228,569.92,210.321,568.086,210.363z"/>
	<g>
		
			<linearGradient id="SVGID_00000090258212343217205500000010962603643012430733_" gradientUnits="userSpaceOnUse" x1="2061.6599" y1="448.3897" x2="1759.8578" y2="979.0298" gradientTransform="matrix(-1 0 0 1 2222.4983 0)">
			<stop  offset="0" style="stop-color:#A737D5"/>
			<stop  offset="1" style="stop-color:#EF497A"/>
		</linearGradient>
		<path style="fill:url(#SVGID_00000090258212343217205500000010962603643012430733_);" d="M328.704,742.532
			c38.211-19.91,51.29-88.278,29.57-110.497c-14.676-15.013-35.723,0.778-56.027-14.785c-25.924-19.87-6.854-57.293-27.235-105.828
			c-17.345-41.304-58.95-80.388-83.262-72.368c-25.449,8.394-38.854,70.679-17.119,108.163
			c14.134,24.377,35.77,25.574,40.464,48.245c5.446,26.307-20.867,38.304-21.01,63.808
			C193.826,705.083,278.154,768.871,328.704,742.532z"/>
		
			<linearGradient id="SVGID_00000005246198878994971950000010858247885697413817_" gradientUnits="userSpaceOnUse" x1="1972.2854" y1="528.0723" x2="1924.0541" y2="762.0605" gradientTransform="matrix(-1 0 0 1 2222.4983 0)">
			<stop  offset="0" style="stop-color:#2B3582"/>
			<stop  offset="1" style="stop-color:#150E42"/>
		</linearGradient>
		<path style="fill:url(#SVGID_00000005246198878994971950000010858247885697413817_);" d="M308.084,760.041
			c0.228,0,0.459-0.05,0.678-0.156c0.774-0.375,1.096-1.306,0.721-2.08c-50.658-104.385-65.512-225.482-65.656-226.693
			c-0.102-0.854-0.877-1.464-1.729-1.361c-0.853,0.102-1.463,0.876-1.361,1.729c0.145,1.216,15.063,122.833,65.947,227.683
			C306.952,759.718,307.507,760.041,308.084,760.041z"/>
		<path style="fill:#F0F0F0;" d="M204.153,562.473c0.16,0,0.321-0.052,0.457-0.157c0.324-0.253,0.382-0.72,0.13-1.044
			c-15.99-20.524-33.712-51.36-27.332-81.704c3.799-18.072,14.493-27.498,14.601-27.591c0.311-0.269,0.345-0.738,0.076-1.049
			c-0.269-0.311-0.739-0.345-1.049-0.075c-0.455,0.393-11.182,9.85-15.083,28.409c-3.586,17.057-1.706,45.289,27.614,82.924
			C203.713,562.374,203.932,562.473,204.153,562.473z"/>
		<path style="fill:#F0F0F0;" d="M332.149,733.417c0.237,0,0.47-0.114,0.614-0.323c24.573-35.863,32.953-63.574,24.906-82.363
			c-7.154-16.704-25.219-19.813-25.4-19.843c-0.406-0.063-0.787,0.21-0.853,0.615c-0.066,0.404,0.209,0.787,0.614,0.853
			c0.174,0.028,17.458,3.024,24.279,18.978c7.82,18.29-0.515,45.514-24.773,80.918c-0.232,0.339-0.146,0.802,0.193,1.034
			C331.858,733.374,332.004,733.417,332.149,733.417z"/>
	</g>
	<g>
		
			<linearGradient id="SVGID_00000180329078296837287080000005052429609815057580_" gradientUnits="userSpaceOnUse" x1="111.4861" y1="418.783" x2="173.2761" y2="533.0225">
			<stop  offset="0" style="stop-color:#53D8FF"/>
			<stop  offset="1" style="stop-color:#3840F7"/>
		</linearGradient>
		<path style="fill:url(#SVGID_00000180329078296837287080000005052429609815057580_);" d="M165.373,426h-43.23
			c-5.363,0-10.319,2.861-13.001,7.506l-21.615,37.438c-2.682,4.645-2.682,10.367,0,15.012l21.615,37.438
			c2.682,4.645,7.638,7.506,13.001,7.506h43.23c5.363,0,10.319-2.861,13.001-7.506l21.615-37.438c2.682-4.645,2.682-10.367,0-15.012
			l-21.615-37.438C175.692,428.861,170.737,426,165.373,426z"/>
		
			<linearGradient id="SVGID_00000138531679011441741880000016912248638242810497_" gradientUnits="userSpaceOnUse" x1="167.0976" y1="529.2119" x2="138.358" y2="466.7033">
			<stop  offset="0" style="stop-color:#53D8FF"/>
			<stop  offset="1" style="stop-color:#3840F7"/>
		</linearGradient>
		<path style="opacity:0.49;fill:url(#SVGID_00000138531679011441741880000016912248638242810497_);" d="M122.144,523.714
			c-2.787,0-5.385-1.499-6.778-3.913l-21.615-37.438c-1.393-2.414-1.393-5.413,0-7.827l21.615-37.438
			c1.394-2.414,3.991-3.913,6.778-3.913h43.23c2.787,0,5.385,1.499,6.778,3.913l21.615,37.438c1.394,2.414,1.394,5.413,0,7.827
			l-21.615,37.438c-1.394,2.414-3.991,3.913-6.778,3.913H122.144z"/>
	</g>
	<g>
		
			<linearGradient id="SVGID_00000098924566400928741290000011806640211437823672_" gradientUnits="userSpaceOnUse" x1="207.4861" y1="477.783" x2="269.2761" y2="592.0225">
			<stop  offset="0" style="stop-color:#53D8FF"/>
			<stop  offset="1" style="stop-color:#3840F7"/>
		</linearGradient>
		<path style="fill:url(#SVGID_00000098924566400928741290000011806640211437823672_);" d="M261.373,485h-43.23
			c-5.363,0-10.319,2.861-13.001,7.506l-21.615,37.438c-2.681,4.645-2.681,10.367,0,15.012l21.615,37.438
			c2.682,4.645,7.638,7.506,13.001,7.506h43.23c5.363,0,10.319-2.861,13.001-7.506l21.615-37.438c2.681-4.645,2.681-10.367,0-15.012
			l-21.615-37.438C271.692,487.861,266.737,485,261.373,485z"/>
		
			<linearGradient id="SVGID_00000008142809373027054040000015028772182014884240_" gradientUnits="userSpaceOnUse" x1="263.0976" y1="588.2119" x2="234.358" y2="525.7034">
			<stop  offset="0" style="stop-color:#53D8FF"/>
			<stop  offset="1" style="stop-color:#3840F7"/>
		</linearGradient>
		<path style="opacity:0.49;fill:url(#SVGID_00000008142809373027054040000015028772182014884240_);" d="M218.144,582.714
			c-2.787,0-5.385-1.499-6.778-3.913l-21.615-37.438c-1.393-2.414-1.393-5.413,0-7.827l21.615-37.438
			c1.394-2.414,3.991-3.913,6.778-3.913h43.23c2.787,0,5.385,1.499,6.778,3.913l21.615,37.438c1.394,2.414,1.394,5.413,0,7.827
			l-21.615,37.438c-1.394,2.414-3.991,3.913-6.778,3.913H218.144z"/>
	</g>
	<g>
		
			<linearGradient id="SVGID_00000126321564199877046760000013673660451116500126_" gradientUnits="userSpaceOnUse" x1="215.4861" y1="361.783" x2="277.2761" y2="476.0225">
			<stop  offset="0" style="stop-color:#53D8FF"/>
			<stop  offset="1" style="stop-color:#3840F7"/>
		</linearGradient>
		<path style="fill:url(#SVGID_00000126321564199877046760000013673660451116500126_);" d="M269.373,369h-43.23
			c-5.363,0-10.319,2.861-13.001,7.506l-21.615,37.438c-2.681,4.645-2.681,10.367,0,15.012l21.615,37.438
			c2.682,4.645,7.638,7.506,13.001,7.506h43.23c5.363,0,10.319-2.861,13.001-7.506l21.615-37.438c2.681-4.645,2.681-10.367,0-15.012
			l-21.615-37.438C279.692,371.861,274.737,369,269.373,369z"/>
		
			<linearGradient id="SVGID_00000176743048105638641590000014430575612015134592_" gradientUnits="userSpaceOnUse" x1="271.0976" y1="472.2119" x2="242.358" y2="409.7033">
			<stop  offset="0" style="stop-color:#53D8FF"/>
			<stop  offset="1" style="stop-color:#3840F7"/>
		</linearGradient>
		<path style="opacity:0.49;fill:url(#SVGID_00000176743048105638641590000014430575612015134592_);" d="M226.144,466.714
			c-2.787,0-5.385-1.499-6.778-3.913l-21.615-37.438c-1.393-2.414-1.393-5.413,0-7.827l21.615-37.438
			c1.394-2.414,3.991-3.913,6.778-3.913h43.23c2.787,0,5.385,1.499,6.778,3.913l21.615,37.438c1.394,2.414,1.394,5.413,0,7.827
			l-21.615,37.438c-1.394,2.414-3.991,3.913-6.778,3.913H226.144z"/>
	</g>
	<g>
		
			<linearGradient id="SVGID_00000104673595648174966930000006400620294671298695_" gradientUnits="userSpaceOnUse" x1="1946.2111" y1="-6102.9482" x2="2273.4929" y2="-6102.9482" gradientTransform="matrix(-0.0816 -0.9967 -0.9525 0.078 -4728.9194 3134.5234)">
			<stop  offset="0" style="stop-color:#B37CFF"/>
			<stop  offset="1" style="stop-color:#F895E7"/>
		</linearGradient>
		<path style="fill:url(#SVGID_00000104673595648174966930000006400620294671298695_);" d="M1127.534,380.038
			c-10.388,55.429-85.441,375.166-431.232,351.666c0,0-10.756-224.472,424.176-357.237
			C1124.282,373.305,1128.212,376.416,1127.534,380.038z"/>
		<path style="opacity:0.86;fill:#FFFFFF;" d="M1088.718,434.45c-5.335,8.34-11.021,16.389-16.828,24.37
			c-2.89,3.998-5.88,7.921-8.844,11.864c-3.033,3.889-6.002,7.83-9.104,11.665c-12.284,15.438-25.131,30.43-38.518,44.926
			c-26.8,28.954-55.617,56.121-86.731,80.454c-7.697,6.188-15.723,11.944-23.662,17.818c-8.144,5.586-16.175,11.343-24.564,16.565
			c-8.231,5.469-16.816,10.368-25.294,15.444c-4.314,2.407-8.669,4.744-13.002,7.119c-2.178,1.165-4.317,2.406-6.529,3.509
			L829,671.478l-6.643,3.293c-2.215,1.096-4.415,2.224-6.691,3.191l-13.549,6.034c-1.132,0.496-2.252,1.021-3.394,1.492l-3.45,1.36
			l-6.901,2.72c-4.605,1.802-9.174,3.704-13.887,5.214l-14.041,4.803c-4.717,1.485-9.495,2.781-14.24,4.18l-7.13,2.062
			c-2.396,0.614-4.813,1.148-7.219,1.726l-14.452,3.405c-1.075,0.253-2.151-0.413-2.405-1.488c-0.253-1.075,0.413-2.151,1.488-2.405
			l0.009-0.002l0.1-0.023l14.333-3.305c2.386-0.561,4.784-1.078,7.162-1.675l7.076-2.01c4.71-1.365,9.453-2.625,14.138-4.074
			l13.948-4.696c4.683-1.474,9.224-3.34,13.802-5.106l6.861-2.665l3.431-1.333c1.136-0.462,2.25-0.979,3.376-1.465l13.481-5.925
			c2.265-0.948,4.455-2.059,6.66-3.137l6.614-3.239l6.614-3.239c2.202-1.085,4.333-2.308,6.504-3.456
			c4.317-2.34,8.656-4.641,12.957-7.012c8.451-5.006,17.013-9.834,25.226-15.235c8.37-5.153,16.388-10.843,24.521-16.361
			c7.929-5.808,15.947-11.499,23.641-17.624c31.1-24.078,59.955-51.013,86.82-79.755c13.419-14.39,26.305-29.28,38.633-44.619
			c3.114-3.81,6.093-7.726,9.138-11.59c2.974-3.918,5.976-7.817,8.878-11.789c5.824-7.921,11.551-15.948,16.875-24.182l0.01-0.016
			c0.254-0.393,0.778-0.505,1.171-0.251C1088.857,433.536,1088.972,434.057,1088.718,434.45z"/>
	</g>
	<g>
		
			<linearGradient id="SVGID_00000072962169470967817480000006106842253439004050_" gradientUnits="userSpaceOnUse" x1="1231.4045" y1="-4199.7114" x2="1634.7291" y2="-4199.7114" gradientTransform="matrix(-0.5606 -0.8281 -0.8281 0.5606 -1823.9645 3972.1042)">
			<stop  offset="0" style="stop-color:#A737D5"/>
			<stop  offset="1" style="stop-color:#EF497A"/>
		</linearGradient>
		<path style="fill:url(#SVGID_00000072962169470967817480000006106842253439004050_);" d="M970.901,115.925
			c25.726,66.017,157.316,455.49-242.53,628.075c0,0-162.849-237.092,230.948-630.07
			C962.763,110.492,969.22,111.612,970.901,115.925z"/>
		<path style="opacity:0.42;fill:#FFFFFF;" d="M953.839,219.119c-3.274,22.102-7.332,44.044-11.752,65.923
			c-4.437,21.873-9.322,43.656-14.661,65.329c-10.693,43.338-23.107,86.277-37.84,128.444
			c-14.768,42.138-31.797,83.571-52.469,123.238c-10.361,19.809-21.606,39.188-34.144,57.739
			c-12.464,18.593-26.32,36.295-41.653,52.678c-0.755,0.806-2.02,0.849-2.827,0.094c-0.806-0.755-0.848-2.021-0.094-2.827
			l0.006-0.006l0.012-0.012c15.221-16.126,29.031-33.604,41.483-52.008c12.524-18.36,23.789-37.579,34.185-57.248
			c20.743-39.387,37.902-80.621,52.815-122.593c14.879-42.003,27.458-84.816,38.322-128.046
			c5.425-21.619,10.397-43.353,14.923-65.18c4.508-21.825,8.659-43.749,12.017-65.763l0.002-0.014
			c0.071-0.462,0.503-0.78,0.965-0.71C953.591,218.228,953.909,218.656,953.839,219.119z"/>
	</g>
	<g>
		
			<linearGradient id="SVGID_00000073693195067099910520000002563265155745643660_" gradientUnits="userSpaceOnUse" x1="694.1089" y1="-9.3399" x2="502.3001" y2="826.6595">
			<stop  offset="0" style="stop-color:#CB236D"/>
			<stop  offset="1" style="stop-color:#4C246D"/>
		</linearGradient>
		<path style="fill:url(#SVGID_00000073693195067099910520000002563265155745643660_);" d="M845.258,540.426
			c18.983-17.927,28.903-45.003,25.993-70.95s-18.579-50.154-41.061-63.431c-12.336-7.286-27.425-12.279-34.249-24.878
			c-5.508-10.169-3.984-22.531-2.494-33.999c7.273-55.959,9.83-114.641-11.137-167.031
			C751.16,102.302,665.596,50.067,582.143,57.748c-83.453-7.68-169.017,44.554-200.168,122.39
			c-20.967,52.389-18.41,111.072-11.137,167.031c1.491,11.468,3.014,23.83-2.494,33.999c-6.823,12.598-21.912,17.592-34.249,24.878
			c-22.481,13.277-38.151,37.484-41.061,63.431c-2.909,25.947,7.011,53.023,25.993,70.95c6.195,5.85,13.592,11.218,16.311,19.293
			c3.792,11.261-2.827,23.008-6.368,34.351c-11.9,38.119,13.25,79.91,47.599,100.274c32.193,19.086,70.477,23.816,107.901,27.26
			c16.301,4.958,32.916,9.676,49.919,9.383c18.025-0.31,36.887-7.191,47.247-21.945c0.177-0.252,0.335-0.512,0.506-0.766
			c0.171,0.254,0.329,0.515,0.505,0.766c10.36,14.754,29.222,21.635,47.247,21.945c17.003,0.292,33.618-4.425,49.919-9.383
			c37.424-3.443,75.708-8.174,107.901-27.26c34.35-20.364,59.499-62.156,47.599-100.274c-3.541-11.343-10.16-23.09-6.368-34.351
			C831.666,551.643,839.063,546.276,845.258,540.426z"/>
		
			<linearGradient id="SVGID_00000060740923998588565820000009800574194112323976_" gradientUnits="userSpaceOnUse" x1="598.8755" y1="822.7443" x2="535.0714" y2="505.2791">
			<stop  offset="0" style="stop-color:#F9B776"/>
			<stop  offset="1" style="stop-color:#F47960"/>
		</linearGradient>
		<path style="fill:url(#SVGID_00000060740923998588565820000009800574194112323976_);" d="M794.52,662.466
			c-48.953,1.399-113.291,25.176-142.662-13.986c-29.372-39.162-18.182-159.446-18.182-159.446s-36.063-3.756-54.776-3.009
			c-18.712-0.747-54.776,3.009-54.776,3.009s11.189,120.284-18.182,159.446c-29.372,39.162-93.709,15.385-142.662,13.986
			c-38.736-1.107-52.305,71.449-46.682,89.679c1.443,4.678,5.775,7.855,10.671,7.855H838.53c4.896,0,9.228-3.176,10.671-7.855
			C854.825,733.916,833.255,661.359,794.52,662.466z"/>
		
			<linearGradient id="SVGID_00000089576535244514180860000002053406784455786895_" gradientUnits="userSpaceOnUse" x1="580.1592" y1="700.6025" x2="594.1591" y2="932.6023">
			<stop  offset="0" style="stop-color:#FDF53F"/>
			<stop  offset="1" style="stop-color:#D93C65"/>
		</linearGradient>
		<path style="fill:url(#SVGID_00000089576535244514180860000002053406784455786895_);" d="M794.52,662.466
			c-25.354,0.724-54.834,7.45-81.447,8.327C688.749,690.865,642.583,720.329,584,717c-64.546-3.667-110.799-31.544-130.87-46.143
			c-28.685,0.559-61.794-7.589-89.851-8.391c-38.736-1.107-52.305,71.449-46.682,89.679c1.443,4.678,5.775,7.855,10.671,7.855
			H838.53c4.896,0,9.228-3.176,10.671-7.855C854.825,733.916,833.255,661.359,794.52,662.466z"/>
		
			<linearGradient id="SVGID_00000072989424000350412870000004179462632253544860_" gradientUnits="userSpaceOnUse" x1="553.7637" y1="573.225" x2="607.2432" y2="44.3698">
			<stop  offset="0" style="stop-color:#F9B776"/>
			<stop  offset="1" style="stop-color:#F47960"/>
		</linearGradient>
		<path style="fill:url(#SVGID_00000072989424000350412870000004179462632253544860_);" d="M460.008,210.902
			c-2.897,4.801-4.473,10.286-4.595,15.892c-0.818,37.493-3.335,191.731,9.803,222.049c16.302,37.621,58.213,78.685,110.962,86.221
			c52.749,7.536,117.272-64.903,124.814-99.708c3.981-18.373,3.535-167.436,3.343-207.113c-0.033-6.757-2.191-13.318-6.162-18.785
			c-14.843-20.434-56.15-67.755-117.464-62.771C539,150.079,495.081,152.792,460.008,210.902z"/>
		
			<linearGradient id="SVGID_00000098904759897420366480000008240567076681790597_" gradientUnits="userSpaceOnUse" x1="693.034" y1="604.5705" x2="748.131" y2="59.7197">
			<stop  offset="0" style="stop-color:#F9B776"/>
			<stop  offset="1" style="stop-color:#F47960"/>
		</linearGradient>
		<path style="fill:url(#SVGID_00000098904759897420366480000008240567076681790597_);" d="M696.108,340.069
			c0,0,0-67.82,37.678-30.143c37.678,37.678-37.678,90.426-37.678,90.426V340.069z"/>
		
			<linearGradient id="SVGID_00000025425210731705551220000013471418308833781634_" gradientUnits="userSpaceOnUse" x1="-824.2865" y1="604.5705" x2="-769.1895" y2="59.7197" gradientTransform="matrix(-1 0 0 1 -358.8115 0)">
			<stop  offset="0" style="stop-color:#F9B776"/>
			<stop  offset="1" style="stop-color:#F47960"/>
		</linearGradient>
		<path style="fill:url(#SVGID_00000025425210731705551220000013471418308833781634_);" d="M462.4,340.069
			c0,0,0-67.82-37.678-30.143c-37.678,37.678,37.678,90.426,37.678,90.426V340.069z"/>
		
			<linearGradient id="SVGID_00000021834661255206216710000011597900549470491802_" gradientUnits="userSpaceOnUse" x1="643.7767" y1="-5.1537" x2="484.7614" y2="687.9147">
			<stop  offset="0" style="stop-color:#CB236D"/>
			<stop  offset="1" style="stop-color:#4C246D"/>
		</linearGradient>
		<path style="fill:url(#SVGID_00000021834661255206216710000011597900549470491802_);" d="M447.352,280.803
			c0.092,2.331,32.267-22.324,87.782-32.605c67.718-12.54,91.337-49.707,106.593-49.707c7.524,0,18.81,4.665,17.556,37.324
			c-1.254,32.658,33.859,71.148,61.448,33.824c27.589-37.323-23.827-134.131-141.706-131.798S443.59,185.161,447.352,280.803z"/>
		<g>
			
				<linearGradient id="SVGID_00000078038211570711803630000018333731320893517446_" gradientUnits="userSpaceOnUse" x1="-1120.5741" y1="-2163.4915" x2="-1032.1141" y2="-2163.4915" gradientTransform="matrix(-0.9964 -0.0848 0.0848 -0.9964 -380.2011 -1921.3429)">
				<stop  offset="0" style="stop-color:#CB236D"/>
				<stop  offset="1" style="stop-color:#4C246D"/>
			</linearGradient>
			<path style="fill:url(#SVGID_00000078038211570711803630000018333731320893517446_);" d="M470.913,334.338
				c6.193-2.684,10.872-8.887,17.279-11.555c7.597-3.164,15.621-3.138,23.224-0.664c13.189,4.292,26.958,14.935,41.114,8.176
				c0.498-0.238,0.38-1.257-0.179-1.23c-18.223,0.856-31.773-14.658-49.462-15.908c-6.681-0.472-14.595-0.589-20.785,2.531
				c-5.502,2.773-17.824,11.527-17.824,11.527S469.546,334.931,470.913,334.338z"/>
			
				<linearGradient id="SVGID_00000059275041072160276900000017370159738461410199_" gradientUnits="userSpaceOnUse" x1="627.8262" y1="-2312.2915" x2="716.2863" y2="-2312.2915" gradientTransform="matrix(0.9964 -0.0848 -0.0848 -0.9964 -215.3988 -1921.3429)">
				<stop  offset="0" style="stop-color:#CB236D"/>
				<stop  offset="1" style="stop-color:#4C246D"/>
			</linearGradient>
			<path style="fill:url(#SVGID_00000059275041072160276900000017370159738461410199_);" d="M688.211,334.338
				c-6.193-2.684-10.872-8.887-17.279-11.555c-7.597-3.164-15.621-3.138-23.224-0.664c-13.189,4.292-26.958,14.935-41.114,8.176
				c-0.498-0.238-0.38-1.257,0.179-1.23c18.223,0.856,31.773-14.658,49.462-15.908c6.681-0.472,14.595-0.589,20.785,2.531
				c5.502,2.773,17.825,11.527,17.825,11.527S689.579,334.931,688.211,334.338z"/>
		</g>
		
			<linearGradient id="SVGID_00000119836930889628174390000007705263770636528567_" gradientUnits="userSpaceOnUse" x1="649.9839" y1="293.4539" x2="653.2333" y2="261.3206">
			<stop  offset="0" style="stop-color:#CB236D"/>
			<stop  offset="1" style="stop-color:#4C246D"/>
		</linearGradient>
		<path style="fill:url(#SVGID_00000119836930889628174390000007705263770636528567_);" d="M605.353,282.078L605.353,282.078
			c0,3.312,3.237,5.67,6.38,4.625c15.236-5.065,54.69-15.293,84.505,2.324c0,0-16.663-38.324-87.766-11.494
			C606.589,278.243,605.353,280.065,605.353,282.078z"/>
		
			<linearGradient id="SVGID_00000046321287122071498110000005104407876183887491_" gradientUnits="userSpaceOnUse" x1="-882.5549" y1="293.4539" x2="-879.3055" y2="261.3205" gradientTransform="matrix(-1 0 0 1 -373 0)">
			<stop  offset="0" style="stop-color:#CB236D"/>
			<stop  offset="1" style="stop-color:#4C246D"/>
		</linearGradient>
		<path style="fill:url(#SVGID_00000046321287122071498110000005104407876183887491_);" d="M554.186,282.078L554.186,282.078
			c0,3.312-3.237,5.67-6.38,4.625c-15.236-5.065-54.69-15.293-84.505,2.324c0,0,16.663-38.324,87.766-11.494
			C552.949,278.243,554.186,280.065,554.186,282.078z"/>
		<g>
			
				<linearGradient id="SVGID_00000065041463471278377680000000251229369776882345_" gradientUnits="userSpaceOnUse" x1="524.5421" y1="460.6892" x2="643.2198" y2="450.5921">
				<stop  offset="0" style="stop-color:#CB236D"/>
				<stop  offset="1" style="stop-color:#4C246D"/>
			</linearGradient>
			<path style="fill:url(#SVGID_00000065041463471278377680000000251229369776882345_);" d="M642.393,440.878
				c0,0-23.043-10.685-38.885-9.349c-15.842,1.336-20.883,5.342-20.883,5.342s-5.041-4.007-20.883-5.342
				c-15.842-1.336-38.885,9.349-38.885,9.349c12.021,30.403,40.326,41.404,59.768,41.116
				C602.068,482.282,630.372,471.282,642.393,440.878z"/>
			<path style="fill:#FFFFFF;" d="M627.368,448.224c0,0-20.032,14.024-44.743,14.024c-24.711,0-44.743-14.024-44.743-14.024
				s20.032-3.339,44.743-3.339C607.336,444.885,627.368,448.224,627.368,448.224z"/>
		</g>
		<path style="opacity:0.72;fill:#FFFFFF;" d="M405.368,473.571c-1.549,0-3.12-0.158-4.702-0.494
			c-0.54-0.114-0.885-0.645-0.771-1.186c0.114-0.54,0.642-0.884,1.186-0.771c10.206,2.165,24.346-4.482,29.389-18.99
			c3.722-10.707,2.23-24.094-4.199-37.697c-3.701-7.829-8.606-15.199-13.35-22.327c-2.458-3.694-5.001-7.514-7.356-11.367
			c-11.44-18.711-17.801-37.241-18.906-55.073c-1.3-20.991,5.083-40.982,17.514-54.849c14.195-15.835,35.09-23.17,53.658-28.257
			c13.48-3.693,27.364-6.703,40.79-9.614c16.707-3.621,33.983-7.367,50.579-12.454c35.69-10.941,61.563-26.419,79.098-47.32
			c0.354-0.423,0.987-0.479,1.409-0.124c0.423,0.355,0.479,0.986,0.124,1.409c-17.791,21.205-43.974,36.889-80.044,47.947
			c-16.676,5.112-33.994,8.866-50.741,12.497c-13.401,2.905-27.258,5.909-40.686,9.587c-18.287,5.01-38.848,12.214-52.697,27.664
			c-12.075,13.471-18.274,32.931-17.007,53.39c1.085,17.504,7.348,35.723,18.616,54.154c2.336,3.819,4.867,7.623,7.315,11.302
			c4.784,7.187,9.73,14.619,13.494,22.58c6.655,14.079,8.175,28.003,4.279,39.207C428.623,463.534,417.698,473.571,405.368,473.571z
			"/>
		<path style="opacity:0.72;fill:#FFFFFF;" d="M395.935,249.559c-0.019,0-0.038-0.001-0.057-0.003
			c-0.274-0.031-0.472-0.279-0.441-0.553c1.207-10.721,7.942-21.06,18.478-28.365c10.214-7.082,22.495-10.469,32.054-12.63
			c17.703-4.001,36.063-5.924,53.819-7.783c4.515-0.473,9.029-0.945,13.536-1.451c21.773-2.442,44.857-5.843,66.157-14.114
			c16.294-6.327,38.69-18.479,52.846-40.441c0.15-0.232,0.46-0.297,0.691-0.149c0.232,0.15,0.299,0.459,0.149,0.691
			c-14.302,22.188-36.892,34.451-53.324,40.832c-21.407,8.312-44.568,11.725-66.408,14.175c-4.509,0.506-9.026,0.979-13.543,1.452
			c-17.727,1.857-36.058,3.776-53.703,7.764c-9.47,2.141-21.632,5.493-31.705,12.477c-10.298,7.14-16.879,17.22-18.054,27.655
			C396.403,249.371,396.186,249.559,395.935,249.559z"/>
		<path style="opacity:0.72;fill:#FFFFFF;" d="M761.32,640.435c-0.421,0-0.813-0.269-0.951-0.691
			c-0.171-0.525,0.116-1.089,0.641-1.26c6.825-2.221,10.29-10.07,10.185-16.676c-0.116-7.379-3.595-14.39-6.847-20.381l-1.105-2.023
			c-3.201-5.84-6.511-11.879-7.78-18.549c-3.794-19.926,11.504-36.837,18.258-43.183c5.542-5.208,11.737-9.813,17.727-14.267
			c6.638-4.935,13.502-10.037,19.429-15.937c13.207-13.148,18.877-28.862,15.166-42.033c-3.525-12.512-14.021-20.407-25.132-28.766
			c-5.144-3.87-10.463-7.871-14.99-12.356c-13.335-13.213-21.378-33.109-22.068-54.586c-0.579-18.001,3.519-37.032,12.527-58.184
			c0.216-0.508,0.805-0.746,1.312-0.528c0.508,0.216,0.745,0.804,0.528,1.312c-8.892,20.878-12.937,39.633-12.368,57.336
			c0.673,20.971,8.501,40.373,21.477,53.23c4.43,4.39,9.694,8.35,14.785,12.179c10.888,8.19,22.147,16.66,25.855,29.822
			c3.91,13.879-1.952,30.324-15.68,43.992c-6.029,6.002-12.952,11.148-19.646,16.126c-5.945,4.419-12.092,8.989-17.551,14.119
			c-6.512,6.12-21.271,22.4-17.662,41.352c1.211,6.36,4.443,12.258,7.569,17.962l1.109,2.03c3.365,6.201,6.965,13.472,7.089,21.304
			c0.116,7.339-3.819,16.087-11.566,18.608C761.527,640.419,761.423,640.435,761.32,640.435z"/>
	</g>
	<g>
		<path style="fill:#FFFFFF;" d="M447.375,232.499c-3.59,0-6.5-2.91-6.5-6.5v-40.187c0-11.2,9.112-20.313,20.312-20.313h27.812
			c3.59,0,6.5,2.91,6.5,6.5s-2.91,6.5-6.5,6.5h-27.812c-4.032,0-7.312,3.28-7.312,7.313v40.187
			C453.875,229.589,450.965,232.499,447.375,232.499z"/>
		<path style="fill:#FFFFFF;" d="M717,232.499c-3.59,0-6.5-2.91-6.5-6.5v-40.187c0-4.032-3.28-7.313-7.312-7.313h-27.812
			c-3.59,0-6.5-2.91-6.5-6.5s2.91-6.5,6.5-6.5h27.812c11.2,0,20.312,9.112,20.312,20.313v40.187
			C723.5,229.589,720.589,232.499,717,232.499z"/>
	</g>
	<g>
		<path style="fill:#FFFFFF;" d="M488.999,550.5h-27.812c-11.2,0-20.312-9.112-20.312-20.312V490c0-3.59,2.91-6.5,6.5-6.5
			c3.59,0,6.5,2.91,6.5,6.5v40.188c0,4.032,3.28,7.312,7.312,7.312h27.812c3.59,0,6.5,2.91,6.5,6.5
			C495.499,547.589,492.589,550.5,488.999,550.5z"/>
		<path style="fill:#FFFFFF;" d="M703.188,550.5h-27.812c-3.59,0-6.5-2.91-6.5-6.5c0-3.59,2.91-6.5,6.5-6.5h27.812
			c4.032,0,7.312-3.28,7.312-7.312V490c0-3.59,2.91-6.5,6.5-6.5s6.5,2.91,6.5,6.5v40.188C723.5,541.388,714.388,550.5,703.188,550.5
			z"/>
	</g>
	<path style="fill:#FFFFFF;" d="M696.5,530.327h-229c-3.764,0-6.827-3.063-6.827-6.827v-332c0-3.764,3.063-6.827,6.827-6.827h229
		c3.764,0,6.827,3.063,6.827,6.827v332C703.327,527.264,700.264,530.327,696.5,530.327z M467.5,186.673
		c-2.662,0-4.827,2.165-4.827,4.827v332c0,2.662,2.165,4.827,4.827,4.827h229c2.662,0,4.827-2.165,4.827-4.827v-332
		c0-2.662-2.165-4.827-4.827-4.827H467.5z"/>
	<g>
		<circle style="fill:#FFFFFF;" cx="659" cy="439" r="8"/>
		<path style="fill:#FFFFFF;" d="M659.001,440c-0.312,0-0.618-0.145-0.813-0.417c-0.322-0.449-0.219-1.073,0.229-1.396l85-61
			c0.17-0.122,0.374-0.188,0.583-0.188h287c0.552,0,1,0.448,1,1s-0.448,1-1,1H744.322l-84.739,60.813
			C659.407,439.939,659.203,440,659.001,440z"/>
	</g>
	<g>
		<circle style="fill:#FFFFFF;" cx="475" cy="344" r="8"/>
		<path style="fill:#FFFFFF;" d="M474.999,345c-0.202,0-0.405-0.061-0.582-0.188L389.678,284H103c-0.552,0-1-0.448-1-1s0.448-1,1-1
			h287c0.209,0,0.413,0.065,0.583,0.188l85,61c0.449,0.322,0.551,0.947,0.229,1.396C475.617,344.855,475.31,345,474.999,345z"/>
	</g>
	<path style="fill:#FFFFFF;" d="M1026,366H845c-0.552,0-1-0.448-1-1V253c0-0.552,0.448-1,1-1h181c0.552,0,1,0.448,1,1v112
		C1027,365.552,1026.552,366,1026,366z M846,364h179V254H846V364z"/>
	<g>
		<path style="fill:#FFFFFF;" d="M936.417,340.5c-0.267,0-0.527-0.002-0.792-0.005c-22.755,0.297-51.014-12.954-63.023-43.33
			c-0.682-1.725,0.1-3.682,1.783-4.462c0.975-0.452,24.074-11.055,40.652-9.662c11.368,0.959,17.619,3.28,20.589,4.776
			c2.97-1.496,9.221-3.817,20.589-4.776c16.574-1.393,39.676,9.21,40.652,9.662c1.683,0.78,2.464,2.737,1.783,4.462
			C986.778,327.186,959.005,340.5,936.417,340.5z M935.625,333.495c0.017,0,0.035,0,0.052,0c14.638,0.199,42.163-7.18,55.137-35.779
			c-6.651-2.742-22.587-8.664-34.012-7.7c-14.185,1.196-19.01,4.605-19.057,4.64c-1.318,1.048-3.025,1.057-4.297-0.045l0,0
			c-0.003,0-4.836-3.4-18.999-4.595c-11.434-0.965-27.361,4.957-34.012,7.7c12.974,28.599,40.471,35.997,55.137,35.779
			C935.59,333.495,935.608,333.495,935.625,333.495z"/>
		<path style="fill:#FFFFFF;" d="M980.368,303.224c0,0-20.032,14.024-44.743,14.024c-24.711,0-44.743-14.024-44.743-14.024
			s20.032-3.339,44.743-3.339C960.336,299.885,980.368,303.224,980.368,303.224z"/>
	</g>
	<g>
		<g>
			
				<linearGradient id="SVGID_00000078006087569608469710000014235278781453938336_" gradientUnits="userSpaceOnUse" x1="153.3402" y1="424.2903" x2="137.8227" y2="439.3906" gradientTransform="matrix(1 0.0066 -0.0066 1 762.521 -31.5622)">
				<stop  offset="0" style="stop-color:#53D8FF"/>
				<stop  offset="1" style="stop-color:#3840F7"/>
			</linearGradient>
			<path style="fill:url(#SVGID_00000078006087569608469710000014235278781453938336_);" d="M909.825,401.756
				c-0.018,2.804-2.306,5.061-5.11,5.043c-2.804-0.018-5.061-2.306-5.043-5.11c0.018-2.804,2.306-5.061,5.11-5.043
				C907.586,396.665,909.843,398.953,909.825,401.756z"/>
			
				<linearGradient id="SVGID_00000060004922190322846720000011775850897761948559_" gradientUnits="userSpaceOnUse" x1="148.7909" y1="426.7228" x2="128.6562" y2="457.1405" gradientTransform="matrix(1 0.0066 -0.0066 1 762.521 -31.5622)">
				<stop  offset="0" style="stop-color:#53D8FF"/>
				<stop  offset="1" style="stop-color:#3840F7"/>
			</linearGradient>
			<path style="fill:url(#SVGID_00000060004922190322846720000011775850897761948559_);" d="M909.656,401.755
				c-0.018,2.71-2.23,4.893-4.94,4.875c-2.711-0.018-4.893-2.23-4.875-4.94c0.018-2.711,2.23-4.893,4.94-4.875
				C907.491,396.833,909.674,399.045,909.656,401.755z"/>
			<path style="fill:#FFFFFF;" d="M900.227,402.453c-0.02,0-0.04-0.001-0.059-0.001c-0.551-0.032-0.972-0.505-0.941-1.057
				c0.014-0.235,0.043-0.467,0.085-0.694c0.101-0.543,0.624-0.899,1.167-0.799c0.543,0.102,0.901,0.624,0.799,1.167
				c-0.027,0.145-0.045,0.293-0.054,0.443C901.193,402.043,900.752,402.453,900.227,402.453z"/>
			<path style="fill:#FFFFFF;" d="M900.714,400.658c-0.153,0-0.31-0.035-0.456-0.11c-0.491-0.252-0.685-0.855-0.433-1.346
				c0.959-1.869,2.842-3.03,4.959-3.009c0.333,0.002,0.668,0.035,0.996,0.096c0.542,0.103,0.9,0.625,0.798,1.168
				c-0.102,0.542-0.622,0.902-1.168,0.798c-0.21-0.04-0.425-0.061-0.639-0.062c-0.008,0-0.016,0-0.023,0
				c-1.331,0-2.535,0.735-3.144,1.922C901.427,400.46,901.077,400.658,900.714,400.658z"/>
		</g>
		<g>
			
				<linearGradient id="SVGID_00000060010621791192839270000013821548035725886646_" gradientUnits="userSpaceOnUse" x1="153.5434" y1="455.0634" x2="138.0258" y2="470.1638" gradientTransform="matrix(1 0.0066 -0.0066 1 762.521 -31.5622)">
				<stop  offset="0" style="stop-color:#53D8FF"/>
				<stop  offset="1" style="stop-color:#3840F7"/>
			</linearGradient>
			<path style="fill:url(#SVGID_00000060010621791192839270000013821548035725886646_);" d="M909.825,432.531
				c-0.018,2.804-2.306,5.061-5.11,5.043c-2.804-0.019-5.061-2.306-5.043-5.11c0.018-2.804,2.306-5.061,5.11-5.043
				C907.586,427.44,909.843,429.727,909.825,432.531z"/>
			
				<linearGradient id="SVGID_00000078040044513181745730000004790813642613403810_" gradientUnits="userSpaceOnUse" x1="148.994" y1="457.4959" x2="128.8593" y2="487.9137" gradientTransform="matrix(1 0.0066 -0.0066 1 762.521 -31.5622)">
				<stop  offset="0" style="stop-color:#53D8FF"/>
				<stop  offset="1" style="stop-color:#3840F7"/>
			</linearGradient>
			<path style="fill:url(#SVGID_00000078040044513181745730000004790813642613403810_);" d="M909.656,432.53
				c-0.018,2.71-2.23,4.893-4.94,4.875c-2.711-0.018-4.893-2.229-4.875-4.94c0.018-2.711,2.23-4.893,4.94-4.875
				C907.491,427.608,909.674,429.819,909.656,432.53z"/>
			<path style="fill:#FFFFFF;" d="M900.227,433.228c-0.02,0-0.039,0-0.059-0.001c-0.551-0.032-0.972-0.505-0.941-1.057
				c0.014-0.236,0.043-0.467,0.085-0.694c0.101-0.542,0.619-0.902,1.166-0.8c0.543,0.101,0.901,0.623,0.8,1.166
				c-0.027,0.145-0.045,0.293-0.054,0.444C901.193,432.817,900.753,433.228,900.227,433.228z"/>
			<path style="fill:#FFFFFF;" d="M900.714,431.432c-0.153,0-0.31-0.035-0.456-0.11c-0.491-0.252-0.685-0.855-0.433-1.346
				c0.954-1.858,2.837-3.008,4.922-3.008c0.012,0,0.025,0,0.038,0c0.335,0.002,0.669,0.035,0.995,0.096
				c0.542,0.103,0.9,0.625,0.798,1.168c-0.102,0.542-0.622,0.901-1.168,0.798c-0.208-0.04-0.423-0.06-0.639-0.062
				c-0.008,0-0.016,0-0.024,0c-1.332,0-2.534,0.734-3.143,1.921C901.427,431.234,901.077,431.432,900.714,431.432z"/>
		</g>
		<g>
			
				<linearGradient id="SVGID_00000140720529198884905870000016963751608280401797_" gradientUnits="userSpaceOnUse" x1="153.7464" y1="485.8366" x2="138.229" y2="500.937" gradientTransform="matrix(1 0.0066 -0.0066 1 762.521 -31.5622)">
				<stop  offset="0" style="stop-color:#53D8FF"/>
				<stop  offset="1" style="stop-color:#3840F7"/>
			</linearGradient>
			<path style="fill:url(#SVGID_00000140720529198884905870000016963751608280401797_);" d="M909.825,463.306
				c-0.018,2.804-2.306,5.061-5.11,5.043c-2.804-0.018-5.061-2.306-5.043-5.11c0.018-2.804,2.306-5.061,5.11-5.043
				C907.586,458.214,909.843,460.502,909.825,463.306z"/>
			
				<linearGradient id="SVGID_00000116215330555213519020000017988026718481023931_" gradientUnits="userSpaceOnUse" x1="149.1971" y1="488.2692" x2="129.0625" y2="518.6868" gradientTransform="matrix(1 0.0066 -0.0066 1 762.521 -31.5622)">
				<stop  offset="0" style="stop-color:#53D8FF"/>
				<stop  offset="1" style="stop-color:#3840F7"/>
			</linearGradient>
			<path style="fill:url(#SVGID_00000116215330555213519020000017988026718481023931_);" d="M909.656,463.304
				c-0.018,2.71-2.23,4.893-4.94,4.875c-2.711-0.018-4.893-2.229-4.875-4.94c0.018-2.71,2.23-4.893,4.94-4.875
				C907.491,458.382,909.674,460.594,909.656,463.304z"/>
			<path style="fill:#FFFFFF;" d="M900.227,464.002c-0.02,0-0.039-0.001-0.059-0.002c-0.551-0.032-0.972-0.505-0.941-1.057
				c0.014-0.236,0.043-0.467,0.085-0.694c0.101-0.543,0.619-0.904,1.166-0.8c0.543,0.101,0.901,0.623,0.8,1.166
				c-0.027,0.145-0.045,0.293-0.054,0.444C901.193,463.591,900.753,464.002,900.227,464.002z"/>
			<path style="fill:#FFFFFF;" d="M900.714,462.207c-0.153,0-0.31-0.035-0.456-0.11c-0.491-0.252-0.685-0.855-0.433-1.346
				c0.954-1.858,2.837-3.008,4.922-3.008c0.012,0,0.025,0,0.038,0c0.336,0.002,0.671,0.035,0.997,0.097
				c0.543,0.103,0.899,0.626,0.796,1.169c-0.104,0.543-0.629,0.901-1.169,0.796c-0.207-0.039-0.421-0.06-0.637-0.061
				c-0.008,0-0.016,0-0.024,0c-1.332,0-2.534,0.734-3.143,1.921C901.427,462.008,901.077,462.207,900.714,462.207z"/>
		</g>
		<path style="opacity:0.62;fill:#FFFFFF;" d="M917.634,401.492l0.023,0.865c0.063,2.341,1.525,4.198,3.312,4.207l135.967,0.206
			c1.845,0.009,3.343-1.951,3.34-4.369l0,0c-0.003-2.371-1.451-4.305-3.26-4.353l-135.99-1.071
			C919.117,396.927,917.567,398.99,917.634,401.492z"/>
		<path style="opacity:0.62;fill:#FFFFFF;" d="M917.634,432.117l0.023,0.865c0.063,2.341,1.525,4.198,3.312,4.207l135.967,0.206
			c1.845,0.009,3.343-1.951,3.34-4.369l0,0c-0.003-2.371-1.451-4.305-3.26-4.353l-135.99-1.071
			C919.117,427.551,917.567,429.614,917.634,432.117z"/>
		<path style="opacity:0.62;fill:#FFFFFF;" d="M917.634,462.741l0.023,0.865c0.063,2.341,1.525,4.198,3.312,4.207l135.967,0.206
			c1.845,0.009,3.343-1.95,3.34-4.369l0,0c-0.003-2.372-1.451-4.305-3.26-4.353l-135.99-1.071
			C919.117,458.175,917.567,460.239,917.634,462.741z"/>
	</g>
	<g>
		<g>
			
				<linearGradient id="SVGID_00000086667474863072952270000015468080291441769374_" gradientUnits="userSpaceOnUse" x1="-650.2518" y1="334.594" x2="-665.7692" y2="349.6943" gradientTransform="matrix(-1 0.0066 0.0066 1 -422.5731 -31.5622)">
				<stop  offset="0" style="stop-color:#53D8FF"/>
				<stop  offset="1" style="stop-color:#3840F7"/>
			</linearGradient>
			<path style="fill:url(#SVGID_00000086667474863072952270000015468080291441769374_);" d="M233.123,306.756
				c0.018,2.804,2.306,5.061,5.11,5.043c2.804-0.018,5.061-2.306,5.043-5.11c-0.018-2.804-2.306-5.061-5.11-5.043
				C235.362,301.665,233.104,303.953,233.123,306.756z"/>
			
				<linearGradient id="SVGID_00000128479616296164758360000017990009815811354243_" gradientUnits="userSpaceOnUse" x1="-654.8011" y1="337.0265" x2="-674.9358" y2="367.4442" gradientTransform="matrix(-1 0.0066 0.0066 1 -422.5731 -31.5622)">
				<stop  offset="0" style="stop-color:#53D8FF"/>
				<stop  offset="1" style="stop-color:#3840F7"/>
			</linearGradient>
			<path style="fill:url(#SVGID_00000128479616296164758360000017990009815811354243_);" d="M233.292,306.755
				c0.018,2.71,2.23,4.893,4.94,4.875c2.711-0.018,4.893-2.23,4.875-4.94c-0.018-2.711-2.23-4.893-4.94-4.875
				C235.457,301.833,233.274,304.045,233.292,306.755z"/>
			<path style="fill:#FFFFFF;" d="M242.721,307.453c-0.526,0-0.966-0.41-0.998-0.942c-0.008-0.15-0.027-0.298-0.054-0.443
				c-0.102-0.543,0.256-1.065,0.799-1.167c0.543-0.105,1.065,0.256,1.167,0.799c0.042,0.226,0.071,0.458,0.085,0.694
				c0.032,0.551-0.389,1.024-0.94,1.057C242.76,307.452,242.74,307.453,242.721,307.453z"/>
			<path style="fill:#FFFFFF;" d="M242.234,305.658c-0.363,0-0.713-0.198-0.891-0.543c-0.613-1.194-1.833-1.926-3.167-1.922
				c-0.213,0.001-0.428,0.022-0.639,0.062c-0.548,0.102-1.066-0.256-1.167-0.798c-0.102-0.543,0.255-1.065,0.798-1.167
				c0.328-0.061,0.662-0.094,0.995-0.096c2.114,0.033,4.001,1.14,4.96,3.009c0.252,0.491,0.058,1.094-0.433,1.346
				C242.543,305.623,242.387,305.658,242.234,305.658z"/>
		</g>
		<g>
			
				<linearGradient id="SVGID_00000123406204528453555840000000906099409952458417_" gradientUnits="userSpaceOnUse" x1="-650.0486" y1="365.3671" x2="-665.5662" y2="380.4675" gradientTransform="matrix(-1 0.0066 0.0066 1 -422.5731 -31.5622)">
				<stop  offset="0" style="stop-color:#53D8FF"/>
				<stop  offset="1" style="stop-color:#3840F7"/>
			</linearGradient>
			<path style="fill:url(#SVGID_00000123406204528453555840000000906099409952458417_);" d="M233.123,337.531
				c0.018,2.804,2.306,5.061,5.11,5.043c2.804-0.019,5.061-2.306,5.043-5.11c-0.018-2.804-2.306-5.061-5.11-5.043
				C235.362,332.44,233.104,334.727,233.123,337.531z"/>
			
				<linearGradient id="SVGID_00000141441074668602281860000005621444630033078692_" gradientUnits="userSpaceOnUse" x1="-654.598" y1="367.7997" x2="-674.7327" y2="398.2174" gradientTransform="matrix(-1 0.0066 0.0066 1 -422.5731 -31.5622)">
				<stop  offset="0" style="stop-color:#53D8FF"/>
				<stop  offset="1" style="stop-color:#3840F7"/>
			</linearGradient>
			<path style="fill:url(#SVGID_00000141441074668602281860000005621444630033078692_);" d="M233.292,337.53
				c0.018,2.71,2.23,4.893,4.94,4.875c2.711-0.018,4.893-2.229,4.875-4.94c-0.018-2.711-2.23-4.893-4.94-4.875
				C235.457,332.608,233.274,334.819,233.292,337.53z"/>
			<path style="fill:#FFFFFF;" d="M242.721,338.228c-0.526,0-0.966-0.41-0.998-0.942c-0.008-0.151-0.027-0.299-0.054-0.444
				c-0.102-0.543,0.257-1.065,0.8-1.166c0.542-0.103,1.065,0.257,1.166,0.8c0.042,0.227,0.071,0.458,0.085,0.694
				c0.032,0.551-0.389,1.024-0.94,1.057C242.76,338.227,242.74,338.228,242.721,338.228z"/>
			<path style="fill:#FFFFFF;" d="M242.234,336.432c-0.363,0-0.713-0.198-0.891-0.543c-0.609-1.187-1.812-1.921-3.143-1.921
				c-0.008,0-0.016,0-0.024,0c-0.215,0.002-0.43,0.022-0.639,0.062c-0.548,0.101-1.066-0.256-1.167-0.798
				c-0.102-0.543,0.255-1.065,0.798-1.168c0.326-0.061,0.661-0.093,0.995-0.096c0.012,0,0.025,0,0.038,0
				c2.085,0,3.969,1.15,4.922,3.008c0.252,0.491,0.058,1.094-0.433,1.346C242.543,336.397,242.387,336.432,242.234,336.432z"/>
		</g>
		<g>
			
				<linearGradient id="SVGID_00000167387707566846122140000013972112768467689867_" gradientUnits="userSpaceOnUse" x1="-649.8456" y1="396.1404" x2="-665.363" y2="411.2407" gradientTransform="matrix(-1 0.0066 0.0066 1 -422.5731 -31.5622)">
				<stop  offset="0" style="stop-color:#53D8FF"/>
				<stop  offset="1" style="stop-color:#3840F7"/>
			</linearGradient>
			<path style="fill:url(#SVGID_00000167387707566846122140000013972112768467689867_);" d="M233.123,368.306
				c0.018,2.804,2.306,5.061,5.11,5.043c2.804-0.018,5.061-2.306,5.043-5.11c-0.018-2.804-2.306-5.061-5.11-5.043
				C235.362,363.214,233.104,365.502,233.123,368.306z"/>
			
				<linearGradient id="SVGID_00000050629941682524969490000010058664023942410671_" gradientUnits="userSpaceOnUse" x1="-654.395" y1="398.5729" x2="-674.5295" y2="428.9905" gradientTransform="matrix(-1 0.0066 0.0066 1 -422.5731 -31.5622)">
				<stop  offset="0" style="stop-color:#53D8FF"/>
				<stop  offset="1" style="stop-color:#3840F7"/>
			</linearGradient>
			<path style="fill:url(#SVGID_00000050629941682524969490000010058664023942410671_);" d="M233.292,368.304
				c0.018,2.71,2.23,4.893,4.94,4.875c2.711-0.018,4.893-2.229,4.875-4.94c-0.018-2.71-2.23-4.893-4.94-4.875
				C235.457,363.382,233.274,365.594,233.292,368.304z"/>
			<path style="fill:#FFFFFF;" d="M242.721,369.002c-0.526,0-0.966-0.41-0.998-0.942c-0.008-0.151-0.027-0.299-0.054-0.444
				c-0.102-0.543,0.257-1.065,0.8-1.166c0.542-0.104,1.065,0.257,1.166,0.8c0.042,0.227,0.071,0.458,0.085,0.694
				c0.032,0.551-0.389,1.025-0.94,1.057C242.76,369.001,242.74,369.002,242.721,369.002z"/>
			<path style="fill:#FFFFFF;" d="M242.234,367.207c-0.363,0-0.713-0.198-0.891-0.543c-0.609-1.187-1.812-1.921-3.143-1.921
				c-0.008,0-0.016,0-0.024,0c-0.215,0.001-0.43,0.022-0.637,0.061c-0.545,0.105-1.066-0.254-1.169-0.796
				c-0.103-0.543,0.253-1.066,0.796-1.169c0.326-0.062,0.661-0.094,0.997-0.097c0.012,0,0.025,0,0.038,0
				c2.085,0,3.969,1.15,4.922,3.008c0.252,0.491,0.058,1.094-0.433,1.346C242.543,367.171,242.387,367.207,242.234,367.207z"/>
		</g>
		<path style="opacity:0.62;fill:#FFFFFF;" d="M225.313,306.492l-0.023,0.865c-0.063,2.341-1.525,4.198-3.312,4.207L86.012,311.77
			c-1.845,0.009-3.343-1.951-3.34-4.369l0,0c0.003-2.371,1.451-4.305,3.26-4.353l135.99-1.071
			C223.831,301.927,225.381,303.99,225.313,306.492z"/>
		<path style="opacity:0.62;fill:#FFFFFF;" d="M225.313,337.117l-0.023,0.865c-0.063,2.341-1.525,4.198-3.312,4.207l-135.966,0.206
			c-1.845,0.009-3.343-1.951-3.34-4.369l0,0c0.003-2.371,1.451-4.305,3.26-4.353l135.99-1.071
			C223.831,332.551,225.381,334.614,225.313,337.117z"/>
		<path style="opacity:0.62;fill:#FFFFFF;" d="M225.313,367.741l-0.023,0.865c-0.063,2.341-1.525,4.198-3.312,4.207l-135.966,0.206
			c-1.845,0.009-3.343-1.95-3.34-4.369l0,0c0.003-2.372,1.451-4.305,3.26-4.353l135.99-1.071
			C223.831,363.175,225.381,365.239,225.313,367.741z"/>
	</g>
	<path style="fill:#FFFFFF;" d="M284,273H103c-0.552,0-1-0.448-1-1V160c0-0.552,0.448-1,1-1h181c0.552,0,1,0.448,1,1v112
		C285,272.552,284.552,273,284,273z M104,271h179V161H104V271z"/>
	<g>
		<path style="fill:#FFFFFF;" d="M189.166,256.333c-36.538,0-65.447-33.307-66.66-34.725c-1.121-1.31-1.121-3.24,0-4.55
			c1.213-1.418,30.122-34.725,66.66-34.725s65.447,33.307,66.66,34.725c1.121,1.31,1.121,3.24,0,4.55
			C254.613,223.026,225.705,256.333,189.166,256.333z M129.927,219.333c2.88,2.999,8.577,8.537,16.173,14.013
			c10.117,7.293,25.801,15.987,43.066,15.987s32.949-8.694,43.066-15.987c7.596-5.476,13.292-11.014,16.173-14.013
			c-2.881-2.999-8.577-8.537-16.173-14.013c-10.117-7.293-25.801-15.987-43.066-15.987s-32.949,8.694-43.066,15.987
			C138.504,210.796,132.808,216.334,129.927,219.333z"/>
		<path style="fill:#FFFFFF;" d="M189.166,249.333c-16.542,0-30-13.458-30-30s13.458-30,30-30s30,13.458,30,30
			S205.708,249.333,189.166,249.333z M189.166,196.333c-12.682,0-23,10.318-23,23s10.318,23,23,23c12.682,0,23-10.318,23-23
			S201.849,196.333,189.166,196.333z"/>
		<circle style="fill:#FFFFFF;" cx="189.167" cy="219.333" r="14.5"/>
	</g>
	<g>
		
			<linearGradient id="SVGID_00000058549140966049633690000000245527312192059031_" gradientUnits="userSpaceOnUse" x1="-4575.728" y1="473.5329" x2="-4541.0859" y2="560.4325" gradientTransform="matrix(-1 0 0 1 -4349.5073 0)">
			<stop  offset="0" style="stop-color:#2B3582"/>
			<stop  offset="1" style="stop-color:#150E42"/>
		</linearGradient>
		<path style="fill:url(#SVGID_00000058549140966049633690000000245527312192059031_);" d="M210,522c0,0-9,12-19.611,15.283
			c-5.049,1.562-14.033,5.667-15.256,15.54c-0.632,5.097-4.403,9.18-9.48,9.958c-12.645,1.938-32.132,8.504-35.25,30.458
			c-2.38,16.757,6.163,23.111,15.128,25.311c6.585,1.615,10.961,8.02,9.629,14.668c-1.277,6.376,0.628,13.748,11.674,19.577
			c24.755,13.062,49.476-30.945,49.476-30.945l5.066-76.839L210,522z"/>
		
			<linearGradient id="SVGID_00000088849000089239387160000004175597568218883474_" gradientUnits="userSpaceOnUse" x1="-4603.187" y1="527.1013" x2="-4575.0654" y2="591.0834" gradientTransform="matrix(-1 0 0 1 -4349.5073 0)">
			<stop  offset="0" style="stop-color:#C4421B"/>
			<stop  offset="1" style="stop-color:#5C0E16"/>
		</linearGradient>
		<path style="fill:url(#SVGID_00000088849000089239387160000004175597568218883474_);" d="M266.654,507.009
			c0,0-14.598,39.796-39.473,52.234c0,0,8.279,13.508,12.6,14.328c0,0,26.572-34.01,29.281-61.873L266.654,507.009z"/>
		
			<linearGradient id="SVGID_00000139284694155008625200000014467591480349182895_" gradientUnits="userSpaceOnUse" x1="-4516.1392" y1="749.4921" x2="-4503.2319" y2="749.4921" gradientTransform="matrix(-1 0 0 1 -4349.5073 0)">
			<stop  offset="0" style="stop-color:#A737D5"/>
			<stop  offset="1" style="stop-color:#EF497A"/>
		</linearGradient>
		<path style="fill:url(#SVGID_00000139284694155008625200000014467591480349182895_);" d="M166.617,746.396l-0.734,6.035
			c-0.139,1.145-1.041,2.05-2.187,2.181c-1.935,0.221-5.04,0.448-8.077,0.126c-1.333-0.141-2.199-1.491-1.793-2.769
			c0.74-2.33,2.095-5.827,4.049-7.885h6.695C165.807,744.085,166.766,745.168,166.617,746.396z"/>
		
			<linearGradient id="SVGID_00000066478753364266963760000009581234454349740442_" gradientUnits="userSpaceOnUse" x1="-2870.679" y1="800.3911" x2="-2852.1045" y2="583.3019" gradientTransform="matrix(-1 0 0 1 -2649.5073 0)">
			<stop  offset="0" style="stop-color:#C4421B"/>
			<stop  offset="1" style="stop-color:#5C0E16"/>
		</linearGradient>
		<path style="fill:url(#SVGID_00000066478753364266963760000009581234454349740442_);" d="M219.055,675.696l1.13,6.647
			c0,0-3.784,38.331-4.457,53.663c-0.105,2.404,0.516,4.779,1.778,6.828l6.58,10.685l-16.723-9.868l-0.333-2.041l2.738-3.764
			l-3.586-42.94c-0.211-2.523,0.31-5.052,1.499-7.287l3.459-6.498L219.055,675.696z"/>
		
			<linearGradient id="SVGID_00000014630436836160517920000002450780638166429588_" gradientUnits="userSpaceOnUse" x1="-4576.1055" y1="747.1356" x2="-4555.2202" y2="747.1356" gradientTransform="matrix(-1 0 0 1 -4349.5073 0)">
			<stop  offset="0" style="stop-color:#A737D5"/>
			<stop  offset="1" style="stop-color:#EF497A"/>
		</linearGradient>
		<path style="fill:url(#SVGID_00000014630436836160517920000002450780638166429588_);" d="M225.187,755.069h-5.337
			c-0.999,0-1.941-0.459-2.55-1.25c-1.664-2.162-5.111-6.379-6.759-6.49c-2.219-0.148-1.935,7.74-1.935,7.74h-1.244l-1.575-9.802
			c-0.396-2.466,0.83-4.909,3.045-6.065l0,0c0,0,0.507,3.751,3.257,5.41c2.75,1.659,11.191,7.601,11.191,7.601
			s1.034-0.147,2.169,0.058C227.133,752.575,226.898,755.069,225.187,755.069z"/>
		
			<linearGradient id="SVGID_00000000212159711248220790000016376985068377637550_" gradientUnits="userSpaceOnUse" x1="-2833.3154" y1="803.6215" x2="-2814.7358" y2="586.4749" gradientTransform="matrix(-1 0 0 1 -2649.5073 0)">
			<stop  offset="0" style="stop-color:#C4421B"/>
			<stop  offset="1" style="stop-color:#5C0E16"/>
		</linearGradient>
		<path style="fill:url(#SVGID_00000000212159711248220790000016376985068377637550_);" d="M196.149,678.854
			c0,0-22.169,42.053-25.693,51.654c-3.524,9.601-4.758,17.611-4.806,18.369c-0.074,1.185-1.548,2.322-5.611,2.322
			c-2.097,0-3.124-0.841-3.627-1.654c-0.429-0.694-0.451-1.563-0.09-2.294c1.282-2.595,5.352-10.889,6.859-14.651
			c1.799-4.491,5.67-24.845,7.793-31.922c2.123-7.077,4.523-14.753,13.767-21.824C184.742,678.854,191.088,672.638,196.149,678.854z
			"/>
		
			<linearGradient id="SVGID_00000009573388534682362510000003989225283678073261_" gradientUnits="userSpaceOnUse" x1="-4570.2202" y1="581.4699" x2="-4560.9326" y2="667.6395" gradientTransform="matrix(-1 0 0 1 -4349.5073 0)">
			<stop  offset="0" style="stop-color:#FDF53F"/>
			<stop  offset="1" style="stop-color:#D93C65"/>
		</linearGradient>
		<path style="fill:url(#SVGID_00000009573388534682362510000003989225283678073261_);" d="M210.154,609.948
			c5.719-24.232-8.768-37.938-8.768-37.938c9.141-8.774,25.796-12.767,25.796-12.767s15.892,11.619,14.007,20.713
			c-1.105,5.33-11.171,31.927-11.171,31.927S220.71,616.288,210.154,609.948z"/>
		
			<linearGradient id="SVGID_00000104696998093712915840000003287553382327348866_" gradientUnits="userSpaceOnUse" x1="-4519.0591" y1="585.7001" x2="-4565.498" y2="660.0022" gradientTransform="matrix(-1 0 0 1 -4349.5073 0)">
			<stop  offset="0" style="stop-color:#CB236D"/>
			<stop  offset="1" style="stop-color:#4C246D"/>
		</linearGradient>
		<path style="fill:url(#SVGID_00000104696998093712915840000003287553382327348866_);" d="M197.475,621.945
			c2.327-7.011,12.679-11.997,12.679-11.997c10.556,6.34,19.864,1.935,19.864,1.935s2.087,7.979,0.647,15.393
			c-1.441,7.415-10.48,55.067-10.48,55.067c-14.242,2.886-36.147-2.903-36.147-2.903
			C193.11,663.334,195.148,628.956,197.475,621.945z"/>
		
			<linearGradient id="SVGID_00000049205923570695046930000017752477102370653094_" gradientUnits="userSpaceOnUse" x1="-2872.7161" y1="586.4061" x2="-2869.2271" y2="560.8802" gradientTransform="matrix(-1 0 0 1 -2649.5073 0)">
			<stop  offset="0" style="stop-color:#C4421B"/>
			<stop  offset="1" style="stop-color:#5C0E16"/>
		</linearGradient>
		<path style="fill:url(#SVGID_00000049205923570695046930000017752477102370653094_);" d="M216.792,543.23l-4.649,20.884
			c-0.445,1.84,1.232,1.539,3.091,1.188c3.046-0.574,6.971-1.757,8.284-4.127c0.133-0.241,0.2-0.514,0.238-0.787l1.997-14.482
			c0.159-1.149-0.463-2.264-1.523-2.734l-3.855-1.709C218.891,540.805,217.174,541.652,216.792,543.23z"/>
		
			<linearGradient id="SVGID_00000072978490487531627810000008486791423161648044_" gradientUnits="userSpaceOnUse" x1="194.7807" y1="618.6765" x2="212.7808" y2="545.3431">
			<stop  offset="0" style="stop-color:#C4421B"/>
			<stop  offset="1" style="stop-color:#5C0E16"/>
		</linearGradient>
		<path style="fill:url(#SVGID_00000072978490487531627810000008486791423161648044_);" d="M201.385,572.01
			c0,0-32.45,23.217-4.15,47.612c0,0,1.079,1.221,3.202,1.855c1.072,0.32,4.242,2.719,5.849,3.97
			c0.517,0.402,1.263,0.265,1.611-0.29l0,0c0.272-0.435,0.304-0.978,0.085-1.442l-4.017-8.495c-1.116-1.041-2.823-1.115-4.025-0.174
			l0,0c-0.766,0.6-1.889,0.349-2.318-0.525c-2.188-4.456-6.319-17.56,10.589-32.368c0.636-0.557,0.796-1.477,0.406-2.227
			C207.43,577.645,204.713,573.113,201.385,572.01z"/>
		<g>
			
				<linearGradient id="SVGID_00000177469139441314797790000011049445852510514854_" gradientUnits="userSpaceOnUse" x1="-4581.5229" y1="553.4955" x2="-4551.0796" y2="499.317" gradientTransform="matrix(-1 0 0 1 -4349.5073 0)">
				<stop  offset="0" style="stop-color:#C4421B"/>
				<stop  offset="1" style="stop-color:#5C0E16"/>
			</linearGradient>
			<path style="fill:url(#SVGID_00000177469139441314797790000011049445852510514854_);" d="M222.247,523.346
				c0,0,5.506,2.325,9.251,10.282c3.744,7.957,0.948,11.631-2.564,12.135c-3.512,0.504-8.764,0.427-14.32-4.713
				C209.058,535.91,215.089,520.589,222.247,523.346z"/>
			
				<linearGradient id="SVGID_00000065071581880192645750000004682218320374006956_" gradientUnits="userSpaceOnUse" x1="-4574.9761" y1="506.3145" x2="-4559.7544" y2="544.4973" gradientTransform="matrix(-1 0 0 1 -4349.5073 0)">
				<stop  offset="0" style="stop-color:#2B3582"/>
				<stop  offset="1" style="stop-color:#150E42"/>
			</linearGradient>
			<path style="fill:url(#SVGID_00000065071581880192645750000004682218320374006956_);" d="M218.348,536.802
				c0,0-4.154-11.641,6.167-11.779l2.429,1.698c0,0,3.787-6.454-2.429-9.535c-6.215-3.081-13.49-0.536-16.135,7.838
				c-2.645,8.374-3.097,13.98,1.304,17.986c4.401,4.006,6.214-0.536,6.214-0.536s-2.396-3.747-1.421-5.752
				c0.975-2.005,3.226,0.415,3.226,0.415L218.348,536.802z"/>
			
				<linearGradient id="SVGID_00000155123719722859562520000014983740409732043186_" gradientUnits="userSpaceOnUse" x1="-4575.0425" y1="557.1368" x2="-4544.5996" y2="502.9582" gradientTransform="matrix(-1 0 0 1 -4349.5073 0)">
				<stop  offset="0" style="stop-color:#C4421B"/>
				<stop  offset="1" style="stop-color:#5C0E16"/>
			</linearGradient>
			<path style="fill:url(#SVGID_00000155123719722859562520000014983740409732043186_);" d="M217.191,538.099
				c0,0-2.1-5.997-4.903-3.609c-2.802,2.388,2.277,5.539,4.266,6.56L217.191,538.099z"/>
		</g>
		<g>
			
				<linearGradient id="SVGID_00000167381755829085421960000001730751592136010369_" gradientUnits="userSpaceOnUse" x1="-4608.7437" y1="529.5437" x2="-4580.6226" y2="593.5258" gradientTransform="matrix(-1 0 0 1 -4349.5073 0)">
				<stop  offset="0" style="stop-color:#C4421B"/>
				<stop  offset="1" style="stop-color:#5C0E16"/>
			</linearGradient>
			<path style="fill:url(#SVGID_00000167381755829085421960000001730751592136010369_);" d="M268.055,514.253
				c0.223,0.708-2.356,1.786-3.875-1.11c-0.053-1.388-0.897-7.334-0.068-8.465c4.417-6.022,12.981-13.571,12.981-13.571
				c1.447,1.428,0.255,2.831,0.255,2.831l-4.154,4.328c0.869,1.57,1.929,2.896,2.426,4.795c0.376,1.438,0.146,2.976-0.581,4.285
				c-0.729,1.314-1.724,3.021-2.665,4.358C270.594,514.234,268.055,514.253,268.055,514.253z"/>
			
				<linearGradient id="SVGID_00000158720453128495513760000012100560355675467665_" gradientUnits="userSpaceOnUse" x1="-4622.2222" y1="505.8945" x2="-4615.4409" y2="505.8945" gradientTransform="matrix(-1 0 0 1 -4349.5073 0)">
				<stop  offset="0" style="stop-color:#C4421B"/>
				<stop  offset="1" style="stop-color:#5C0E16"/>
			</linearGradient>
			<path style="fill:url(#SVGID_00000158720453128495513760000012100560355675467665_);" d="M270.27,511.311l-0.984-0.176
				c0.118-0.659,1.177-6.475,2.045-7.886c0.313-0.51,0.438-0.926,0.361-1.202c-0.036-0.128-0.124-0.247-0.267-0.357l-3.41,2.891
				l-1.143,3.073l-0.938-0.349l1.235-3.318l4.139-3.509l0.297,0.151c0.572,0.292,0.915,0.668,1.05,1.148
				c0.159,0.567,0.005,1.22-0.472,1.996C271.531,504.832,270.581,509.574,270.27,511.311z"/>
		</g>
		<path style="opacity:0.71;fill:#FFFFFF;" d="M148.519,607.633c-4.396,0-8.902-3.103-10.569-7.632
			c-1.753-4.766-0.614-10.606,2.974-15.242c2.882-3.724,7.304-6.768,13.144-9.046c3.232-1.262,6.627-2.216,9.911-3.138
			c1.798-0.505,3.658-1.028,5.468-1.594c4.276-1.338,8.998-3.238,11.601-7.182c1.599-2.421,2.206-5.359,2.793-8.201
			c0.132-0.64,0.265-1.279,0.407-1.912c0.66-2.927,1.92-7.059,5.225-9.144c1.497-0.945,3.254-1.36,4.952-1.761
			c0.549-0.129,1.117-0.263,1.665-0.413c2.833-0.773,4.668-2.039,5.456-3.763c0.028-0.063,0.104-0.09,0.165-0.062
			c0.063,0.029,0.091,0.103,0.062,0.166c-0.82,1.795-2.71,3.107-5.618,3.901c-0.552,0.151-1.122,0.285-1.673,0.416
			c-1.679,0.396-3.415,0.806-4.876,1.728c-3.226,2.037-4.464,6.105-5.114,8.988c-0.143,0.631-0.274,1.269-0.406,1.908
			c-0.592,2.865-1.204,5.827-2.829,8.288c-2.646,4.009-7.417,5.931-11.736,7.283c-1.814,0.568-3.675,1.091-5.475,1.597
			c-3.278,0.921-6.667,1.873-9.888,3.13c-5.797,2.263-10.183,5.28-13.038,8.967c-3.536,4.568-4.661,10.316-2.937,15.002
			c1.92,5.215,7.682,8.501,12.582,7.174c0.068-0.018,0.136,0.022,0.153,0.088c0.018,0.067-0.021,0.135-0.088,0.153
			C150.076,607.536,149.299,607.633,148.519,607.633z"/>
		<path style="opacity:0.71;fill:#FFFFFF;" d="M147.474,603.323c-0.006,0-0.013,0-0.02-0.001c-2.126-0.345-4.004-2.21-4.567-4.536
			c-0.491-2.031-0.084-4.342,1.148-6.509c2.506-4.408,7.687-7.318,15.399-8.65c1.401-0.242,2.844-0.444,4.238-0.639
			c4.544-0.636,9.243-1.294,13.316-3.454c4.371-2.318,7.798-6.332,9.402-11.012c0.797-2.324,1.156-4.808,1.503-7.209
			c0.204-1.412,0.415-2.872,0.713-4.291c1.009-4.796,2.99-8.124,5.887-9.891c0.059-0.034,0.135-0.017,0.172,0.042
			c0.036,0.059,0.017,0.136-0.042,0.172c-2.836,1.73-4.778,5.003-5.772,9.729c-0.297,1.41-0.507,2.866-0.711,4.275
			c-0.349,2.413-0.71,4.908-1.514,7.255c-1.625,4.739-5.095,8.804-9.521,11.152c-4.112,2.181-8.833,2.842-13.398,3.481
			c-1.393,0.195-2.833,0.396-4.23,0.638c-7.636,1.319-12.758,4.188-15.225,8.528c-1.2,2.111-1.599,4.358-1.122,6.327
			c0.54,2.231,2.335,4.019,4.364,4.348c0.068,0.011,0.114,0.075,0.104,0.144C147.587,603.28,147.535,603.323,147.474,603.323z"/>
	</g>
	<g>
		
			<linearGradient id="SVGID_00000093865839715902381340000014559882788077834387_" gradientUnits="userSpaceOnUse" x1="889.8539" y1="571.2167" x2="904.121" y2="602.3379">
			<stop  offset="0" style="stop-color:#FDF53F"/>
			<stop  offset="1" style="stop-color:#D93C65"/>
		</linearGradient>
		<path style="fill:url(#SVGID_00000093865839715902381340000014559882788077834387_);" d="M899,563c0,0-25.125,28-9,28
			c1,0,14,0,14,0L899,563z"/>
		
			<linearGradient id="SVGID_00000040560679915332886370000015985696623746656437_" gradientUnits="userSpaceOnUse" x1="-1015.9752" y1="734.103" x2="-1098.3213" y2="823.6725" gradientTransform="matrix(-1 0 0 1 -131.3735 0)">
			<stop  offset="0" style="stop-color:#CB236D"/>
			<stop  offset="1" style="stop-color:#4C246D"/>
		</linearGradient>
		<path style="fill:url(#SVGID_00000040560679915332886370000015985696623746656437_);" d="M910.631,740.775
			c0,0,0.853,4.828,1.271,9.607c0.163,1.868-1.276,3.49-3.15,3.567c-6.364,0.265-19.978,0.781-24.863,0.563
			c-0.734-0.033-1.214-0.785-0.943-1.468l0,0c0.228-0.572,0.667-1.035,1.227-1.292l22.487-10.335L910.631,740.775z"/>
		
			<linearGradient id="SVGID_00000155834965651547538800000000408899727183304329_" gradientUnits="userSpaceOnUse" x1="-1042.7034" y1="740.7555" x2="-1035.3892" y2="740.7555" gradientTransform="matrix(-1 0 0 1 -131.3735 0)">
			<stop  offset="0" style="stop-color:#F9B776"/>
			<stop  offset="1" style="stop-color:#F47960"/>
		</linearGradient>
		<path style="fill:url(#SVGID_00000155834965651547538800000000408899727183304329_);" d="M911.33,737.939l-0.685,5.775
			c0,0-3.939,1.834-6.629-0.231l1.631-6.435L911.33,737.939z"/>
		
			<linearGradient id="SVGID_00000078734768504503376920000006415363923163895224_" gradientUnits="userSpaceOnUse" x1="-1023.0102" y1="738.4706" x2="-1068.7091" y2="617.5302" gradientTransform="matrix(-1 0 0 1 -131.3735 0)">
			<stop  offset="0" style="stop-color:#2B3582"/>
			<stop  offset="1" style="stop-color:#150E42"/>
		</linearGradient>
		<path style="fill:url(#SVGID_00000078734768504503376920000006415363923163895224_);" d="M910.815,629.372
			c0.296,1.508,1.589,75.255-6.294,108.303c-0.129,0.539,0.145,1.095,0.658,1.305c1.209,0.494,3.579,1.209,6.42,1.305
			c0.88,0.03,1.668-0.542,1.917-1.387c2.253-7.668,13.051-46.085,14.459-82.784c1.574-41.008,0-1.396,0-1.396l-0.923-25.348
			L910.815,629.372z"/>
		
			<linearGradient id="SVGID_00000119816036187811284130000001827684170421013933_" gradientUnits="userSpaceOnUse" x1="-1034.4481" y1="717.1198" x2="-1116.7942" y2="806.6893" gradientTransform="matrix(-1 0 0 1 -131.3735 0)">
			<stop  offset="0" style="stop-color:#CB236D"/>
			<stop  offset="1" style="stop-color:#4C246D"/>
		</linearGradient>
		<path style="fill:url(#SVGID_00000119816036187811284130000001827684170421013933_);" d="M936.499,743.294
			c0,0,1.358,2.437,2.672,8.913c0.237,1.17-0.58,2.289-1.768,2.406c-2.101,0.207-5.337,0.472-7.928,0.454
			c-1.195-0.008-2.127-1.048-1.983-2.234c0.287-2.364,1.181-6.242,3.944-9.265L936.499,743.294z"/>
		
			<linearGradient id="SVGID_00000142174920616196061420000011564706565816178072_" gradientUnits="userSpaceOnUse" x1="-1069.0645" y1="740.3804" x2="-1062.7491" y2="740.3804" gradientTransform="matrix(-1 0 0 1 -131.3735 0)">
			<stop  offset="0" style="stop-color:#F9B776"/>
			<stop  offset="1" style="stop-color:#F47960"/>
		</linearGradient>
		<path style="fill:url(#SVGID_00000142174920616196061420000011564706565816178072_);" d="M937.691,735.866l-1.601,8.733
			c0,0-1.583,1.177-4.714,0.324l0.764-9.396L937.691,735.866z"/>
		
			<linearGradient id="SVGID_00000041283812949536304330000003616701960384105135_" gradientUnits="userSpaceOnUse" x1="-1075.8713" y1="684.0359" x2="-1041.5365" y2="684.0359" gradientTransform="matrix(-1 0 0 1 -131.3735 0)">
			<stop  offset="0" style="stop-color:#2B3582"/>
			<stop  offset="1" style="stop-color:#150E42"/>
		</linearGradient>
		<path style="fill:url(#SVGID_00000041283812949536304330000003616701960384105135_);" d="M942.016,631.635
			c6.447,38.909-1.398,96.168-4.045,107.374c-0.162,0.686-0.716,1.212-1.411,1.327c-1.181,0.196-3.126,0.356-5.043-0.201
			c-0.66-0.192-1.125-0.788-1.151-1.475c-0.355-9.06,0.284-64.682-5.723-86.664c-0.305-1.114-0.985-2.085-1.926-2.755l-11.66-8.289
			l-0.894-13.399L942.016,631.635z"/>
		<g>
			
				<linearGradient id="SVGID_00000023261565193400382510000011216966455734090885_" gradientUnits="userSpaceOnUse" x1="912.842" y1="568.9116" x2="956.3303" y2="663.7736">
				<stop  offset="0" style="stop-color:#FDF53F"/>
				<stop  offset="1" style="stop-color:#D93C65"/>
			</linearGradient>
			<path style="fill:url(#SVGID_00000023261565193400382510000011216966455734090885_);" d="M899,563
				c19-6,42.574-0.017,42.574-0.017c5.759,33.605,1.007,72.365,1.007,72.365c-14.958,3.923-31.831-2.398-31.831-2.398
				C908.264,618.904,893.317,564.795,899,563z"/>
		</g>
		
			<linearGradient id="SVGID_00000094576573133442600790000006380894178732535431_" gradientUnits="userSpaceOnUse" x1="934.5887" y1="555.2383" x2="980.0885" y2="654.4882">
			<stop  offset="0" style="stop-color:#FDF53F"/>
			<stop  offset="1" style="stop-color:#D93C65"/>
		</linearGradient>
		<path style="fill:url(#SVGID_00000094576573133442600790000006380894178732535431_);" d="M934.163,581.691l7.411-18.708
			c0,0,18.047,12.262,21.015,27.809c-3.41,0.251-9.615,1.138-15.688,4.205C945.565,587.656,934.163,581.691,934.163,581.691z"/>
		
			<linearGradient id="SVGID_00000089546052847182933010000008456506128068961965_" gradientUnits="userSpaceOnUse" x1="-1094.3734" y1="602.8629" x2="-1047.0842" y2="602.8629" gradientTransform="matrix(-1 0 0 1 -131.3735 0)">
			<stop  offset="0" style="stop-color:#F9B776"/>
			<stop  offset="1" style="stop-color:#F47960"/>
		</linearGradient>
		<path style="fill:url(#SVGID_00000089546052847182933010000008456506128068961965_);" d="M918.392,599.295
			c0,0,20.262,11.451,27.099,1.673c1.419-2.03,1.759-4.048,1.409-5.972c6.073-3.067,12.279-3.953,15.688-4.205
			c0.895,4.687,0.422,9.672-2.332,14.71c-11.976,21.907-44.545-1.211-44.545-1.211L918.392,599.295z"/>
		<g>
			
				<linearGradient id="SVGID_00000013180280968379974490000012663393287419392161_" gradientUnits="userSpaceOnUse" x1="-1032.7773" y1="569.2415" x2="-1006.7747" y2="677.5865" gradientTransform="matrix(-1 0 0 1 -131.3735 0)">
				<stop  offset="0" style="stop-color:#9CFFFB"/>
				<stop  offset="1" style="stop-color:#9BFFFA"/>
			</linearGradient>
			<path style="fill:url(#SVGID_00000013180280968379974490000012663393287419392161_);" d="M920.827,613.782l-11.058-38.618
				c-0.125-0.438-0.499-0.758-0.952-0.811c-2.004-0.234-7.809-0.89-14.512-1.457c-8.074-0.683-17.451-1.236-23.054-0.766
				c-0.797,0.067-1.278,0.909-0.924,1.626c3.186,6.446,16.292,32.668,22.856,41.258c0.217,0.285,0.554,0.451,0.912,0.447
				l25.657-0.239C920.497,615.216,921.032,614.5,920.827,613.782z"/>
			
				<linearGradient id="SVGID_00000108302270549500312540000009061417627561806496_" gradientUnits="userSpaceOnUse" x1="-1016.4973" y1="552.1635" x2="-1022.0352" y2="576.4819" gradientTransform="matrix(-1 0 0 1 -131.3735 0)">
				<stop  offset="0" style="stop-color:#53D8FF"/>
				<stop  offset="1" style="stop-color:#3840F7"/>
			</linearGradient>
			<path style="fill:url(#SVGID_00000108302270549500312540000009061417627561806496_);" d="M893.157,569.548l-8.017-1.336
				c-0.427-0.071-0.777,0.337-0.641,0.748l0.794,2.405c0.069,0.209,0.252,0.361,0.47,0.39l7.715,1.031
				c0.399,0.053,0.728-0.309,0.636-0.701l-0.491-2.1C893.569,569.758,893.386,569.586,893.157,569.548z"/>
			
				<linearGradient id="SVGID_00000026852729024935430040000015170897197455801997_" gradientUnits="userSpaceOnUse" x1="-1019.3955" y1="562.3643" x2="-1022.044" y2="578.2557" gradientTransform="matrix(-1 0 0 1 -131.3735 0)">
				<stop  offset="0" style="stop-color:#53D8FF"/>
				<stop  offset="1" style="stop-color:#3840F7"/>
			</linearGradient>
			<path style="fill:url(#SVGID_00000026852729024935430040000015170897197455801997_);" d="M899.16,576.336l-0.66-3.44
				c-0.066-0.345-0.351-0.606-0.701-0.641l-16.193-1.643c-0.545-0.055-0.982,0.444-0.854,0.977l1.029,4.287
				c0.082,0.343,0.381,0.591,0.733,0.609l15.824,0.797C898.854,577.306,899.257,576.842,899.16,576.336z"/>
			
				<linearGradient id="SVGID_00000183931446036925657760000002707867347594151070_" gradientUnits="userSpaceOnUse" x1="-1050.5951" y1="597.9046" x2="-1035.8625" y2="597.9046" gradientTransform="matrix(-1 0 0 1 -131.3735 0)">
				<stop  offset="0" style="stop-color:#F9B776"/>
				<stop  offset="1" style="stop-color:#F47960"/>
			</linearGradient>
			<path style="fill:url(#SVGID_00000183931446036925657760000002707867347594151070_);" d="M918.155,604.452
				c0,0,1.54-6.334,0.919-8.581c-0.621-2.247-1.825-5.137-5.838-4.495c-4.013,0.642-8.747,2.333-8.747,2.333
				s0.239,2.927,3.289,1.983l-1.891,1.463c0,0,0.27,2.344,2.846,1.092l-1.759,1.941c0,0,1.106,1.925,3.002,0.69
				C911.871,599.643,912.78,605.215,918.155,604.452z"/>
			
				<linearGradient id="SVGID_00000094609385198096958840000017362235757188535977_" gradientUnits="userSpaceOnUse" x1="-910.2709" y1="681.4447" x2="-895.5382" y2="681.4447" gradientTransform="matrix(0.549 -0.8358 0.8358 0.549 804.9985 -540.8562)">
				<stop  offset="0" style="stop-color:#F9B776"/>
				<stop  offset="1" style="stop-color:#F47960"/>
			</linearGradient>
			<path style="fill:url(#SVGID_00000094609385198096958840000017362235757188535977_);" d="M880.869,596.764
				c0,0-6.14-2.19-7.677-3.943c-1.537-1.753-3.291-4.346-0.551-7.347c2.74-3.002,6.752-6.03,6.752-6.03s2.315,1.807-0.148,3.838
				l2.261-0.777c0,0,1.81,1.513-0.65,2.978l2.588-0.405c0,0,1.002,1.981-1.071,2.888
				C880.299,588.872,884.458,592.69,880.869,596.764z"/>
		</g>
		
			<linearGradient id="SVGID_00000035532196178946986290000003191013302136695708_" gradientUnits="userSpaceOnUse" x1="-1059.0618" y1="556.0835" x2="-1040.3652" y2="556.0835" gradientTransform="matrix(-1 0 0 1 -131.3735 0)">
			<stop  offset="0" style="stop-color:#F9B776"/>
			<stop  offset="1" style="stop-color:#F47960"/>
		</linearGradient>
		<path style="fill:url(#SVGID_00000035532196178946986290000003191013302136695708_);" d="M921.505,546l6.148,17.779
			c0.102,0.295-0.019,0.621-0.292,0.771c-1.676,0.927-7.713,3.605-14.989-1.008c-0.758-0.481-1.274-1.264-1.389-2.154L908.992,546
			H921.505z"/>
		<g>
			
				<linearGradient id="SVGID_00000038378762538937797960000018018757279071853463_" gradientUnits="userSpaceOnUse" x1="-6782.2422" y1="-2632.2505" x2="-6789.229" y2="-2655.2944" gradientTransform="matrix(-0.746 -0.6659 -0.6659 0.746 -5907.8232 -2008.4471)">
				<stop  offset="0" style="stop-color:#F9B776"/>
				<stop  offset="1" style="stop-color:#F47960"/>
			</linearGradient>
			<path style="fill:url(#SVGID_00000038378762538937797960000018018757279071853463_);" d="M908.128,529.536
				c0,0-6.751,12.708-5.885,17.841c0.865,5.133,9.232,4.765,16.538,0.596l5.105-13.721L908.128,529.536z"/>
			
				<linearGradient id="SVGID_00000165924385893409362480000002577707343796526497_" gradientUnits="userSpaceOnUse" x1="-6788.5454" y1="-2672.4011" x2="-6782.7012" y2="-2639.0667" gradientTransform="matrix(-0.746 -0.6659 -0.6659 0.746 -5907.8232 -2008.4471)">
				<stop  offset="0" style="stop-color:#2B3582"/>
				<stop  offset="1" style="stop-color:#150E42"/>
			</linearGradient>
			<path style="fill:url(#SVGID_00000165924385893409362480000002577707343796526497_);" d="M918.458,541.234
				c-0.297-0.131-0.406-0.495-0.229-0.767c0.541-0.826,1.555-2.512,1.878-3.988c0,0,1.214-0.777-3.089-1.807
				c-4.302-1.03-10.718-2.628-12.067-6.29c-1.315-3.57,2.14-12.55,7.651-5.395c0.21,0.272,0.62,0.278,0.83,0.006
				c0.904-1.176,3.279-3.617,6.577-2.137c3.086,1.385,3.434,3.646,3.391,4.786c-0.013,0.335,0.287,0.596,0.617,0.533
				c1.561-0.298,5.305-0.553,7.053,3.288c1.44,3.164,0.504,4.955-0.348,5.831c-0.276,0.284-0.155,0.751,0.223,0.867
				c1.026,0.314,2.35,1.183,2.217,3.586c-0.183,3.322-3.897,3.029-4.954,2.878c-0.173-0.025-0.348,0.035-0.465,0.164
				c-0.907,1.003-4.991,5.263-9.412,5.777c-0.383,0.044-0.68-0.333-0.554-0.698l1.913-5.561c0.089-0.258-0.035-0.542-0.284-0.652
				L918.458,541.234z"/>
			
				<linearGradient id="SVGID_00000074401488603819397200000001751367912580110504_" gradientUnits="userSpaceOnUse" x1="-6789.3843" y1="-2632.3577" x2="-6795.6704" y2="-2653.0906" gradientTransform="matrix(-0.746 -0.6659 -0.6659 0.746 -5907.8232 -2008.4471)">
				<stop  offset="0" style="stop-color:#F9B776"/>
				<stop  offset="1" style="stop-color:#F47960"/>
			</linearGradient>
			<path style="fill:url(#SVGID_00000074401488603819397200000001751367912580110504_);" d="M917.689,542.024
				c0,0,4.806-3.298,5.158-0.521c0.351,2.777-4.328,4.023-6.646,2.987L917.689,542.024z"/>
		</g>
	</g>
</g>
</svg>
