<svg width="285" height="56" viewBox="0 0 285 56" fill="none" xmlns="http://www.w3.org/2000/svg">
<path d="M32.987 55.98C31.0203 55.98 29.27 55.5867 27.736 54.8C26.2413 54.0527 25.0613 52.9317 24.196 51.437C23.3307 49.9423 22.898 48.1527 22.898 46.068C22.898 45.5567 22.9177 45.0257 22.957 44.475C22.9963 43.9637 23.0553 43.4327 23.134 42.882C19.9087 43.0787 16.9193 42.705 14.166 41.761C11.4127 40.817 9.01333 39.4207 6.968 37.572C4.92267 35.684 3.32967 33.4223 2.189 30.787C1.04833 28.1123 0.478 25.182 0.478 21.996C0.478 19.0853 0.969667 16.3713 1.953 13.854C2.93633 11.2973 4.35233 9.05533 6.201 7.128C8.04967 5.20067 10.272 3.706 12.868 2.644C15.5033 1.54267 18.414 0.991999 21.6 0.991999C24.786 0.991999 27.677 1.523 30.273 2.585C32.869 3.647 35.0913 5.14166 36.94 7.069C38.7887 8.957 40.2047 11.14 41.188 13.618C42.2107 16.096 42.722 18.7707 42.722 21.642V45.419C42.722 47.543 42.3287 49.3917 41.542 50.965C40.7553 52.5777 39.6343 53.8167 38.179 54.682C36.763 55.5473 35.0323 55.98 32.987 55.98ZM32.633 50.906C33.931 50.906 34.993 50.434 35.819 49.49C36.645 48.5853 37.058 47.2677 37.058 45.537V31.495C35.3273 32.5177 33.8917 33.619 32.751 34.799C31.6103 35.9397 30.7057 37.1197 30.037 38.339C29.4077 39.519 28.9553 40.7187 28.68 41.938C28.4047 43.118 28.267 44.298 28.267 45.478C28.267 46.6187 28.4637 47.5823 28.857 48.369C29.2897 49.195 29.8403 49.8243 30.509 50.257C31.1777 50.6897 31.8857 50.906 32.633 50.906ZM21.6 38.044C22.2293 38.044 22.8193 38.0243 23.37 37.985C23.9207 37.9063 24.5107 37.7883 25.14 37.631C25.6907 36.2937 26.4577 34.9367 27.441 33.56C28.4637 32.1833 29.742 30.8263 31.276 29.489C32.8493 28.1123 34.7767 26.834 37.058 25.654V21.642C37.058 19.4 36.6647 17.335 35.878 15.447C35.1307 13.5197 34.049 11.8677 32.633 10.491C31.2563 9.075 29.624 7.97367 27.736 7.187C25.848 6.361 23.8027 5.948 21.6 5.948C19.358 5.948 17.293 6.361 15.405 7.187C13.5563 7.97367 11.924 9.09467 10.508 10.55C9.13133 12.0053 8.04967 13.7163 7.263 15.683C6.51567 17.6103 6.142 19.7147 6.142 21.996C6.142 24.2773 6.51567 26.4013 7.263 28.368C8.04967 30.2953 9.13133 31.9867 10.508 33.442C11.924 34.8973 13.5563 36.038 15.405 36.864C17.293 37.6507 19.358 38.044 21.6 38.044ZM61.4997 43C59.2577 43 57.3107 42.528 55.6587 41.584C54.046 40.6007 52.7873 39.283 51.8827 37.631C51.0173 35.9397 50.5847 34.0517 50.5847 31.967V1.7H56.2487V32.675C56.2487 34.209 56.7207 35.4873 57.6647 36.51C58.648 37.4933 59.9263 37.985 61.4997 37.985H72.5917V43H61.4997ZM98.2968 43.767C95.0321 43.767 92.0821 43.2163 89.4468 42.115C86.8114 40.9743 84.5498 39.4207 82.6618 37.454C80.8131 35.4873 79.3774 33.206 78.3548 30.61C77.3321 28.014 76.8208 25.241 76.8208 22.291C76.8208 19.3803 77.3321 16.627 78.3548 14.031C79.3774 11.435 80.8131 9.15366 82.6618 7.187C84.5498 5.22033 86.8114 3.68633 89.4468 2.585C92.0821 1.48366 95.0321 0.932997 98.2968 0.932997C101.561 0.932997 104.511 1.48366 107.147 2.585C109.782 3.68633 112.024 5.22033 113.873 7.187C115.761 9.15366 117.216 11.435 118.239 14.031C119.261 16.627 119.773 19.4 119.773 22.35C119.773 25.2607 119.261 28.014 118.239 30.61C117.216 33.206 115.761 35.4873 113.873 37.454C112.024 39.4207 109.782 40.9743 107.147 42.115C104.511 43.2163 101.561 43.767 98.2968 43.767ZM98.2968 38.752C100.539 38.752 102.623 38.339 104.551 37.513C106.478 36.687 108.15 35.5267 109.566 34.032C111.021 32.5373 112.142 30.8067 112.929 28.84C113.715 26.834 114.109 24.651 114.109 22.291C114.109 19.9703 113.715 17.807 112.929 15.801C112.142 13.795 111.041 12.0643 109.625 10.609C108.209 9.11433 106.517 7.97367 104.551 7.187C102.623 6.361 100.539 5.948 98.2968 5.948C96.0154 5.948 93.9111 6.361 91.9838 7.187C90.0564 7.97367 88.3848 9.11433 86.9688 10.609C85.5528 12.0643 84.4514 13.795 83.6648 15.801C82.8781 17.807 82.4848 19.99 82.4848 22.35C82.4848 24.6707 82.8781 26.834 83.6648 28.84C84.4514 30.8067 85.5528 32.5373 86.9688 34.032C88.3848 35.5267 90.0564 36.687 91.9838 37.513C93.9111 38.339 96.0154 38.752 98.2968 38.752ZM142.106 43.708C139.038 43.708 136.304 43.0787 133.905 41.82C131.545 40.522 129.696 38.693 128.359 36.333C127.021 33.9337 126.353 31.1017 126.353 27.837V1.7H132.017V28.191C132.017 30.1183 132.41 31.8883 133.197 33.501C134.023 35.0743 135.183 36.3527 136.678 37.336C138.212 38.28 140.021 38.752 142.106 38.752C144.151 38.752 145.921 38.28 147.416 37.336C148.95 36.3527 150.13 35.0743 150.956 33.501C151.782 31.8883 152.195 30.1183 152.195 28.191V1.7H157.859V28.191C157.859 30.1183 158.252 31.8883 159.039 33.501C159.865 35.0743 161.025 36.3527 162.52 37.336C164.054 38.28 165.863 38.752 167.948 38.752C169.993 38.752 171.763 38.28 173.258 37.336C174.792 36.3527 175.952 35.0743 176.739 33.501C177.565 31.8883 177.978 30.1183 177.978 28.191V1.7H183.642V27.837C183.642 31.1017 182.973 33.9337 181.636 36.333C180.298 38.693 178.45 40.522 176.09 41.82C173.73 43.0787 171.016 43.708 167.948 43.708C166.099 43.708 164.329 43.4523 162.638 42.941C160.986 42.3903 159.511 41.5643 158.213 40.463C156.915 39.3223 155.853 37.926 155.027 36.274C154.24 37.926 153.178 39.3027 151.841 40.404C150.503 41.5053 148.989 42.3313 147.298 42.882C145.646 43.4327 143.915 43.708 142.106 43.708ZM190.859 43V37.985H198.824V6.715H190.859V1.7H212.394V6.715H204.488V37.985H212.394V43H190.859ZM219.518 43V12.438C219.518 10.3533 219.971 8.50466 220.875 6.892C221.819 5.27933 223.098 4.02066 224.71 3.116C226.362 2.172 228.211 1.7 230.256 1.7H244.947V6.715H230.905C229.175 6.715 227.778 7.26567 226.716 8.367C225.694 9.429 225.182 10.786 225.182 12.438V20.816H242.764V25.831H225.182V43H219.518ZM264.839 43V31.023C261.968 30.6297 259.529 29.7053 257.523 28.25C255.517 26.7553 253.983 24.828 252.921 22.468C251.859 20.108 251.328 17.453 251.328 14.503V1.7H256.992V14.975C256.992 17.0203 257.405 18.9083 258.231 20.639C259.097 22.3303 260.316 23.707 261.889 24.769C263.502 25.7917 265.449 26.303 267.73 26.303C270.012 26.303 271.939 25.7917 273.512 24.769C275.125 23.707 276.344 22.3303 277.17 20.639C277.996 18.9083 278.409 17.0203 278.409 14.975V1.7H284.073V14.503C284.073 17.453 283.542 20.108 282.48 22.468C281.418 24.828 279.865 26.7553 277.819 28.25C275.813 29.7447 273.375 30.669 270.503 31.023V43H264.839Z" fill="white"/>
</svg>
