<?xml version="1.0" encoding="utf-8"?>
<!-- Generator: Adobe Illustrator 27.5.0, SVG Export Plug-In . SVG Version: 6.00 Build 0)  -->
<svg version="1.1" xmlns="http://www.w3.org/2000/svg" xmlns:xlink="http://www.w3.org/1999/xlink" x="0px" y="0px"
	 viewBox="0 0 500 500" style="enable-background:new 0 0 500 500;" xml:space="preserve">
<g id="BACKGROUND">
	<rect style="fill:#FFF5F2;" width="500" height="500"/>
</g>
<g id="OBJECTS">
	<path style="fill:#FFEDE9;" d="M190.24,62.862c-29.977,17.265-52.354,44.869-73.946,71.895
		c-15.798,19.774-31.686,39.768-42.926,62.445s-17.622,48.547-13.225,73.472c5.459,30.943,27.049,57.205,53.002,74.918
		c25.952,17.714,56.153,27.998,86.116,37.457c40.93,12.921,83.58,24.821,126.212,19.846c42.632-4.975,85.566-30.766,98.291-71.757
		c11.346-36.55-2.952-75.746-18.748-110.605c-15.426-34.044-32.483-67.348-51.094-99.761c-8.11-14.124-16.614-28.212-27.885-39.97
		c-25.026-26.107-69.545-38.608-104.485-30.369C210.589,53.019,199.998,57.242,190.24,62.862z"/>
	<g>
		<g>
			<g>
				<rect x="271.758" y="133.517" style="fill:none;stroke:#FA9579;stroke-miterlimit:10;" width="78.855" height="158.378"/>
				<rect x="276.061" y="137.89" style="fill:none;stroke:#FA9579;stroke-miterlimit:10;" width="70.248" height="149.631"/>
				<rect x="284.082" y="146.701" style="fill:none;stroke:#FA9579;stroke-miterlimit:10;" width="54.206" height="132.009"/>
			</g>
			<g>
				<rect x="361.28" y="133.517" style="fill:none;stroke:#FA9579;stroke-miterlimit:10;" width="78.855" height="58.682"/>
				<rect x="365.583" y="137.89" style="fill:none;stroke:#FA9579;stroke-miterlimit:10;" width="70.248" height="49.935"/>
				<rect x="373.604" y="146.701" style="fill:none;stroke:#FA9579;stroke-miterlimit:10;" width="54.206" height="32.314"/>
			</g>
			<g>
				<rect x="361.28" y="201.952" style="fill:none;stroke:#FA9579;stroke-miterlimit:10;" width="78.855" height="89.942"/>
				<rect x="365.583" y="206.325" style="fill:none;stroke:#FA9579;stroke-miterlimit:10;" width="70.248" height="81.196"/>
				<rect x="373.604" y="215.136" style="fill:none;stroke:#FA9579;stroke-miterlimit:10;" width="54.206" height="63.574"/>
			</g>
		</g>
		<g>
			<rect x="68.514" y="328.025" style="fill:none;stroke:#FA9579;stroke-miterlimit:10;" width="99.404" height="114.213"/>
			<rect x="73.365" y="333.727" style="fill:none;stroke:#FA9579;stroke-miterlimit:10;" width="89.702" height="40.851"/>
			<rect x="73.365" y="379.939" style="fill:none;stroke:#FA9579;stroke-miterlimit:10;" width="89.702" height="40.851"/>
			<rect x="99.663" y="398.833" style="fill:#FA9579;" width="37.106" height="3.064"/>
			<rect x="99.663" y="352.62" style="fill:#FA9579;" width="37.106" height="3.064"/>
			<rect x="69.195" y="442.237" style="fill:#FA9579;" width="6.979" height="13.277"/>
			<rect x="160.259" y="442.237" style="fill:#FA9579;" width="6.979" height="13.277"/>
		</g>
	</g>
	<g>
		<g>
			<rect x="117.325" y="76.568" style="fill:#FAD5CB;" width="75.425" height="30.638"/>
			<rect x="117.325" y="70.312" style="fill:#FAC5B6;" width="75.425" height="6.255"/>
			<rect x="132.755" y="83.717" style="fill:#FAC5B6;" width="55.572" height="1.021"/>
			<rect x="121.749" y="87.036" style="fill:#FAC5B6;" width="66.577" height="1.021"/>
			<rect x="121.749" y="90.355" style="fill:#FAC5B6;" width="66.577" height="1.021"/>
			<rect x="121.749" y="93.674" style="fill:#FAC5B6;" width="66.577" height="1.021"/>
			<rect x="121.749" y="96.993" style="fill:#FAC5B6;" width="66.577" height="1.021"/>
		</g>
		<g>
			<rect x="217.741" y="225.987" style="fill:#FAD5CB;" width="95.489" height="49.702"/>
			<rect x="217.741" y="218.157" style="fill:#FAC5B6;" width="95.489" height="7.83"/>
			
				<ellipse transform="matrix(0.7071 -0.7071 0.7071 0.7071 -107.2245 241.3241)" style="fill:#FAC5B6;" cx="237.692" cy="250.093" rx="15.34" ry="15.34"/>
			<g>
				<rect x="261.879" y="240.651" style="fill:#FAC5B6;" width="45.997" height="1.586"/>
				<rect x="280.9" y="234.753" style="fill:#FAC5B6;" width="26.976" height="1.586"/>
				<rect x="261.879" y="246.45" style="fill:#FAC5B6;" width="45.997" height="1.586"/>
				<rect x="261.879" y="252.249" style="fill:#FAC5B6;" width="45.997" height="1.586"/>
				<rect x="261.879" y="258.049" style="fill:#FAC5B6;" width="45.997" height="1.586"/>
				<rect x="261.879" y="263.848" style="fill:#FAC5B6;" width="45.997" height="1.586"/>
			</g>
		</g>
		<g>
			<rect x="41.542" y="132.655" style="fill:#FA9579;" width="46.154" height="29.843"/>
			<polygon style="fill:#FAC5B6;" points="41.542,162.499 64.619,143.403 87.697,162.499 			"/>
			<polygon style="fill:#FAD5CB;" points="41.542,132.655 64.619,149.895 87.697,132.655 			"/>
		</g>
	</g>
	<g>
		<g>
			<rect x="211.302" y="101.112" style="fill:#CBF5F2;" width="129.053" height="89.226"/>
			<rect x="211.304" y="101.112" style="fill:#FA9579;" width="129.05" height="5.914"/>
			<g>
				<path style="fill:#FFFFFF;" d="M332.494,104.069c0,0.533-0.432,0.964-0.965,0.964c-0.533,0-0.964-0.432-0.964-0.964
					c0-0.533,0.432-0.965,0.964-0.965C332.062,103.105,332.494,103.536,332.494,104.069z"/>
				<path style="fill:#FFFFFF;" d="M336.194,104.069c0,0.533-0.432,0.964-0.965,0.964c-0.533,0-0.964-0.432-0.964-0.964
					c0-0.533,0.432-0.965,0.964-0.965C335.762,103.105,336.194,103.536,336.194,104.069z"/>
			</g>
		</g>
		<g>
			<g>
				<g>
					<g>
						<path style="fill:#805B47;" d="M213.128,125.56c-1.037-2.981,1.31-5.79-1.23-6.52c-2.633-0.756-3.314,5.966-3.396,6.113
							c-0.083,0.147-11.175-8.51-12.748-6.895c-1.093,1.122,4.101,6.42,4.101,6.42s-10.401-0.461-10.476,1.252
							c-0.076,1.713,8.341,2.113,8.341,2.113s-7.333,3.709-6.764,4.833c0.569,1.125,7.655-1.831,7.655-1.831
							s-4.756,5.701-3.376,6.154c1.38,0.453,6.078-4.12,6.078-4.12s1.345,3.047,5.497,4.014c4.224,0.984,7.538-2.654,7.538-2.654
							C216.225,131.789,213.609,126.944,213.128,125.56z"/>
						<path style="fill:#FFFFFF;" d="M262.664,103.067c-8.695,3.567-15.813,40.227-15.813,40.227l-32.881-16.695
							c0,0-4.808,4.976-5.82,11.681c0,0,29.316,18.838,33.966,21.083s15.073,4.777,18.828-5.219
							C264.7,144.148,262.664,103.067,262.664,103.067z"/>
					</g>
					<g>
						<polygon style="fill:#654062;" points="317.84,190.338 251.069,190.338 255.016,160.606 258.628,133.453 258.628,133.446 
							261.297,113.369 262.137,107.029 262.664,103.067 268.076,101.112 268.083,101.112 271.688,99.811 273.933,99.001 
							275.315,98.495 275.419,98.458 288.182,98.02 288.844,98.168 290.285,98.488 292.917,99.075 301.703,101.03 301.717,101.112 
							302.788,107.029 305.122,119.962 305.122,119.97 						"/>
						<polygon style="fill:#FFFFFF;" points="319.876,190.338 291.735,190.338 287.944,159.112 287.342,154.147 286.257,145.22 
							287.981,125.232 287.981,125.225 289.55,107.029 290.063,101.112 290.285,98.488 292.917,99.075 301.703,101.03 
							301.717,101.112 302.922,107.029 305.315,118.78 						"/>
						<polygon style="fill:#FFE9D6;" points="292.914,99.071 294.853,124.342 291.817,126.571 295.676,141.678 287.343,154.144 
							286.26,145.22 290.285,98.485 						"/>
						<polygon style="fill:#FFFFFF;" points="273.933,99.001 273.725,101.112 273.145,107.029 271.301,125.79 269.421,144.967 
							269.309,147.033 268.923,154.147 266.968,190.338 250.444,190.338 254.584,160.77 258.442,133.208 261.23,113.287 
							262.107,107.029 262.664,103.067 268.076,101.112 268.083,101.112 271.688,99.811 						"/>
						<path style="fill:#65D6CE;" d="M259.757,122.7c-1.057,7.45-2.115,14.899-3.172,22.349c-0.298,2.1-0.596,4.2-0.894,6.3
							c-0.043,0.303,0.42,0.434,0.464,0.128l3.172-22.349c0.298-2.1,0.596-4.2,0.894-6.3
							C260.264,122.525,259.801,122.395,259.757,122.7z"/>
						<polygon style="fill:#FFE9D6;" points="271.685,99.81 264.995,124.342 267.66,126.571 261.389,142.374 268.926,154.144 
							269.423,144.967 273.931,98.999 						"/>
					</g>
					<g>
						<path style="fill:#805B47;" d="M257.849,109.281c-0.254-3.146,2.724-5.274,0.449-6.619c-2.358-1.394-4.708,4.941-4.825,5.062
							c-0.117,0.121-8.675-11.048-10.603-9.88c-1.34,0.811,2.354,7.245,2.354,7.245s-9.95-3.062-10.454-1.424
							c-0.504,1.639,7.541,4.143,7.541,4.143s-8.03,1.744-7.763,2.976c0.268,1.232,7.869,0.154,7.869,0.154
							s-6.037,4.321-4.815,5.107c1.222,0.786,6.919-2.459,6.919-2.459s0.536,3.288,4.311,5.268c3.841,2.015,7.964-0.672,7.964-0.672
							C259.28,116.089,257.967,110.742,257.849,109.281z"/>
						<path style="fill:#FFFFFF;" d="M301.701,101.028c11.773,3.077-3.884,46.22-6.025,51.977
							c-1.895,5.094-10.511,9.394-17.565,3.543c-8.063-6.689-29.969-37.308-29.969-37.308s6.025-6.342,11.244-8.24l24.102,29.922
							l9.965-34.823L301.701,101.028z"/>
						<path style="fill:#65D6CE;" d="M292.744,108.838c-1.116,4.219-2.296,8.421-3.542,12.603
							c-1.246,4.182-2.556,8.345-3.931,12.487c-0.709,2.136-1.438,4.266-2.181,6.39c-2.142-2.681-4.284-5.361-6.426-8.042
							c-3.351-4.194-6.702-8.387-10.053-12.581c-1.901-2.378-3.801-4.757-5.702-7.135c-0.193-0.242-0.531,0.101-0.34,0.34
							c3.376,4.225,6.752,8.45,10.128,12.674c3.351,4.194,6.702,8.387,10.053,12.581c0.718,0.899,1.436,1.798,2.155,2.696
							c-0.009,0.025-0.017,0.05-0.026,0.075c-0.073,0.209,0.142,0.329,0.308,0.277c1.088,1.362,2.177,2.724,3.265,4.086
							c0.193,0.242,0.531-0.101,0.34-0.34c-1.116-1.397-2.232-2.794-3.348-4.191c1.41-4.02,2.761-8.06,4.049-12.121
							c1.319-4.16,2.573-8.34,3.762-12.539c0.672-2.372,1.323-4.751,1.953-7.134C293.287,108.666,292.823,108.539,292.744,108.838z"
							/>
						<path style="fill:#65D6CE;" d="M269.173,146.883c-4.636-5.637-9.014-11.485-13.116-17.523
							c-1.151-1.694-2.279-3.403-3.386-5.126c-0.167-0.259-0.583-0.019-0.415,0.243c3.948,6.143,8.175,12.104,12.665,17.862
							c1.283,1.645,2.587,3.272,3.912,4.883C269.029,147.462,269.368,147.12,269.173,146.883z"/>
						<path style="fill:#65D6CE;" d="M304.906,122.671c-1.85,5.444-3.701,10.887-5.551,16.331c-0.919,2.703-1.837,5.406-2.756,8.109
							c-0.84,2.471-1.575,5.048-2.91,7.309c-1.294,2.192-3.323,4.107-5.926,4.487c-0.305,0.045-0.175,0.508,0.128,0.464
							c2.24-0.328,4.129-1.788,5.456-3.564c1.555-2.082,2.368-4.606,3.195-7.038c1.882-5.538,3.765-11.076,5.647-16.614l3.18-9.356
							C305.47,122.506,305.006,122.38,304.906,122.671z"/>
					</g>
				</g>
				<g>
					<g>
						<g>
							<path style="fill:#381A08;" d="M291.272,84.622c5.901-4.648,9.319-12.28,8.857-19.778c2.117-0.333,3.788-2.556,4.002-4.688
								c0.214-2.132-1.151-4.324-3.158-5.072c0.075-4.621-2.248-9.216-6.013-11.895c-3.765-2.68-8.867-3.369-13.209-1.785
								c-2.735-1.82-5.898-3.086-9.18-3.245s-6.678,0.86-9.08,3.102c-2.401,2.242-3.665,5.757-2.881,8.948
								c-2.358,1.461-3.959,4.079-4.186,6.844c-0.227,2.765,0.926,5.608,3.014,7.435c0.541,4.023,2.958,7.566,5.847,10.417
								C272.176,81.703,281.628,85.471,291.272,84.622z"/>
							<path style="fill:#805B47;" d="M293.939,77.919c0,0-5.032,10.245-5.274,23.949c-2.905,6.188-11.286,5.187-13.303-0.4
								c0.151-5.209-0.743-7.66-2.384-9.467c-0.136-0.152-0.272-0.285-0.414-0.43c-0.097-0.103-0.194-0.194-0.303-0.29
								c-0.193-0.181-0.418-0.349-0.63-0.535c-0.302-0.24-0.616-0.479-0.943-0.724l-0.006,0c-1.288-0.963-2.796-1.981-4.471-3.493
								c-2.441-2.187-4.253-5.181-4.946-9.85c-0.014-0.056-0.023-0.112-0.031-0.174c-0.015-0.068-0.023-0.137-0.032-0.205
								c-0.017-0.124-0.027-0.237-0.037-0.355c-0.014-0.056-0.016-0.106-0.024-0.155c-0.515-4.569-0.056-10.663,1.782-19.065
								c1.909-8.711,23.16-11.831,28.85-0.624C294.115,60.725,293.939,77.919,293.939,77.919z"/>
							<path style="fill:#381A08;" d="M261.288,62.176c2.306-0.832,3.88-3.346,3.62-5.784c5.605,2.384,12.233,2.229,17.721-0.413
								c-0.165,1.733,0.479,3.526,1.71,4.756c1.231,1.231,3.024,1.875,4.756,1.71c-1.06,2.271-1.215,4.95-0.424,7.328
								c0.791,2.378,2.519,4.43,4.728,5.615c3.31-3.09,4.587-8.248,3.761-12.7s-3.618-8.406-7.239-11.125
								c-3.621-2.719-8.019-4.273-12.489-4.996c-3.293-0.533-6.721-0.626-9.916,0.335c-3.194,0.961-6.14,3.082-7.566,6.097
								C258.526,56.014,258.943,59.804,261.288,62.176z"/>
							<g>
								<g>
									<g>
										<path d="M278.591,72.517c0.027,0.809-0.607,1.486-1.415,1.513c-0.809,0.027-1.486-0.607-1.513-1.415
											c-0.027-0.809,0.607-1.486,1.415-1.513C277.887,71.075,278.564,71.708,278.591,72.517z"/>
										<path style="fill:#FFFFFF;" d="M277.025,72.1c0.008,0.236-0.177,0.433-0.412,0.441c-0.236,0.008-0.433-0.177-0.441-0.412
											c-0.008-0.236,0.177-0.433,0.412-0.441C276.82,71.68,277.018,71.865,277.025,72.1z"/>
									</g>
									<g>
										<path d="M267.905,72.222c0.027,0.808-0.607,1.486-1.415,1.513c-0.809,0.027-1.486-0.607-1.513-1.415
											c-0.027-0.808,0.607-1.486,1.415-1.513C267.201,70.78,267.878,71.413,267.905,72.222z"/>
										<path style="fill:#FFFFFF;" d="M266.339,71.805c0.008,0.236-0.177,0.433-0.412,0.441
											c-0.236,0.008-0.433-0.177-0.441-0.412c-0.008-0.236,0.177-0.433,0.412-0.441
											C266.134,71.385,266.332,71.57,266.339,71.805z"/>
									</g>
								</g>
								<g>
									<path style="fill:#573A2A;" d="M271.225,74.354c-0.306-0.156-0.631-0.25-0.974-0.27c-0.306-0.019-0.643,0.021-0.897,0.206
										c-0.273,0.198-0.41,0.505-0.437,0.835c-0.026,0.316,0.077,0.627,0.194,0.916c0.063,0.155,0.211,0.285,0.392,0.229
										c0.148-0.046,0.296-0.225,0.229-0.392c-0.086-0.211-0.18-0.44-0.177-0.671c0.001-0.119,0.032-0.239,0.103-0.334
										c-0.004,0.006-0.008,0.012-0.012,0.018c0.065-0.102,0.19-0.139,0.303-0.159c0.009-0.002,0.017-0.003,0.03-0.005
										c0.024,0,0.048-0.004,0.073-0.004c0.064-0.003,0.128-0.002,0.192,0.002c0.033,0.002,0.065,0.005,0.098,0.008
										c0.017,0.002,0.019,0.001,0.024,0.002c0.005,0.001,0.006,0.001,0.021,0.004c0.2,0.036,0.37,0.118,0.558,0.185
										c0.142,0.051,0.317,0.009,0.392-0.13C271.413,74.65,271.384,74.435,271.225,74.354z"/>
									<path d="M264.14,66.299c1.684-0.91,3.727-0.997,5.444-0.108c0.42,0.218,0.653,0.775,0.415,1.211
										c-0.308,0.566-0.862,0.566-1.381,0.331c-0.463-0.21-0.963-0.338-1.469-0.379c0.002-0.028,0.045,0.02,0.017,0.019
										c-0.649-0.036-1.291,0.096-1.883,0.362c-0.035,0.016-0.07,0.032-0.126,0.059c-0.415,0.219-0.973,0.205-1.249-0.236
										C263.67,67.179,263.695,66.539,264.14,66.299z"/>
									<path d="M275.059,66.375c1.784-0.695,3.821-0.529,5.416,0.567c0.39,0.268,0.552,0.85,0.262,1.254
										c-0.281,0.391-0.836,0.549-1.254,0.262c-0.16-0.11-0.327-0.206-0.496-0.301c-0.017-0.008-0.014-0.007-0.024-0.012
										c-0.031-0.014-0.061-0.028-0.092-0.041c-0.067-0.028-0.134-0.056-0.202-0.081c-0.181-0.068-0.366-0.125-0.555-0.171
										c-0.047-0.012-0.349-0.103-0.117-0.029c-0.077-0.024-0.171-0.026-0.252-0.036c-0.18-0.021-0.362-0.032-0.543-0.033
										c-0.097-0.001-0.193,0.005-0.29,0.007c-0.011,0-0.014,0-0.021,0c-0.014,0.002-0.033,0.005-0.062,0.008
										c-0.18,0.022-0.359,0.054-0.535,0.096c-0.094,0.023-0.187,0.048-0.28,0.077c-0.037,0.011-0.073,0.024-0.11,0.036
										c-0.007,0.003-0.003,0.001-0.012,0.005c-0.003,0.001-0.005,0.001-0.008,0.002c-0.003,0.001-0.006,0.002-0.008,0.003
										c0.004-0.001,0.002-0.001,0.006-0.002c-0.439,0.167-0.991,0.083-1.21-0.389C274.483,67.19,274.588,66.558,275.059,66.375z"
										/>
									<path style="fill:#573A2A;" d="M275.656,79.093c-0.194-0.218-0.491-0.204-0.71-0.042c-1.23,0.912-2.801,1.265-4.307,1.038
										c-0.269-0.041-0.517,0.218-0.532,0.472c-0.017,0.292,0.202,0.491,0.472,0.532c1.777,0.268,3.598-0.224,5.035-1.289
										C275.832,79.641,275.826,79.284,275.656,79.093z"/>
								</g>
							</g>
							<g>
								<path style="fill:#805B47;" d="M298.56,78.45c-1.878,2.106-4.756,2.606-6.428,1.115c-1.672-1.491-1.505-4.407,0.373-6.514
									c1.878-2.107,4.756-2.606,6.428-1.115C300.605,73.427,300.438,76.343,298.56,78.45z"/>
								<path style="fill:#573A2A;" d="M297.717,72.958c-0.758-0.431-1.787-0.443-2.749-0.03c-0.48,0.205-0.831,0.462-1.076,0.785
									c-0.323,0.428-0.426,0.974-0.268,1.426c0.141,0.405,0.452,0.675,0.728,0.913c0.199,0.172,0.387,0.335,0.491,0.526
									c0.159,0.293,0.104,0.695-0.128,0.935c-0.231,0.24-0.63,0.307-0.929,0.158c-0.176-0.088-0.388-0.016-0.476,0.159
									c-0.087,0.175-0.017,0.388,0.159,0.476c0.192,0.096,0.401,0.145,0.613,0.152c0.421,0.013,0.847-0.145,1.143-0.452
									c0.445-0.461,0.545-1.203,0.24-1.765c-0.165-0.303-0.422-0.527-0.65-0.723c-0.228-0.197-0.443-0.384-0.522-0.611
									c-0.08-0.228-0.015-0.527,0.164-0.765c0.072-0.096,0.17-0.181,0.277-0.263c0.352,0.008,0.789,0.129,1.004,0.379
									c0.242,0.282,0.348,0.683,0.277,1.047c-0.038,0.192,0.088,0.378,0.28,0.416c0.019,0.004,0.039,0.006,0.058,0.007
									c0.17,0.005,0.324-0.113,0.358-0.286c0.115-0.58-0.048-1.195-0.435-1.645c-0.144-0.167-0.327-0.283-0.519-0.378
									c0.591-0.14,1.168-0.091,1.609,0.159c0.545,0.31,0.941,1.078,0.637,1.685c-0.087,0.175-0.016,0.388,0.159,0.476
									c0.175,0.087,0.387,0.017,0.476-0.159C299.08,74.692,298.658,73.493,297.717,72.958z"/>
							</g>
						</g>
					</g>
				</g>
			</g>
		</g>
	</g>
	<g>
		<g>
			<rect x="282.952" y="314.535" style="fill:#CC694D;" width="160.287" height="7.338"/>
			<rect x="219.819" y="314.535" style="fill:#FA9579;" width="160.288" height="7.338"/>
		</g>
		<rect x="226.398" y="321.874" style="fill:#CC694D;" width="209.883" height="3.229"/>
		<polygon style="fill:#CC694D;" points="229.877,325.102 219.819,452.452 222.286,452.452 237.373,325.102 		"/>
		<polygon style="fill:#CC694D;" points="370.048,325.102 380.106,452.452 377.639,452.452 362.552,325.102 		"/>
		<polygon style="fill:#994731;" points="291.044,325.102 280.986,452.452 283.453,452.452 298.54,325.102 		"/>
		<polygon style="fill:#994731;" points="431.215,325.102 441.273,452.452 438.806,452.452 423.719,325.102 		"/>
	</g>
	<g>
		<g>
			<rect x="72.18" y="182.646" style="fill:#CBF5F2;" width="129.053" height="89.226"/>
			<rect x="72.179" y="182.646" style="fill:#FA9579;" width="129.05" height="5.914"/>
			<g>
				<path style="fill:#FFFFFF;" d="M193.369,185.603c0,0.533-0.432,0.964-0.965,0.964c-0.533,0-0.964-0.432-0.964-0.964
					c0-0.533,0.432-0.964,0.964-0.964C192.937,184.639,193.369,185.07,193.369,185.603z"/>
				<path style="fill:#FFFFFF;" d="M197.07,185.603c0,0.533-0.432,0.964-0.964,0.964c-0.533,0-0.964-0.432-0.964-0.964
					c0-0.533,0.432-0.964,0.964-0.964C196.638,184.639,197.07,185.07,197.07,185.603z"/>
			</g>
		</g>
		<g>
			<g>
				<g>
					<path style="fill:#421F09;" d="M125.185,126.479c-4.997,2.388-8.913,6.939-10.529,12.236
						c-1.084,3.553-1.194,7.434-2.939,10.713c-1.293,2.431-3.383,4.327-5.04,6.526c-1.657,2.2-2.917,5.02-2.153,7.666
						c1.096,3.795,5.988,6.075,5.865,10.024c-0.065,2.079-1.592,3.824-3.253,5.077c-1.661,1.253-3.558,2.232-4.943,3.783
						c-2.633,2.947-2.846,7.557-1.153,11.128c1.692,3.571,4.995,6.177,8.595,7.807c3.6,1.631,7.522,2.394,11.402,3.144
						c3.153,0.609,6.307,1.22,9.481,1.706c2.934,0.449,6.3,1.206,9.272,0.891c2.126-0.225,4.251-1.048,6.402-1.37
						c2.793-0.417,5.583-1.096,8.071-2.475c3.886-2.155,6.923-6.502,6.127-10.874c-0.484-2.655-2.245-4.866-3.839-7.044
						c-1.467-2.004-2.679-4.086-3.096-6.567c-0.364-2.163,1.13-3.66,2.557-5.196c2.07-2.229,4.436-4.62,4.577-7.658
						c0.202-4.365-4.269-7.704-4.719-12.05c-0.3-2.896,1.236-5.623,1.972-8.44c1.239-4.745,0.073-10.053-3.04-13.843
						c-1.637-1.993-3.793-3.541-6.177-4.515c-2.405-0.983-4.704-0.876-7.195-1.279c-2.701-0.437-5.086-1.366-7.89-1.324
						C130.66,124.588,127.786,125.236,125.185,126.479z"/>
					<path style="fill:#FFFFFF;" d="M181.32,271.872h-17.906l-1.873-2.884l-0.944-1.457l-11.99-18.486l-3.768-5.805l0.847-11.365
						l0.349-4.653l0.007-0.119l1.249-16.732l0.03-0.394l0.022-0.268l0.305-4.155l0.461-6.095l0.81-10.897l0.29-3.873
						c1.524,0.565,2.787,1.933,3.843,3.873c1.724,3.166,2.877,7.857,3.642,13.03c0.015,0.119,0.03,0.23,0.045,0.349
						c0.007,0.045,0.015,0.097,0.022,0.149c0.015,0.134,0.037,0.268,0.052,0.401c0.119,0.862,0.23,1.732,0.327,2.616
						c0.045,0.372,0.082,0.751,0.126,1.13c0.037,0.386,0.074,0.78,0.104,1.167c0.037,0.305,0.06,0.609,0.082,0.914
						c0.349,3.954,0.52,7.946,0.602,11.558v0.074c0.007,0.29,0.015,0.572,0.015,0.855c0.007,0.216,0.007,0.431,0.015,0.647
						c0,0.327,0.007,0.654,0.007,0.974c0.074,6.712-0.163,11.603-0.163,11.603L181.32,271.872z"/>
					<g>
						<g>
							<g>
								<g>
									<g>
										<g>
											<g>
												<g>
													<g>
														<g>
															<g>
																<g>
																	<g>
																		<g>
																			<g>
																				<g>
																					<g>
																						<g>
																							<g>
																								<g>
																									<path style="fill:#FA9579;" d="M161.652,271.872h-60.505l10.756-22.812l0.268-12.829l0.037-1.762
																										l0.022-1.122l0.647-30.684l0.297-14.1l0.067-3.278l0.045-0.015l0.126-0.045l0.334-0.104
																										c0.007,0,0.007,0,0.015,0l7.678-2.475l0.022-0.007l2.171-0.699l1.962-0.632l0.758-0.245l12.963,0.089
																										l0.141,0.052l0.832,0.297l2.743,0.981l0.461,0.163l5.716,2.044l0.26,1.494l0.424,2.379l1.487,8.474
																										l0.446,2.512l0.045,0.26c0.632,0.602,1.219,1.226,1.762,1.873c0.379,0.453,0.736,0.914,1.07,1.39
																										c0.082,0.119,0.163,0.238,0.245,0.349c0.03,0.045,0.052,0.082,0.074,0.119
																										c0.067,0.097,0.134,0.186,0.186,0.282c0.944,1.449,1.695,2.958,2.245,4.497
																										c1.457,4.014,1.613,8.161,0.602,11.558c-0.007,0.037-0.015,0.074-0.03,0.111
																										c-1.003,3.3-3.107,5.88-6.184,6.92c0,0,0.045,0.201,0.119,0.572c0.03,0.134,0.059,0.297,0.104,0.483
																										c1.093,5.24,5.998,28.654,8.533,39.566C161.028,269.397,161.392,270.891,161.652,271.872z"/>
																								</g>
																							</g>
																						</g>
																					</g>
																				</g>
																			</g>
																		</g>
																	</g>
																</g>
															</g>
														</g>
													</g>
												</g>
											</g>
										</g>
									</g>
								</g>
							</g>
						</g>
					</g>
					<path style="fill:#FFFFFF;" d="M162.165,271.872h-11.023l-2.535-22.827l-1.293-11.64l-0.03-0.223l-0.208-1.888l-0.535-4.237
						l-0.498-3.954l-1.791-14.219l-0.045-0.312l-0.03-0.245l-0.743-5.909l-2.252-17.854l-0.751-5.917l-0.141-1.145l2.743,0.981
						l0.461,0.163l5.716,2.044l0.26,1.494l0.424,2.379l1.487,8.474l0.446,2.512l0.045,0.26c0.907,0.78,1.747,1.657,2.512,2.616
						c0.156,0.186,0.305,0.379,0.446,0.572c0.082,0.104,0.164,0.216,0.238,0.327c0.03,0.037,0.052,0.074,0.082,0.111
						c0.067,0.089,0.134,0.186,0.193,0.283c0.795,1.152,1.479,2.393,2.029,3.687c1.68,3.865,2.223,8.199,1.122,12.123
						c-0.119,0.431-0.26,0.862-0.424,1.278c-0.52,1.368-1.264,2.669-2.237,3.858c-0.015,0.015-0.03,0.037-0.045,0.052
						c-0.877,1.055-1.94,2.029-3.204,2.891l0.022,0.089l8.935,41.29L162.165,271.872z"/>
					<polygon style="fill:#FFE9D6;" points="143.034,182.479 149.772,205.044 147.648,208.93 152.018,213.827 147.31,237.402 
						140.291,181.498 					"/>
					<path style="fill:#65D6CE;" d="M157.053,204.971c-1.424-2.136-3.249-3.977-5.319-5.488c0.004-0.024,0.008-0.048,0.004-0.076
						l-1.959-13.087c-0.046-0.305-0.51-0.176-0.464,0.128c0.648,4.331,1.297,8.662,1.945,12.993
						c-0.057,0.104-0.053,0.248,0.07,0.336c3.71,2.66,6.661,6.493,7.791,10.958c1.159,4.58,0.343,9.634-2.73,13.304
						c-1.519,1.814-3.499,3.232-5.751,3.978c-0.293,0.097-0.167,0.562,0.128,0.464c4.232-1.402,7.489-5.026,8.73-9.273
						C160.906,214.381,159.811,209.11,157.053,204.971z"/>
					<path style="fill:#FFFFFF;" d="M135.272,233.243l-0.743,8.816l-0.03,0.364l-0.022,0.29l-2.46,29.16H97.765l13.097-50.299
						l0.022-0.082l1.241-19.073l0.899-13.855l0.215-3.278l0.045-0.015l0.126-0.045l0.334-0.104c0.007,0,0.007,0,0.015,0l7.678-2.475
						l0.022-0.007l2.171-0.699l0.163,0.706l1.338,5.917l3.969,17.497l3.583,15.765l0.067,0.312v0.007l0.052,0.208l1.531,6.749
						L135.272,233.243z"/>
					<polygon style="fill:#FFE9D6;" points="121.46,182.639 122.033,206.834 126.86,209.936 125.363,222.583 134.334,229.106 
						123.635,181.937 					"/>
					<g>
						<g>
							<g>
								<g>
									<g>
										<path style="fill:#FFD3BA;" d="M163.589,205.552c0,0,4.537,2.66,8.535,0.315c3.93-2.306,4.335-5.842,4.335-5.842
											s6.246,3.175,7.511,2.274c1.265-0.9-5.399-5.208-5.399-5.208s8.169,0.766,8.393-0.563
											c0.223-1.329-8.437-2.784-8.437-2.784s8.462-3.081,7.841-4.805c-0.621-1.724-11.088,2.049-11.088,2.049
											s3.618-7.055,2.147-7.853c-2.118-1.149-10.688,11.207-10.819,11.084c-0.131-0.123-2.961-6.767-5.407-5.159
											c-2.361,1.551,0.926,3.673,0.815,7.044C161.964,197.67,160.832,203.444,163.589,205.552z"/>
									</g>
								</g>
							</g>
						</g>
					</g>
					<path style="fill:#FFFFFF;" d="M113.243,185.288c-7.46,2.351-1.099,48.086-0.461,51.903c1.566,9.366,13.496,12.32,19.804,6.934
						c5.987-5.112,37.64-35.994,37.64-35.994c-1.988-6.267-9.228-9.581-9.228-9.581l-32.839,27.43c0,0-1.01-26.073-4.229-34.014
						C120.072,182.444,113.243,185.288,113.243,185.288z"/>
					<path style="fill:#65D6CE;" d="M137.287,239.572c-2.016,2.026-4.262,3.863-6.859,5.093c-2.67,1.265-5.768,1.829-8.68,1.167
						c-5.305-1.206-8.432-6.3-9.526-11.297c-0.757-3.458-0.741-7.025-0.729-10.547c0.001-0.31-0.48-0.31-0.482,0
						c-0.022,5.946,0.024,12.376,3.631,17.418c1.488,2.08,3.512,3.787,5.959,4.606c2.907,0.973,6.151,0.656,8.971-0.455
						c3.089-1.217,5.731-3.309,8.054-5.644C137.846,239.693,137.506,239.352,137.287,239.572z"/>
					<path style="fill:#65D6CE;" d="M159.317,199.806c-4.136,3.419-8.272,6.839-12.408,10.258c-4.12,3.406-8.241,6.813-12.361,10.22
						c-1.9,1.571-3.8,3.142-5.7,4.712c-0.959-6.422-1.78-12.865-2.455-19.323c-0.194-1.859-0.377-3.719-0.548-5.58
						c-0.028-0.306-0.51-0.309-0.482,0c0.611,6.654,1.372,13.294,2.283,19.914c0.245,1.783,0.503,3.565,0.77,5.345
						c-0.287,0.237-2.331,1.918-2.618,2.155c-0.239,0.198,0.103,0.537,0.34,0.34c0.248-0.205,2.254-1.854,2.502-2.059
						c0.121,0.004,0.255-0.084,0.274-0.227c3.797-3.139,7.593-6.278,11.39-9.416c4.12-3.407,8.241-6.813,12.361-10.22
						c2.33-1.927,4.661-3.853,6.991-5.78C159.896,199.949,159.554,199.61,159.317,199.806z"/>
				</g>
				<g>
					<path style="fill:#8D90FE;" d="M166.34,194.16"/>
				</g>
				<g>
					<path style="fill:#8D90FE;" d="M166.34,194.16"/>
				</g>
			</g>
			<g>
				<g>
					<path style="fill:#FFD3BA;" d="M153.414,157.513c-0.005,0.09-0.018,0.18-0.023,0.27c-0.012,0.106-0.017,0.196-0.03,0.302
						c-0.542,5.055-2.357,8.257-4.886,10.646c-1.355,1.288-2.616,2.238-3.726,3.084c-0.357,0.274-0.69,0.53-1.015,0.786
						c-0.254,0.197-0.491,0.401-0.735,0.613c-2.474,2.102-3.865,4.409-3.512,11.012c-1.943,5.757-10.501,7.004-13.62,0.737
						c-0.338-7.997-2.223-14.813-3.799-19.188c-0.4-1.143-0.785-2.114-1.115-2.893c-0.624-1.493-1.061-2.308-1.061-2.308
						s-0.571-17.586,1.707-22.386c5.553-11.583,27.372-8.901,29.534-0.026C153.208,146.644,153.824,152.846,153.414,157.513z"/>
					<path style="fill:#421F09;" d="M153.855,149.505c-2.671-4.703-6.671-8.643-11.414-11.243c-2.5,3.892-6.799,6.538-11.405,6.955
						c-0.261,3.275-1.733,6.44-4.07,8.75c-2.337,2.31-5.519,3.745-8.797,3.967c-0.457-4.241-0.94-8.635-0.418-12.869
						c0.522-4.234,2.121-8.473,5.22-11.405c3.668-3.47,8.959-4.69,14.007-4.775c3.81-0.064,7.743,0.478,11.026,2.414
						c2.985,1.76,5.287,4.65,6.336,7.953C155.389,142.556,155.278,146.344,153.855,149.505z"/>
					<g>
						<path style="fill:#FFD3BA;" d="M115.183,161.232c1.972,2.11,4.929,2.553,6.604,0.987c1.675-1.565,1.434-4.545-0.537-6.656
							c-1.972-2.111-4.929-2.553-6.604-0.987C112.971,156.142,113.211,159.121,115.183,161.232z"/>
						<path style="fill:#C16B5B;" d="M115.914,155.593c0.766-0.459,1.817-0.496,2.812-0.096c0.496,0.198,0.862,0.453,1.119,0.778
							c0.341,0.43,0.459,0.987,0.308,1.452c-0.134,0.418-0.447,0.702-0.723,0.952c-0.2,0.181-0.388,0.352-0.49,0.55
							c-0.155,0.304-0.09,0.714,0.153,0.954c0.242,0.24,0.652,0.299,0.955,0.139c0.178-0.094,0.396-0.025,0.491,0.151
							c0.093,0.177,0.026,0.397-0.151,0.49c-0.194,0.103-0.407,0.158-0.623,0.17c-0.43,0.023-0.87-0.128-1.181-0.435
							c-0.466-0.461-0.587-1.217-0.287-1.801c0.161-0.314,0.42-0.549,0.648-0.755c0.228-0.207,0.444-0.403,0.52-0.638
							c0.076-0.235,0.003-0.54-0.186-0.779c-0.076-0.096-0.178-0.181-0.29-0.263c-0.36,0.016-0.804,0.151-1.018,0.412
							c-0.241,0.295-0.34,0.707-0.259,1.078c0.043,0.196-0.08,0.389-0.276,0.432c-0.02,0.005-0.039,0.007-0.059,0.008
							c-0.174,0.01-0.334-0.108-0.373-0.284c-0.131-0.591,0.021-1.224,0.406-1.694c0.143-0.174,0.328-0.297,0.522-0.399
							c-0.608-0.129-1.197-0.066-1.643,0.201c-0.551,0.33-0.937,1.125-0.612,1.74c0.093,0.177,0.026,0.396-0.151,0.49
							c-0.177,0.093-0.396,0.026-0.49-0.151C114.561,157.4,114.964,156.163,115.914,155.593z"/>
					</g>
					<g>
						<g>
							<path style="fill:#C16B5B;" d="M143.449,156.129c0.311-0.159,0.643-0.255,0.992-0.276c0.312-0.019,0.655,0.022,0.914,0.21
								c0.278,0.202,0.418,0.514,0.445,0.851c0.026,0.322-0.079,0.639-0.198,0.933c-0.064,0.158-0.215,0.29-0.399,0.233
								c-0.151-0.047-0.302-0.229-0.233-0.399c0.087-0.215,0.183-0.448,0.18-0.684c-0.001-0.121-0.033-0.244-0.105-0.341
								c0.004,0.006,0.008,0.012,0.012,0.019c-0.066-0.104-0.194-0.142-0.308-0.162c-0.009-0.002-0.018-0.003-0.031-0.005
								c-0.025,0-0.049-0.004-0.074-0.005c-0.065-0.003-0.131-0.002-0.196,0.002c-0.033,0.002-0.066,0.005-0.099,0.008
								c-0.017,0.002-0.019,0.002-0.024,0.002c-0.006,0.001-0.006,0.002-0.021,0.004c-0.204,0.037-0.377,0.12-0.568,0.188
								c-0.145,0.052-0.322,0.009-0.399-0.132C143.258,156.431,143.286,156.212,143.449,156.129z"/>
							<path d="M150.666,147.923c-1.715-0.927-3.796-1.016-5.546-0.11c-0.428,0.222-0.665,0.79-0.423,1.234
								c0.314,0.577,0.878,0.576,1.407,0.337c0.472-0.213,0.981-0.345,1.497-0.386c-0.002-0.028-0.046,0.021-0.017,0.019
								c0.662-0.036,1.315,0.098,1.918,0.369c0.036,0.016,0.071,0.033,0.128,0.06c0.422,0.223,0.991,0.209,1.273-0.241
								C151.145,148.821,151.119,148.168,150.666,147.923z"/>
							<path d="M139.544,148.001c-1.817-0.708-3.893-0.538-5.517,0.577c-0.397,0.273-0.562,0.866-0.267,1.277
								c0.286,0.398,0.851,0.56,1.277,0.267c0.163-0.112,0.333-0.209,0.505-0.307c0.017-0.009,0.014-0.007,0.024-0.013
								c0.031-0.014,0.062-0.028,0.094-0.042c0.068-0.029,0.136-0.057,0.206-0.083c0.185-0.069,0.373-0.127,0.565-0.174
								c0.048-0.012,0.355-0.104,0.119-0.029c0.079-0.025,0.174-0.027,0.256-0.036c0.184-0.021,0.369-0.033,0.553-0.034
								c0.099,0,0.197,0.005,0.296,0.007c0.011,0,0.014,0,0.022,0c0.014,0.002,0.034,0.005,0.063,0.008
								c0.183,0.022,0.365,0.055,0.545,0.098c0.096,0.023,0.191,0.049,0.285,0.078c0.037,0.011,0.075,0.024,0.112,0.036
								c0.007,0.003,0.004,0.001,0.012,0.005c0.003,0.001,0.006,0.001,0.008,0.002c0.003,0.001,0.006,0.002,0.009,0.003
								c-0.004-0.001-0.002-0.001-0.006-0.002c0.447,0.169,1.009,0.085,1.233-0.396C140.13,148.832,140.024,148.188,139.544,148.001
								z"/>
							<path style="fill:#8E4136;" d="M140.134,160.601c1.174,0.894,2.664,1.305,4.131,1.17c0.406-0.037,0.44,0.594,0.035,0.632
								c-1.638,0.151-3.281-0.336-4.587-1.33C139.387,160.826,139.811,160.356,140.134,160.601z"/>
							<g>
								<g>
									<path d="M135.945,154.258c-0.027,0.824,0.618,1.513,1.441,1.541c0.824,0.027,1.513-0.618,1.541-1.441
										c0.027-0.824-0.618-1.514-1.442-1.541C136.663,152.789,135.973,153.434,135.945,154.258z"/>
									<path style="fill:#FFFFFF;" d="M137.54,153.834c-0.008,0.24,0.18,0.441,0.42,0.449c0.24,0.008,0.441-0.18,0.449-0.42
										c0.008-0.24-0.18-0.441-0.42-0.449S137.548,153.594,137.54,153.834z"/>
								</g>
								<g>
									<path d="M146.831,153.957c-0.027,0.824,0.618,1.514,1.441,1.541c0.824,0.027,1.514-0.618,1.541-1.441
										c0.027-0.824-0.618-1.514-1.442-1.541C147.548,152.488,146.858,153.134,146.831,153.957z"/>
									<path style="fill:#FFFFFF;" d="M148.425,153.533c-0.008,0.24,0.18,0.441,0.42,0.449c0.24,0.008,0.441-0.18,0.449-0.42
										c0.008-0.24-0.18-0.441-0.42-0.449C148.635,153.105,148.434,153.293,148.425,153.533z"/>
								</g>
							</g>
						</g>
					</g>
				</g>
			</g>
		</g>
	</g>
	<g>
		<path style="fill:#CC694D;" d="M183.833,430.169h-22.19v-2.696c0-4.377,3.548-7.925,7.925-7.925h6.339
			c4.377,0,7.925,3.548,7.925,7.925V430.169z"/>
		<path style="fill:#CC694D;" d="M214.559,455.514h-9.424v-7.22l-28.787-12.958l-28.787,12.958v7.22h-9.424v-10.267
			c0-1.854,1.087-3.536,2.778-4.297l33.499-15.079c1.23-0.553,2.638-0.553,3.868,0l33.499,15.079
			c1.691,0.761,2.778,2.443,2.778,4.297V455.514z"/>
		<rect x="166.623" y="370.068" style="fill:#CC694D;" width="10.814" height="60.101"/>
		<rect x="163.963" y="370.068" style="fill:#FA9579;" width="10.814" height="60.101"/>
		<path style="fill:#472244;" d="M154.585,360.443v3.422c0,4.489,3.639,8.128,8.128,8.128h42.349c4.489,0,8.128-3.639,8.128-8.128
			v-3.422H154.585z"/>
		<path style="fill:#654062;" d="M139.72,360.443v3.422c0,4.489,3.639,8.128,8.128,8.128h42.349c4.489,0,8.128-3.639,8.128-8.128
			v-3.422H139.72z"/>
		<g>
			<path style="fill:#1B6662;" d="M255.324,362.662h-61.765c-8.738,0-16.024-6.272-17.324-14.912l-13.105-87.111
				c-0.516-3.431,1.847-6.631,5.278-7.147c3.429-0.52,6.631,1.847,7.148,5.278l13.105,87.111c0.368,2.443,2.428,4.216,4.898,4.216
				h61.765c3.47,0,6.283,2.813,6.283,6.283C261.606,359.849,258.794,362.662,255.324,362.662z"/>
			<polygon style="fill:#1B6662;" points="106.382,253.492 168.408,253.492 184.742,356.807 120.792,356.807 			"/>
			<path style="fill:#34948E;" d="M193.298,362.662h-61.765c-8.738,0-16.024-6.272-17.323-14.912l-13.105-87.111
				c-0.516-3.431,1.847-6.631,5.278-7.147c3.428-0.515,6.632,1.847,7.148,5.278l13.105,87.111c0.368,2.443,2.427,4.216,4.898,4.216
				h61.765c3.47,0,6.283,2.813,6.283,6.283C199.581,359.849,196.768,362.662,193.298,362.662z"/>
		</g>
		<path style="fill:#FA9579;" d="M207.581,455.514h-9.424v-7.22l-28.787-12.958l-28.787,12.958v7.22h-9.424v-10.267
			c0-1.854,1.087-3.536,2.778-4.297l33.499-15.079c1.23-0.553,2.638-0.553,3.868,0l33.499,15.079
			c1.691,0.761,2.778,2.443,2.778,4.297V455.514z"/>
		<path style="fill:#FA9579;" d="M180.465,430.169h-22.19v-2.696c0-4.377,3.548-7.925,7.925-7.925h6.339
			c4.377,0,7.925,3.548,7.925,7.925V430.169z"/>
	</g>
	<g>
		<g>
			<g>
				<polygon style="fill:#472244;" points="314.297,314.793 421.778,314.793 431.109,241.227 323.629,241.227 				"/>
				<polygon style="fill:#654062;" points="311.254,314.793 418.734,314.793 428.066,241.227 320.586,241.227 				"/>
				<polygon style="fill:#CBF5F2;" points="423.537,244.052 422.84,249.577 415.844,304.705 316.7,304.705 321.259,268.758 
					323.692,249.577 324.394,244.052 				"/>
				<g>
					<polygon style="fill:#FA9579;" points="423.539,244.051 422.838,249.576 323.694,249.576 324.394,244.051 					"/>
					<g>
						<path style="fill:#FFFFFF;" d="M415.142,246.814c-0.097,0.552-0.622,0.999-1.174,0.999c-0.552,0-0.921-0.447-0.824-0.999
							c0.097-0.552,0.622-0.999,1.174-0.999C414.87,245.815,415.239,246.262,415.142,246.814z"/>
						<path style="fill:#FFFFFF;" d="M418.291,246.814c-0.097,0.552-0.622,0.999-1.174,0.999c-0.552,0-0.921-0.447-0.824-0.999
							c0.097-0.552,0.622-0.999,1.174-0.999C418.019,245.815,418.388,246.262,418.291,246.814z"/>
					</g>
				</g>
			</g>
			
				<rect x="276.427" y="306.576" transform="matrix(-1 -1.224647e-16 1.224647e-16 -1 645.1853 621.3693)" style="fill:#654062;" width="92.331" height="8.217"/>
			<rect x="305.74" y="306.596" style="fill:#472244;" width="33.704" height="2.281"/>
			
				<rect x="367.707" y="306.576" transform="matrix(-1 -1.224647e-16 1.224647e-16 -1 789.4847 621.3693)" style="fill:#472244;" width="54.07" height="8.217"/>
		</g>
		<g>
			<g>
				<g>
					<g>
						<path style="fill:#EBBDA4;" d="M323.923,214.514c0.97-3.004,4.535-3.83,2.948-5.944c-1.645-2.19-6.24,2.763-6.395,2.83
							c-0.154,0.067-3.787-13.526-6.016-13.186c-1.548,0.237-0.597,7.594-0.597,7.594s-8.021-6.637-9.114-5.316
							c-1.093,1.321,5.382,6.713,5.382,6.713s-8.087-1.461-8.311-0.221c-0.224,1.241,7.211,3.153,7.211,3.153
							s-7.231,1.682-6.403,2.876c0.828,1.193,7.334,0.376,7.334,0.376s-0.763,3.242,1.967,6.517
							c2.777,3.332,7.615,2.426,7.615,2.426C322.641,221.351,323.473,215.909,323.923,214.514z"/>
						<path style="fill:#FFFFFF;" d="M352.697,217.288c-8.297,2.869-15.888,41.837-15.888,41.837l-12.525-42.89
							c0,0-7.212,0.579-13.538,4.085c0,0,9.154,44.172,11.197,51.015c3.089,10.343,21.283,14.909,28.3,3.395
							C357.26,263.216,352.697,217.288,352.697,217.288z"/>
						<g>
							<polygon style="fill:#CC694D;" points="407.901,304.705 341.083,304.705 344.358,280.062 349.142,244.052 352.696,217.289 
								361.721,214.034 361.721,214.029 363.966,213.221 365.356,212.721 365.457,212.682 378.214,212.235 378.882,212.384 
								380.32,212.706 382.945,213.293 391.735,215.25 396.938,244.052 404.664,286.789 							"/>
							<polygon style="fill:#FFFFFF;" points="409.939,304.705 381.786,304.705 379.392,284.957 377.377,268.363 376.295,259.439 
								377.622,244.052 380.32,212.706 382.945,213.293 391.735,215.25 397.596,244.052 406.035,285.525 							"/>
							<polygon style="fill:#FFE9D6;" points="382.947,213.291 384.887,238.562 381.85,240.792 385.709,255.898 377.377,268.365 
								376.294,259.441 380.319,212.706 							"/>
							<polygon style="fill:#FFFFFF;" points="363.966,213.221 360.942,244.052 359.456,259.189 358.961,268.363 356.994,304.705 
								340.458,304.705 343.882,280.274 348.95,244.052 352.696,217.289 361.721,214.034 361.721,214.029 							"/>
							<path style="fill:#65D6CE;" d="M351.422,227.764c-0.599,5.319-1.277,10.628-2.035,15.926
								c-0.756,5.28-1.591,10.549-2.504,15.805c-0.514,2.959-1.053,5.913-1.617,8.862c-0.058,0.302,0.406,0.432,0.464,0.128
								c1.008-5.278,1.938-10.571,2.788-15.877c0.844-5.269,1.608-10.55,2.295-15.842c0.389-2.997,0.752-5.998,1.091-9.002
								C351.938,227.457,351.457,227.459,351.422,227.764z"/>
							<polygon style="fill:#FFE9D6;" points="361.719,214.03 355.028,238.562 357.693,240.792 351.422,256.594 358.96,268.365 
								359.456,259.188 363.964,213.219 							"/>
						</g>
						<g>
							<path style="fill:#FFFFFF;" d="M408.8,282.784c-0.591,0.668-1.543,1.601-2.765,2.741c-0.423,0.399-0.885,0.817-1.37,1.265
								c-5.188,4.703-13.685,11.848-21.008,17.916h-24.201l19.936-19.748l15.348-15.204l-7.842-25.701l-1.885-6.184l6.722-22.618
								c6.328,1.625,11.612,16.228,15.084,28.802c2.419,8.756,3.967,16.522,4.385,18.233
								C412.214,266.464,414.748,276.076,408.8,282.784z"/>
						</g>
						<path style="fill:#65D6CE;" d="M398.244,265.993c-1.307,1.268-2.614,2.535-3.921,3.802c-1.034-3.754-2.067-7.507-3.101-11.261
							c-1.067-3.876-2.135-7.752-3.202-11.628c-0.605-2.198-1.211-4.397-1.816-6.595c-0.082-0.298-0.546-0.171-0.464,0.128
							c1.067,3.876,2.135,7.752,3.202,11.628c1.067,3.876,2.135,7.752,3.202,11.628c0.595,2.161,1.19,4.321,1.785,6.482
							c-3.317,3.215-6.631,6.431-9.92,9.675c-1.321,1.303-2.637,2.611-3.947,3.926c-0.219,0.219,0.121,0.56,0.34,0.34
							c4.658-4.677,9.402-9.266,14.14-13.863c1.347-1.307,2.695-2.615,4.042-3.922C398.807,266.117,398.467,265.777,398.244,265.993
							z"/>
						<path style="fill:#65D6CE;" d="M405.392,285.81c-5.232,4.521-10.464,9.043-15.695,13.564
							c-1.482,1.281-2.964,2.561-4.445,3.842c-0.235,0.203,0.107,0.542,0.34,0.34c5.232-4.521,10.464-9.043,15.695-13.564
							c1.482-1.281,2.964-2.561,4.445-3.842C405.967,285.948,405.625,285.609,405.392,285.81z"/>
					</g>
					<g>
						<g>
							<g>
								<path style="fill:#381A08;" d="M381.836,198.194c5.57-5.05,8.986-12.404,9.251-19.919c0.043-1.234,0-2.501-0.457-3.648
									c-0.457-1.147-1.397-2.164-2.605-2.422c1.104-4.887-1.384-10.081-5.23-13.292c-3.846-3.21-8.833-4.726-13.774-5.555
									c-3.475-0.583-7.066-0.862-10.502-0.086c-3.437,0.777-6.728,2.726-8.501,5.77c-1.774,3.044-1.724,7.236,0.615,9.871
									c-1.615,2.929-1.563,6.373-1.205,9.699c0.356,3.309,1.004,6.686,2.8,9.488c2.254,3.518,6.033,5.72,9.721,7.682
									c3.039,1.617,6.161,3.178,9.531,3.878C374.848,200.36,379.286,200.506,381.836,198.194z"/>
								<path style="fill:#EBBDA4;" d="M383.972,192.139c0,0-5.032,10.245-5.275,23.949c-2.905,6.188-11.286,5.187-13.302-0.4
									c0.151-5.21-0.743-7.66-2.384-9.467c-0.136-0.152-0.272-0.285-0.414-0.43c-0.097-0.103-0.194-0.193-0.303-0.29
									c-0.194-0.181-0.418-0.349-0.63-0.535c-0.302-0.24-0.616-0.479-0.943-0.725l-0.006,0c-1.288-0.963-2.796-1.981-4.471-3.493
									c-2.441-2.187-4.253-5.181-4.945-9.85c-0.014-0.056-0.022-0.112-0.031-0.174c-0.015-0.068-0.023-0.137-0.032-0.205
									c-0.016-0.124-0.026-0.237-0.037-0.355c-0.014-0.056-0.016-0.106-0.024-0.155c-0.515-4.569-0.055-10.663,1.782-19.065
									c1.909-8.711,23.16-11.831,28.85-0.624C384.149,174.945,383.972,192.139,383.972,192.139z"/>
								<path style="fill:#381A08;" d="M352.191,170.002c6.987,3.98,15.853,4.471,23.237,1.289c-0.064,1.111,0.403,2.24,1.233,2.981
									c0.83,0.741,2.005,1.076,3.102,0.886c-1.37,5.652-0.041,11.896,3.51,16.502c2.501-5.493,3.407-11.774,1.651-17.549
									c-1.466-4.822-4.564-9.3-9.039-11.619c-4.636-2.402-10.269-2.259-15.247-0.686c-2.045,0.646-4.05,1.541-5.669,2.949
									C353.35,166.163,352.341,167.862,352.191,170.002z"/>
								<g>
									<g>
										<g>
											<path d="M368.624,186.737c0.027,0.809-0.607,1.486-1.415,1.513c-0.809,0.027-1.486-0.607-1.513-1.415
												c-0.027-0.809,0.607-1.486,1.415-1.513C367.92,185.295,368.598,185.929,368.624,186.737z"/>
											<path style="fill:#FFFFFF;" d="M367.059,186.321c0.008,0.236-0.177,0.433-0.412,0.441
												c-0.236,0.008-0.433-0.177-0.441-0.412c-0.008-0.236,0.177-0.433,0.412-0.441
												C366.854,185.901,367.051,186.085,367.059,186.321z"/>
										</g>
										<g>
											<path d="M357.938,186.442c0.027,0.808-0.607,1.486-1.415,1.513c-0.809,0.027-1.486-0.607-1.513-1.415
												c-0.027-0.809,0.607-1.486,1.415-1.513C357.234,185,357.911,185.634,357.938,186.442z"/>
											<path style="fill:#FFFFFF;" d="M356.373,186.026c0.008,0.236-0.177,0.433-0.412,0.441
												c-0.236,0.008-0.433-0.177-0.441-0.412c-0.008-0.236,0.177-0.433,0.412-0.441
												C356.168,185.605,356.365,185.79,356.373,186.026z"/>
										</g>
									</g>
									<g>
										<path style="fill:#C16B5B;" d="M361.258,188.574c-0.306-0.156-0.631-0.25-0.974-0.27
											c-0.306-0.018-0.643,0.021-0.897,0.206c-0.273,0.198-0.41,0.505-0.437,0.835c-0.026,0.316,0.077,0.628,0.194,0.916
											c0.063,0.155,0.211,0.285,0.392,0.229c0.148-0.046,0.296-0.225,0.229-0.392c-0.086-0.211-0.18-0.44-0.177-0.671
											c0.001-0.119,0.032-0.239,0.103-0.334c-0.004,0.006-0.008,0.012-0.012,0.018c0.065-0.102,0.19-0.139,0.302-0.159
											c0.009-0.002,0.017-0.003,0.03-0.005c0.024,0,0.048-0.004,0.072-0.004c0.064-0.003,0.128-0.002,0.192,0.002
											c0.033,0.002,0.065,0.005,0.098,0.008c0.017,0.002,0.019,0.001,0.024,0.002c0.005,0.001,0.006,0.001,0.02,0.004
											c0.2,0.036,0.37,0.118,0.558,0.185c0.142,0.051,0.317,0.009,0.392-0.13C361.446,188.871,361.418,188.656,361.258,188.574z
											"/>
										<path d="M354.173,180.519c1.684-0.91,3.727-0.997,5.444-0.108c0.42,0.218,0.653,0.775,0.415,1.211
											c-0.308,0.566-0.862,0.566-1.381,0.331c-0.463-0.21-0.963-0.338-1.469-0.379c0.002-0.028,0.045,0.02,0.017,0.019
											c-0.649-0.036-1.291,0.096-1.883,0.362c-0.035,0.016-0.07,0.032-0.126,0.059c-0.415,0.219-0.973,0.205-1.249-0.236
											C353.703,181.4,353.728,180.759,354.173,180.519z"/>
										<path d="M365.092,180.595c1.784-0.695,3.821-0.529,5.415,0.567c0.39,0.268,0.552,0.85,0.262,1.254
											c-0.281,0.391-0.836,0.549-1.253,0.262c-0.161-0.11-0.327-0.206-0.496-0.301c-0.017-0.008-0.014-0.007-0.024-0.012
											c-0.031-0.014-0.061-0.028-0.092-0.041c-0.067-0.029-0.134-0.056-0.202-0.081c-0.181-0.068-0.367-0.125-0.555-0.171
											c-0.047-0.012-0.349-0.102-0.117-0.029c-0.077-0.024-0.171-0.026-0.252-0.036c-0.18-0.021-0.362-0.032-0.543-0.033
											c-0.097-0.001-0.193,0.005-0.29,0.007c-0.01,0-0.014,0-0.021,0c-0.014,0.002-0.033,0.005-0.062,0.008
											c-0.18,0.022-0.359,0.054-0.535,0.096c-0.094,0.023-0.187,0.048-0.28,0.077c-0.037,0.011-0.073,0.024-0.11,0.036
											c-0.007,0.003-0.003,0.001-0.012,0.005c-0.003,0.001-0.005,0.001-0.008,0.002c-0.003,0.001-0.006,0.002-0.008,0.003
											c0.004-0.001,0.002-0.001,0.006-0.002c-0.439,0.167-0.991,0.083-1.21-0.389
											C364.517,181.411,364.621,180.779,365.092,180.595z"/>
										<path style="fill:#C16B5B;" d="M365.69,193.314c-0.194-0.218-0.491-0.204-0.71-0.042c-1.23,0.912-2.801,1.265-4.307,1.038
											c-0.269-0.041-0.517,0.218-0.532,0.472c-0.017,0.292,0.202,0.491,0.472,0.532c1.777,0.268,3.598-0.224,5.034-1.289
											C365.866,193.862,365.859,193.504,365.69,193.314z"/>
									</g>
								</g>
								<g>
									<path style="fill:#EBBDA4;" d="M388.593,192.67c-1.878,2.106-4.756,2.605-6.429,1.115
										c-1.672-1.491-1.505-4.407,0.373-6.514c1.878-2.107,4.756-2.606,6.428-1.115
										C390.638,187.648,390.471,190.564,388.593,192.67z"/>
									<path style="fill:#C16B5B;" d="M387.751,187.179c-0.758-0.431-1.787-0.443-2.749-0.03c-0.48,0.205-0.831,0.462-1.076,0.785
										c-0.323,0.428-0.426,0.974-0.268,1.426c0.141,0.405,0.452,0.675,0.728,0.913c0.199,0.172,0.387,0.335,0.491,0.526
										c0.158,0.293,0.104,0.695-0.128,0.935c-0.231,0.24-0.63,0.307-0.929,0.158c-0.176-0.088-0.388-0.016-0.476,0.159
										c-0.087,0.175-0.017,0.388,0.159,0.476c0.192,0.096,0.401,0.145,0.613,0.152c0.421,0.013,0.847-0.145,1.143-0.452
										c0.445-0.461,0.545-1.203,0.24-1.765c-0.164-0.303-0.422-0.527-0.65-0.723c-0.228-0.197-0.443-0.384-0.522-0.611
										c-0.08-0.228-0.015-0.527,0.164-0.765c0.072-0.096,0.17-0.181,0.277-0.263c0.352,0.007,0.789,0.129,1.004,0.379
										c0.242,0.282,0.348,0.683,0.277,1.047c-0.038,0.192,0.088,0.378,0.28,0.416c0.019,0.004,0.039,0.006,0.058,0.007
										c0.17,0.005,0.324-0.113,0.358-0.286c0.115-0.58-0.048-1.195-0.435-1.645c-0.144-0.167-0.327-0.283-0.519-0.378
										c0.591-0.14,1.168-0.091,1.61,0.159c0.545,0.309,0.941,1.078,0.637,1.685c-0.087,0.175-0.016,0.388,0.159,0.476
										c0.176,0.087,0.387,0.017,0.476-0.159C389.114,188.913,388.692,187.714,387.751,187.179z"/>
								</g>
							</g>
						</g>
					</g>
				</g>
			</g>
		</g>
	</g>
	<g>
		<g>
			<path style="fill:#65D6CE;" d="M412.237,375.487c3.398,1.793,6.795,3.586,10.193,5.378c2.549-5.981,3.705-12.529,3.519-19.048
				c-2.578-1.377-5.155-2.754-7.733-4.131c2.504,0.219,5.009,0.438,7.513,0.657c-0.651-6.359-2.581-12.583-5.776-18.097
				c-5.26-0.893-10.647-0.966-15.935-0.274c0.026,2.107,0.051,4.214,0.077,6.32c-1.744-1.799-3.488-3.598-5.232-5.397
				c-5.699,1.302-11.183,3.517-16.176,6.552c1.813,1.865,3.626,3.73,5.439,5.595c-3.374-0.935-6.793-1.701-10.242-2.305
				c-2.8,2.178-5.351,4.689-7.261,7.667c-2.286,3.565-3.611,7.847-3.151,12.058c0.387,3.545,2.054,6.937,4.625,9.409
				c2.571,2.472,6.026,4.004,9.584,4.251c2.317,5.742,6.52,10.686,12.421,12.562c5.901,1.876,12.619,0.983,17.826-2.367
				c3.073-1.977,5.552-4.718,7.538-7.803C417.056,382.837,414.647,379.162,412.237,375.487z"/>
			<path style="fill:#1B6662;" d="M417.13,344.967c-8.657,5.075-16.464,11.569-23.088,19.104
				c-6.604,7.512-12.056,16.04-16.047,25.212c-2.247,5.163-4.035,10.516-5.316,16c-0.146,0.626,0.818,0.893,0.964,0.266
				c2.257-9.664,6.093-18.921,11.261-27.39c5.166-8.467,11.644-16.127,19.152-22.61c4.221-3.644,8.768-6.898,13.579-9.718
				C418.19,345.505,417.687,344.641,417.13,344.967z"/>
		</g>
		<g>
			<path style="fill:#34948E;" d="M395.41,357.222c2.978,0.217,5.956,0.435,8.934,0.652c0.378-2.816,0.384-5.693,0.046-8.505
				c-0.293-2.434-0.828-4.823-1.55-7.16c-5.687-0.765-11.375-1.53-17.062-2.295c5.373-0.149,10.746-0.299,16.119-0.448
				c-1.43-3.786-3.325-7.417-5.479-10.846c-1.227-1.953-2.553-3.839-3.96-5.663c-3.578-0.58-7.156-1.16-10.734-1.739
				c2.507-0.715,5.013-1.43,7.52-2.146c-4.869-5.505-10.529-10.324-16.673-14.367c-9.917,2.691-18.958,8.513-25.51,16.428
				c-0.335,0.405-0.66,0.819-0.982,1.235c4.175,1.69,8.35,3.38,12.524,5.07c-5.057-0.435-10.114-0.87-15.17-1.305
				c-3.61,5.677-6.074,12.08-7.196,18.712c5.036,0.263,10.071,0.527,15.107,0.79c-5.258,2.029-10.517,4.058-15.775,6.087
				c-0.108,4.98,0.659,10.014,2.975,14.398c2.382,4.508,6.367,8.148,11.072,10.113c4.705,1.965,10.095,2.24,14.976,0.764
				c5.137,3.566,12.938,4.174,19.109,3.165c6.171-1.009,11.9-4.495,15.633-9.511c2.012-2.704,3.414-5.792,4.271-9.046
				C400.873,360.144,398.141,358.683,395.41,357.222z"/>
			<path style="fill:#1B6662;" d="M370.082,407.068c-2.817-12.16-4.58-24.555-5.267-37.018c-0.684-12.426-0.309-24.911,1.127-37.272
				c0.809-6.964,1.965-13.885,3.447-20.737c0.136-0.628-0.828-0.896-0.964-0.266c-2.65,12.246-4.243,24.719-4.757,37.238
				c-0.515,12.553,0.049,25.151,1.694,37.607c0.919,6.961,2.17,13.874,3.755,20.714
				C369.263,407.961,370.228,407.695,370.082,407.068z"/>
		</g>
		<g>
			<path style="fill:#65D6CE;" d="M370.016,353.792c-0.434-0.723-0.901-1.422-1.39-2.104c-2.511,0.229-5.022,0.458-7.533,0.688
				c1.289-1.661,2.578-3.322,3.867-4.983c-2.729-2.72-5.894-5.031-9.261-6.957c-4.747,1.044-9.493,2.087-14.24,3.131
				c2.178-2.249,4.357-4.497,6.535-6.746c-1.938-0.73-3.915-1.342-5.918-1.848c-2.246,1.319-4.492,2.638-6.738,3.957
				c0.599-1.659,1.197-3.317,1.796-4.976c-8.272-1.327-16.848-0.876-25.022,1.246c-0.639,0.166-1.178,6.804-1.284,7.633
				c-0.34,2.667-0.569,5.347-0.688,8.033c-0.173,3.913-0.105,7.836,0.191,11.741c3.457,0.237,6.913,0.473,10.37,0.71
				c-3.212,1.937-6.425,3.874-9.637,5.811c1.195,7.45,3.883,13.759,10.141,18.073c4.628-3.579,9.257-7.158,13.885-10.737
				c-2.387,4.764-4.774,9.527-7.161,14.29c9.179,3.898,21.888,6.165,27.118-3.867c7.479,0.575,14.661-4.531,17.412-11.51
				C375.21,368.399,373.878,360.223,370.016,353.792z"/>
			<path style="fill:#1B6662;" d="M351.719,373.916c-3.904-9.23-9.774-17.583-17.09-24.429c-4.008-3.75-8.443-7.041-13.194-9.788
				c-0.558-0.323-1.062,0.541-0.505,0.863c8.368,4.838,15.732,11.387,21.505,19.142c6.135,8.242,10.4,17.786,12.503,27.84
				c1.228,5.872,1.703,11.887,1.426,17.879c-0.03,0.643,0.97,0.642,1,0C357.861,394.668,355.913,383.833,351.719,373.916z"/>
		</g>
		<path style="fill:#654062;" d="M336.96,397.165l5.621,40.106c1.384,9.875,11.601,17.222,22.934,17.222h12.812
			c11.333,0,21.55-7.347,22.934-17.222l5.621-40.106H336.96z"/>
	</g>
</g>
</svg>
