<svg width="24" height="24" viewBox="0 0 24 24" fill="none" xmlns="http://www.w3.org/2000/svg">
<path d="M20.04 6.82018L14.28 2.79018C12.71 1.69018 10.3 1.75018 8.79001 2.92018L3.78001 6.83018C2.78001 7.61018 1.99001 9.21018 1.99001 10.4702V17.3702C1.99001 19.9202 4.06001 22.0002 6.61001 22.0002H17.39C19.94 22.0002 22.01 19.9302 22.01 17.3802V10.6002C22.01 9.25018 21.14 7.59018 20.04 6.82018ZM12.75 18.0002C12.75 18.4102 12.41 18.7502 12 18.7502C11.59 18.7502 11.25 18.4102 11.25 18.0002V15.0002C11.25 14.5902 11.59 14.2502 12 14.2502C12.41 14.2502 12.75 14.5902 12.75 15.0002V18.0002Z" fill="#091A23"/>
</svg>
