<svg width="24" height="24" viewBox="0 0 24 24" fill="none" xmlns="http://www.w3.org/2000/svg">
<path d="M13.9981 10.4626L10.4626 13.9981C10.1727 14.288 9.69183 14.288 9.40191 13.9981C9.112 13.7082 9.112 13.2274 9.40191 12.9374L12.9374 9.40191C13.2274 9.112 13.7082 9.112 13.9981 9.40191C14.288 9.69182 14.288 10.1727 13.9981 10.4626Z" fill="#091A23"/>
<path d="M13.9981 13.9985C13.7082 14.2884 13.2274 14.2884 12.9374 13.9985L9.40191 10.4629C9.112 10.173 9.112 9.6922 9.40191 9.40229C9.69183 9.11237 10.1727 9.11237 10.4626 9.40229L13.9981 12.9378C14.288 13.2277 14.288 13.7086 13.9981 13.9985Z" fill="#091A23"/>
<path d="M11.5 21.75C5.85 21.75 1.25 17.15 1.25 11.5C1.25 5.85 5.85 1.25 11.5 1.25C17.15 1.25 21.75 5.85 21.75 11.5C21.75 17.15 17.15 21.75 11.5 21.75ZM11.5 2.75C6.67 2.75 2.75 6.68 2.75 11.5C2.75 16.32 6.67 20.25 11.5 20.25C16.33 20.25 20.25 16.32 20.25 11.5C20.25 6.68 16.33 2.75 11.5 2.75Z" fill="#091A23"/>
<path d="M22 22.7499C21.81 22.7499 21.62 22.6799 21.47 22.5299L19.47 20.5299C19.18 20.2399 19.18 19.7599 19.47 19.4699C19.76 19.1799 20.24 19.1799 20.53 19.4699L22.53 21.4699C22.82 21.7599 22.82 22.2399 22.53 22.5299C22.38 22.6799 22.19 22.7499 22 22.7499Z" fill="#091A23"/>
</svg>
